<mxfile host="65bd71144e">
    <diagram id="iT9HYdmFFWpAvI91WKYc" name="Acr(Interface)">
        <mxGraphModel dx="1434" dy="825" grid="1" gridSize="10" guides="1" tooltips="1" connect="1" arrows="1" fold="1" page="1" pageScale="1" pageWidth="1654" pageHeight="1169" math="0" shadow="0">
            <root>
                <mxCell id="0"/>
                <mxCell id="1" parent="0"/>
                <mxCell id="2" value="" style="rounded=0;whiteSpace=wrap;html=1;" parent="1" vertex="1">
                    <mxGeometry x="80" y="80" width="200" height="400" as="geometry"/>
                </mxCell>
                <mxCell id="3" value="CPU" style="text;html=1;strokeColor=none;fillColor=none;align=center;verticalAlign=middle;whiteSpace=wrap;rounded=0;fontStyle=1;fontSize=18;" parent="1" vertex="1">
                    <mxGeometry x="80" y="40" width="60" height="40" as="geometry"/>
                </mxCell>
                <mxCell id="4" value="" style="rounded=0;whiteSpace=wrap;html=1;" parent="1" vertex="1">
                    <mxGeometry x="440" y="80" width="530" height="400" as="geometry"/>
                </mxCell>
                <mxCell id="5" value="FPGA" style="text;html=1;strokeColor=none;fillColor=none;align=center;verticalAlign=middle;whiteSpace=wrap;rounded=0;fontStyle=1;fontSize=18;" parent="1" vertex="1">
                    <mxGeometry x="440" y="40" width="60" height="40" as="geometry"/>
                </mxCell>
                <mxCell id="11" style="edgeStyle=none;html=1;fontSize=18;" parent="1" source="6" target="9" edge="1">
                    <mxGeometry relative="1" as="geometry"/>
                </mxCell>
                <mxCell id="6" value="" style="rounded=0;whiteSpace=wrap;html=1;fontSize=18;" parent="1" vertex="1">
                    <mxGeometry x="120" y="120" width="120" height="60" as="geometry"/>
                </mxCell>
                <mxCell id="7" value="Tx" style="text;html=1;strokeColor=none;fillColor=none;align=center;verticalAlign=middle;whiteSpace=wrap;rounded=0;fontSize=18;" parent="1" vertex="1">
                    <mxGeometry x="150" y="135" width="60" height="30" as="geometry"/>
                </mxCell>
                <mxCell id="13" style="edgeStyle=none;html=1;entryX=0.5;entryY=0;entryDx=0;entryDy=0;fontSize=18;" parent="1" source="9" target="12" edge="1">
                    <mxGeometry relative="1" as="geometry"/>
                </mxCell>
                <mxCell id="9" value="" style="rounded=0;whiteSpace=wrap;html=1;fontSize=18;" parent="1" vertex="1">
                    <mxGeometry x="480" y="120" width="120" height="60" as="geometry"/>
                </mxCell>
                <mxCell id="10" value="Rx" style="text;html=1;strokeColor=none;fillColor=none;align=center;verticalAlign=middle;whiteSpace=wrap;rounded=0;fontSize=18;" parent="1" vertex="1">
                    <mxGeometry x="510" y="135" width="60" height="30" as="geometry"/>
                </mxCell>
                <mxCell id="17" style="html=1;exitX=1;exitY=0.25;exitDx=0;exitDy=0;entryX=0;entryY=0.129;entryDx=0;entryDy=0;entryPerimeter=0;fontSize=18;edgeStyle=orthogonalEdgeStyle;strokeColor=default;rounded=0;" parent="1" source="12" target="15" edge="1">
                    <mxGeometry relative="1" as="geometry">
                        <Array as="points">
                            <mxPoint x="620" y="265"/>
                            <mxPoint x="620" y="160"/>
                        </Array>
                    </mxGeometry>
                </mxCell>
                <mxCell id="12" value="" style="rounded=0;whiteSpace=wrap;html=1;fontSize=18;" parent="1" vertex="1">
                    <mxGeometry x="480" y="210" width="120" height="220" as="geometry"/>
                </mxCell>
                <mxCell id="14" value="DDR5" style="text;html=1;strokeColor=none;fillColor=none;align=center;verticalAlign=middle;whiteSpace=wrap;rounded=0;fontSize=18;" parent="1" vertex="1">
                    <mxGeometry x="480" y="210" width="120" height="30" as="geometry"/>
                </mxCell>
                <mxCell id="18" style="edgeStyle=orthogonalEdgeStyle;rounded=0;html=1;exitX=0;exitY=0.25;exitDx=0;exitDy=0;entryX=1;entryY=0.5;entryDx=0;entryDy=0;strokeColor=default;fontSize=18;" parent="1" source="15" target="12" edge="1">
                    <mxGeometry relative="1" as="geometry">
                        <Array as="points">
                            <mxPoint x="640" y="197"/>
                            <mxPoint x="640" y="320"/>
                        </Array>
                    </mxGeometry>
                </mxCell>
                <mxCell id="15" value="" style="rounded=0;whiteSpace=wrap;html=1;fontSize=18;" parent="1" vertex="1">
                    <mxGeometry x="660" y="120" width="290" height="310" as="geometry"/>
                </mxCell>
                <mxCell id="16" value="Core" style="text;html=1;strokeColor=none;fillColor=none;align=center;verticalAlign=middle;whiteSpace=wrap;rounded=0;fontSize=18;" parent="1" vertex="1">
                    <mxGeometry x="775" y="265" width="60" height="30" as="geometry"/>
                </mxCell>
            </root>
        </mxGraphModel>
    </diagram>
    <diagram id="c4k5QaeJhOLU95r1GUiV" name="Stream">
        <mxGraphModel dx="993" dy="773" grid="1" gridSize="5" guides="1" tooltips="1" connect="1" arrows="1" fold="1" page="1" pageScale="1" pageWidth="1654" pageHeight="1169" math="0" shadow="0">
            <root>
                <mxCell id="0"/>
                <mxCell id="1" parent="0"/>
                <mxCell id="gbgMZmuwehnBAz_iI6Bm-4" style="edgeStyle=none;html=1;exitX=1;exitY=0.5;exitDx=0;exitDy=0;entryX=0;entryY=0.5;entryDx=0;entryDy=0;" parent="1" source="gbgMZmuwehnBAz_iI6Bm-1" target="gbgMZmuwehnBAz_iI6Bm-2" edge="1">
                    <mxGeometry relative="1" as="geometry"/>
                </mxCell>
                <mxCell id="gbgMZmuwehnBAz_iI6Bm-1" value="Recieve" style="rounded=0;whiteSpace=wrap;html=1;" parent="1" vertex="1">
                    <mxGeometry x="260" y="240" width="60" height="20" as="geometry"/>
                </mxCell>
                <mxCell id="gbgMZmuwehnBAz_iI6Bm-8" style="edgeStyle=none;html=1;exitX=0.5;exitY=1;exitDx=0;exitDy=0;entryX=0.5;entryY=0;entryDx=0;entryDy=0;" parent="1" source="gbgMZmuwehnBAz_iI6Bm-2" target="gbgMZmuwehnBAz_iI6Bm-5" edge="1">
                    <mxGeometry relative="1" as="geometry"/>
                </mxCell>
                <mxCell id="gbgMZmuwehnBAz_iI6Bm-2" value="Stream" style="rounded=0;whiteSpace=wrap;html=1;" parent="1" vertex="1">
                    <mxGeometry x="340" y="240" width="60" height="20" as="geometry"/>
                </mxCell>
                <mxCell id="gbgMZmuwehnBAz_iI6Bm-5" value="8/32" style="rounded=0;whiteSpace=wrap;html=1;" parent="1" vertex="1">
                    <mxGeometry x="340" y="280" width="60" height="20" as="geometry"/>
                </mxCell>
            </root>
        </mxGraphModel>
    </diagram>
    <diagram id="5ARHHfyrfAhau9acHHhn" name="MultiMul">
        <mxGraphModel dx="2483" dy="1933" grid="1" gridSize="10" guides="1" tooltips="1" connect="1" arrows="1" fold="1" page="1" pageScale="1" pageWidth="4681" pageHeight="3300" math="0" shadow="0">
            <root>
                <mxCell id="0"/>
                <mxCell id="1" parent="0"/>
                <mxCell id="Ymgi8AtLxsKTSbRszZ6a-1" value="" style="rounded=0;whiteSpace=wrap;html=1;" parent="1" vertex="1">
                    <mxGeometry x="40" y="80" width="760" height="200" as="geometry"/>
                </mxCell>
                <mxCell id="Pi7Klkwn1qeg-zvXWujy-4" style="edgeStyle=none;rounded=0;html=1;exitX=1;exitY=0.5;exitDx=0;exitDy=0;entryX=0;entryY=0.25;entryDx=0;entryDy=0;fontSize=11;" parent="1" source="Pi7Klkwn1qeg-zvXWujy-1" target="Pi7Klkwn1qeg-zvXWujy-3" edge="1">
                    <mxGeometry relative="1" as="geometry">
                        <Array as="points">
                            <mxPoint x="430" y="140"/>
                            <mxPoint x="430" y="160"/>
                        </Array>
                    </mxGeometry>
                </mxCell>
                <mxCell id="Pi7Klkwn1qeg-zvXWujy-1" value="" style="rounded=0;whiteSpace=wrap;html=1;fontSize=11;" parent="1" vertex="1">
                    <mxGeometry x="80" y="120" width="320" height="40" as="geometry"/>
                </mxCell>
                <mxCell id="Pi7Klkwn1qeg-zvXWujy-5" style="edgeStyle=none;rounded=0;html=1;exitX=1;exitY=0.5;exitDx=0;exitDy=0;entryX=0;entryY=0.75;entryDx=0;entryDy=0;fontSize=11;" parent="1" source="Pi7Klkwn1qeg-zvXWujy-2" target="Pi7Klkwn1qeg-zvXWujy-3" edge="1">
                    <mxGeometry relative="1" as="geometry">
                        <Array as="points">
                            <mxPoint x="430" y="220"/>
                            <mxPoint x="430" y="200"/>
                        </Array>
                    </mxGeometry>
                </mxCell>
                <mxCell id="Pi7Klkwn1qeg-zvXWujy-2" value="" style="rounded=0;whiteSpace=wrap;html=1;fontSize=11;" parent="1" vertex="1">
                    <mxGeometry x="80" y="200" width="320" height="40" as="geometry"/>
                </mxCell>
                <mxCell id="Pi7Klkwn1qeg-zvXWujy-8" style="edgeStyle=none;rounded=0;html=1;exitX=1;exitY=0.5;exitDx=0;exitDy=0;entryX=0;entryY=0.5;entryDx=0;entryDy=0;fontSize=11;" parent="1" source="Pi7Klkwn1qeg-zvXWujy-3" target="Pi7Klkwn1qeg-zvXWujy-6" edge="1">
                    <mxGeometry relative="1" as="geometry"/>
                </mxCell>
                <mxCell id="Pi7Klkwn1qeg-zvXWujy-3" value="" style="rounded=0;whiteSpace=wrap;html=1;fontSize=11;" parent="1" vertex="1">
                    <mxGeometry x="460" y="140" width="80" height="80" as="geometry"/>
                </mxCell>
                <mxCell id="Pi7Klkwn1qeg-zvXWujy-11" style="edgeStyle=none;rounded=0;html=1;exitX=1;exitY=0.5;exitDx=0;exitDy=0;fontSize=11;" parent="1" source="Pi7Klkwn1qeg-zvXWujy-6" edge="1">
                    <mxGeometry relative="1" as="geometry">
                        <mxPoint x="720" y="180.2" as="targetPoint"/>
                    </mxGeometry>
                </mxCell>
                <mxCell id="Pi7Klkwn1qeg-zvXWujy-6" value="" style="rounded=0;whiteSpace=wrap;html=1;fontSize=11;" parent="1" vertex="1">
                    <mxGeometry x="580" y="140" width="80" height="80" as="geometry"/>
                </mxCell>
                <mxCell id="Pi7Klkwn1qeg-zvXWujy-9" style="edgeStyle=none;rounded=0;html=1;exitX=1;exitY=0.5;exitDx=0;exitDy=0;entryX=0.5;entryY=0;entryDx=0;entryDy=0;fontSize=11;" parent="1" source="Pi7Klkwn1qeg-zvXWujy-6" target="Pi7Klkwn1qeg-zvXWujy-6" edge="1">
                    <mxGeometry relative="1" as="geometry">
                        <Array as="points">
                            <mxPoint x="680" y="180"/>
                            <mxPoint x="680" y="120"/>
                            <mxPoint x="620" y="120"/>
                        </Array>
                    </mxGeometry>
                </mxCell>
                <mxCell id="Pi7Klkwn1qeg-zvXWujy-12" value="" style="rounded=0;whiteSpace=wrap;html=1;fontSize=11;" parent="1" vertex="1">
                    <mxGeometry x="720" y="160" width="40" height="40" as="geometry"/>
                </mxCell>
                <mxCell id="d3ESriYFiE-QQfhzsGAl-1" value="" style="rounded=0;whiteSpace=wrap;html=1;fontSize=11;" parent="1" vertex="1">
                    <mxGeometry x="1080" y="40" width="80" height="80" as="geometry"/>
                </mxCell>
                <mxCell id="d3ESriYFiE-QQfhzsGAl-2" value="" style="rounded=0;whiteSpace=wrap;html=1;fontSize=11;" parent="1" vertex="1">
                    <mxGeometry x="1200" y="40" width="80" height="80" as="geometry"/>
                </mxCell>
                <mxCell id="d3ESriYFiE-QQfhzsGAl-3" value="" style="rounded=0;whiteSpace=wrap;html=1;fontSize=11;" parent="1" vertex="1">
                    <mxGeometry x="1320" y="40" width="80" height="80" as="geometry"/>
                </mxCell>
                <mxCell id="d3ESriYFiE-QQfhzsGAl-4" value="" style="rounded=0;whiteSpace=wrap;html=1;fontSize=11;" parent="1" vertex="1">
                    <mxGeometry x="1440" y="40" width="80" height="80" as="geometry"/>
                </mxCell>
                <mxCell id="d3ESriYFiE-QQfhzsGAl-5" value="" style="rounded=0;whiteSpace=wrap;html=1;fontSize=11;" parent="1" vertex="1">
                    <mxGeometry x="1560" y="40" width="80" height="80" as="geometry"/>
                </mxCell>
                <mxCell id="d3ESriYFiE-QQfhzsGAl-6" value="" style="rounded=0;whiteSpace=wrap;html=1;fontSize=11;" parent="1" vertex="1">
                    <mxGeometry x="1680" y="40" width="80" height="80" as="geometry"/>
                </mxCell>
                <mxCell id="d3ESriYFiE-QQfhzsGAl-8" value="" style="rounded=0;whiteSpace=wrap;html=1;fontSize=11;" parent="1" vertex="1">
                    <mxGeometry x="1080" y="160" width="80" height="80" as="geometry"/>
                </mxCell>
                <mxCell id="d3ESriYFiE-QQfhzsGAl-9" value="" style="rounded=0;whiteSpace=wrap;html=1;fontSize=11;" parent="1" vertex="1">
                    <mxGeometry x="1200" y="160" width="80" height="80" as="geometry"/>
                </mxCell>
                <mxCell id="d3ESriYFiE-QQfhzsGAl-10" value="" style="rounded=0;whiteSpace=wrap;html=1;fontSize=11;" parent="1" vertex="1">
                    <mxGeometry x="1320" y="160" width="80" height="80" as="geometry"/>
                </mxCell>
                <mxCell id="d3ESriYFiE-QQfhzsGAl-11" value="" style="rounded=0;whiteSpace=wrap;html=1;fontSize=11;" parent="1" vertex="1">
                    <mxGeometry x="1440" y="160" width="80" height="80" as="geometry"/>
                </mxCell>
                <mxCell id="d3ESriYFiE-QQfhzsGAl-12" value="" style="rounded=0;whiteSpace=wrap;html=1;fontSize=11;" parent="1" vertex="1">
                    <mxGeometry x="1560" y="160" width="80" height="80" as="geometry"/>
                </mxCell>
                <mxCell id="d3ESriYFiE-QQfhzsGAl-13" value="" style="rounded=0;whiteSpace=wrap;html=1;fontSize=11;" parent="1" vertex="1">
                    <mxGeometry x="1680" y="160" width="80" height="80" as="geometry"/>
                </mxCell>
                <mxCell id="d3ESriYFiE-QQfhzsGAl-14" value="" style="rounded=0;whiteSpace=wrap;html=1;fontSize=11;" parent="1" vertex="1">
                    <mxGeometry x="1080" y="280" width="80" height="80" as="geometry"/>
                </mxCell>
                <mxCell id="d3ESriYFiE-QQfhzsGAl-15" value="" style="rounded=0;whiteSpace=wrap;html=1;fontSize=11;" parent="1" vertex="1">
                    <mxGeometry x="1200" y="280" width="80" height="80" as="geometry"/>
                </mxCell>
                <mxCell id="d3ESriYFiE-QQfhzsGAl-16" value="" style="rounded=0;whiteSpace=wrap;html=1;fontSize=11;" parent="1" vertex="1">
                    <mxGeometry x="1320" y="280" width="80" height="80" as="geometry"/>
                </mxCell>
                <mxCell id="d3ESriYFiE-QQfhzsGAl-17" value="" style="rounded=0;whiteSpace=wrap;html=1;fontSize=11;" parent="1" vertex="1">
                    <mxGeometry x="1440" y="280" width="80" height="80" as="geometry"/>
                </mxCell>
                <mxCell id="d3ESriYFiE-QQfhzsGAl-18" value="" style="rounded=0;whiteSpace=wrap;html=1;fontSize=11;" parent="1" vertex="1">
                    <mxGeometry x="1560" y="280" width="80" height="80" as="geometry"/>
                </mxCell>
                <mxCell id="d3ESriYFiE-QQfhzsGAl-19" value="" style="rounded=0;whiteSpace=wrap;html=1;fontSize=11;" parent="1" vertex="1">
                    <mxGeometry x="1680" y="280" width="80" height="80" as="geometry"/>
                </mxCell>
                <mxCell id="d3ESriYFiE-QQfhzsGAl-20" value="" style="rounded=0;whiteSpace=wrap;html=1;fontSize=11;" parent="1" vertex="1">
                    <mxGeometry x="1080" y="400" width="80" height="80" as="geometry"/>
                </mxCell>
                <mxCell id="d3ESriYFiE-QQfhzsGAl-21" value="" style="rounded=0;whiteSpace=wrap;html=1;fontSize=11;" parent="1" vertex="1">
                    <mxGeometry x="1200" y="400" width="80" height="80" as="geometry"/>
                </mxCell>
                <mxCell id="d3ESriYFiE-QQfhzsGAl-22" value="" style="rounded=0;whiteSpace=wrap;html=1;fontSize=11;" parent="1" vertex="1">
                    <mxGeometry x="1320" y="400" width="80" height="80" as="geometry"/>
                </mxCell>
                <mxCell id="d3ESriYFiE-QQfhzsGAl-23" value="" style="rounded=0;whiteSpace=wrap;html=1;fontSize=11;" parent="1" vertex="1">
                    <mxGeometry x="1440" y="400" width="80" height="80" as="geometry"/>
                </mxCell>
                <mxCell id="d3ESriYFiE-QQfhzsGAl-24" value="" style="rounded=0;whiteSpace=wrap;html=1;fontSize=11;" parent="1" vertex="1">
                    <mxGeometry x="1560" y="400" width="80" height="80" as="geometry"/>
                </mxCell>
                <mxCell id="d3ESriYFiE-QQfhzsGAl-25" value="" style="rounded=0;whiteSpace=wrap;html=1;fontSize=11;" parent="1" vertex="1">
                    <mxGeometry x="1680" y="400" width="80" height="80" as="geometry"/>
                </mxCell>
                <mxCell id="d3ESriYFiE-QQfhzsGAl-26" value="" style="rounded=0;whiteSpace=wrap;html=1;fontSize=11;" parent="1" vertex="1">
                    <mxGeometry x="1080" y="520" width="80" height="80" as="geometry"/>
                </mxCell>
                <mxCell id="d3ESriYFiE-QQfhzsGAl-27" value="" style="rounded=0;whiteSpace=wrap;html=1;fontSize=11;" parent="1" vertex="1">
                    <mxGeometry x="1200" y="520" width="80" height="80" as="geometry"/>
                </mxCell>
                <mxCell id="d3ESriYFiE-QQfhzsGAl-28" value="" style="rounded=0;whiteSpace=wrap;html=1;fontSize=11;" parent="1" vertex="1">
                    <mxGeometry x="1320" y="520" width="80" height="80" as="geometry"/>
                </mxCell>
                <mxCell id="d3ESriYFiE-QQfhzsGAl-29" value="" style="rounded=0;whiteSpace=wrap;html=1;fontSize=11;" parent="1" vertex="1">
                    <mxGeometry x="1440" y="520" width="80" height="80" as="geometry"/>
                </mxCell>
                <mxCell id="d3ESriYFiE-QQfhzsGAl-30" value="" style="rounded=0;whiteSpace=wrap;html=1;fontSize=11;" parent="1" vertex="1">
                    <mxGeometry x="1560" y="520" width="80" height="80" as="geometry"/>
                </mxCell>
                <mxCell id="d3ESriYFiE-QQfhzsGAl-31" value="" style="rounded=0;whiteSpace=wrap;html=1;fontSize=11;" parent="1" vertex="1">
                    <mxGeometry x="1680" y="520" width="80" height="80" as="geometry"/>
                </mxCell>
                <mxCell id="d3ESriYFiE-QQfhzsGAl-32" value="" style="rounded=0;whiteSpace=wrap;html=1;fontSize=11;" parent="1" vertex="1">
                    <mxGeometry x="1080" y="640" width="80" height="80" as="geometry"/>
                </mxCell>
                <mxCell id="d3ESriYFiE-QQfhzsGAl-33" value="" style="rounded=0;whiteSpace=wrap;html=1;fontSize=11;" parent="1" vertex="1">
                    <mxGeometry x="1200" y="640" width="80" height="80" as="geometry"/>
                </mxCell>
                <mxCell id="d3ESriYFiE-QQfhzsGAl-34" value="" style="rounded=0;whiteSpace=wrap;html=1;fontSize=11;" parent="1" vertex="1">
                    <mxGeometry x="1320" y="640" width="80" height="80" as="geometry"/>
                </mxCell>
                <mxCell id="d3ESriYFiE-QQfhzsGAl-35" value="" style="rounded=0;whiteSpace=wrap;html=1;fontSize=11;" parent="1" vertex="1">
                    <mxGeometry x="1440" y="640" width="80" height="80" as="geometry"/>
                </mxCell>
                <mxCell id="d3ESriYFiE-QQfhzsGAl-36" value="" style="rounded=0;whiteSpace=wrap;html=1;fontSize=11;" parent="1" vertex="1">
                    <mxGeometry x="1560" y="640" width="80" height="80" as="geometry"/>
                </mxCell>
                <mxCell id="d3ESriYFiE-QQfhzsGAl-37" value="" style="rounded=0;whiteSpace=wrap;html=1;fontSize=11;" parent="1" vertex="1">
                    <mxGeometry x="1680" y="640" width="80" height="80" as="geometry"/>
                </mxCell>
                <mxCell id="oanLbzMRLrO47kRGS5rE-47" value="MUL" style="rounded=0;whiteSpace=wrap;html=1;fontSize=11;" parent="1" vertex="1">
                    <mxGeometry x="200" y="1600" width="80" height="80" as="geometry"/>
                </mxCell>
                <mxCell id="oanLbzMRLrO47kRGS5rE-48" value="ADD" style="rounded=0;whiteSpace=wrap;html=1;fontSize=11;" parent="1" vertex="1">
                    <mxGeometry x="320" y="1600" width="80" height="80" as="geometry"/>
                </mxCell>
                <mxCell id="oanLbzMRLrO47kRGS5rE-49" style="edgeStyle=none;rounded=0;html=1;exitX=1;exitY=0.5;exitDx=0;exitDy=0;entryX=0;entryY=0.5;entryDx=0;entryDy=0;fontSize=11;" parent="1" source="oanLbzMRLrO47kRGS5rE-47" target="oanLbzMRLrO47kRGS5rE-48" edge="1">
                    <mxGeometry relative="1" as="geometry"/>
                </mxCell>
                <mxCell id="oanLbzMRLrO47kRGS5rE-50" style="edgeStyle=none;rounded=0;html=1;exitX=1;exitY=0.5;exitDx=0;exitDy=0;entryX=0.5;entryY=0;entryDx=0;entryDy=0;fontSize=11;" parent="1" source="oanLbzMRLrO47kRGS5rE-48" target="oanLbzMRLrO47kRGS5rE-48" edge="1">
                    <mxGeometry relative="1" as="geometry">
                        <Array as="points">
                            <mxPoint x="420" y="1640"/>
                            <mxPoint x="420" y="1580"/>
                            <mxPoint x="360" y="1580"/>
                        </Array>
                    </mxGeometry>
                </mxCell>
                <mxCell id="oanLbzMRLrO47kRGS5rE-51" value="MUL" style="rounded=0;whiteSpace=wrap;html=1;fontSize=11;" parent="1" vertex="1">
                    <mxGeometry x="200" y="1720" width="80" height="80" as="geometry"/>
                </mxCell>
                <mxCell id="oanLbzMRLrO47kRGS5rE-52" value="ADD" style="rounded=0;whiteSpace=wrap;html=1;fontSize=11;" parent="1" vertex="1">
                    <mxGeometry x="320" y="1720" width="80" height="80" as="geometry"/>
                </mxCell>
                <mxCell id="oanLbzMRLrO47kRGS5rE-53" style="edgeStyle=none;rounded=0;html=1;exitX=1;exitY=0.5;exitDx=0;exitDy=0;entryX=0;entryY=0.5;entryDx=0;entryDy=0;fontSize=11;" parent="1" source="oanLbzMRLrO47kRGS5rE-51" target="oanLbzMRLrO47kRGS5rE-52" edge="1">
                    <mxGeometry relative="1" as="geometry"/>
                </mxCell>
                <mxCell id="oanLbzMRLrO47kRGS5rE-54" style="edgeStyle=none;rounded=0;html=1;exitX=1;exitY=0.5;exitDx=0;exitDy=0;entryX=0.5;entryY=0;entryDx=0;entryDy=0;fontSize=11;" parent="1" source="oanLbzMRLrO47kRGS5rE-52" target="oanLbzMRLrO47kRGS5rE-52" edge="1">
                    <mxGeometry relative="1" as="geometry">
                        <Array as="points">
                            <mxPoint x="420" y="1760"/>
                            <mxPoint x="420" y="1700"/>
                            <mxPoint x="360" y="1700"/>
                        </Array>
                    </mxGeometry>
                </mxCell>
                <mxCell id="oanLbzMRLrO47kRGS5rE-55" value="MUL" style="rounded=0;whiteSpace=wrap;html=1;fontSize=11;" parent="1" vertex="1">
                    <mxGeometry x="200" y="1840" width="80" height="80" as="geometry"/>
                </mxCell>
                <mxCell id="oanLbzMRLrO47kRGS5rE-56" value="ADD" style="rounded=0;whiteSpace=wrap;html=1;fontSize=11;" parent="1" vertex="1">
                    <mxGeometry x="320" y="1840" width="80" height="80" as="geometry"/>
                </mxCell>
                <mxCell id="oanLbzMRLrO47kRGS5rE-57" style="edgeStyle=none;rounded=0;html=1;exitX=1;exitY=0.5;exitDx=0;exitDy=0;entryX=0;entryY=0.5;entryDx=0;entryDy=0;fontSize=11;" parent="1" source="oanLbzMRLrO47kRGS5rE-55" target="oanLbzMRLrO47kRGS5rE-56" edge="1">
                    <mxGeometry relative="1" as="geometry"/>
                </mxCell>
                <mxCell id="oanLbzMRLrO47kRGS5rE-58" style="edgeStyle=none;rounded=0;html=1;exitX=1;exitY=0.5;exitDx=0;exitDy=0;entryX=0.5;entryY=0;entryDx=0;entryDy=0;fontSize=11;" parent="1" source="oanLbzMRLrO47kRGS5rE-56" target="oanLbzMRLrO47kRGS5rE-56" edge="1">
                    <mxGeometry relative="1" as="geometry">
                        <Array as="points">
                            <mxPoint x="420" y="1880"/>
                            <mxPoint x="420" y="1820"/>
                            <mxPoint x="360" y="1820"/>
                        </Array>
                    </mxGeometry>
                </mxCell>
                <mxCell id="oanLbzMRLrO47kRGS5rE-59" value="MUL" style="rounded=0;whiteSpace=wrap;html=1;fontSize=11;" parent="1" vertex="1">
                    <mxGeometry x="200" y="1960" width="80" height="80" as="geometry"/>
                </mxCell>
                <mxCell id="oanLbzMRLrO47kRGS5rE-60" value="ADD" style="rounded=0;whiteSpace=wrap;html=1;fontSize=11;" parent="1" vertex="1">
                    <mxGeometry x="320" y="1960" width="80" height="80" as="geometry"/>
                </mxCell>
                <mxCell id="oanLbzMRLrO47kRGS5rE-61" style="edgeStyle=none;rounded=0;html=1;exitX=1;exitY=0.5;exitDx=0;exitDy=0;entryX=0;entryY=0.5;entryDx=0;entryDy=0;fontSize=11;" parent="1" source="oanLbzMRLrO47kRGS5rE-59" target="oanLbzMRLrO47kRGS5rE-60" edge="1">
                    <mxGeometry relative="1" as="geometry"/>
                </mxCell>
                <mxCell id="oanLbzMRLrO47kRGS5rE-62" style="edgeStyle=none;rounded=0;html=1;exitX=1;exitY=0.5;exitDx=0;exitDy=0;entryX=0.5;entryY=0;entryDx=0;entryDy=0;fontSize=11;" parent="1" source="oanLbzMRLrO47kRGS5rE-60" target="oanLbzMRLrO47kRGS5rE-60" edge="1">
                    <mxGeometry relative="1" as="geometry">
                        <Array as="points">
                            <mxPoint x="420" y="2000"/>
                            <mxPoint x="420" y="1940"/>
                            <mxPoint x="360" y="1940"/>
                        </Array>
                    </mxGeometry>
                </mxCell>
                <mxCell id="oanLbzMRLrO47kRGS5rE-63" value="ADD" style="rounded=0;whiteSpace=wrap;html=1;fontSize=11;" parent="1" vertex="1">
                    <mxGeometry x="460" y="1660" width="80" height="80" as="geometry"/>
                </mxCell>
                <mxCell id="oanLbzMRLrO47kRGS5rE-64" style="edgeStyle=none;rounded=0;html=1;exitX=1;exitY=0.5;exitDx=0;exitDy=0;fontSize=11;entryX=0;entryY=0.25;entryDx=0;entryDy=0;" parent="1" source="oanLbzMRLrO47kRGS5rE-48" target="oanLbzMRLrO47kRGS5rE-63" edge="1">
                    <mxGeometry relative="1" as="geometry">
                        <mxPoint x="400" y="700" as="targetPoint"/>
                        <Array as="points">
                            <mxPoint x="440" y="1640"/>
                            <mxPoint x="440" y="1680"/>
                        </Array>
                    </mxGeometry>
                </mxCell>
                <mxCell id="oanLbzMRLrO47kRGS5rE-65" style="edgeStyle=none;rounded=0;html=1;exitX=1;exitY=0.5;exitDx=0;exitDy=0;fontSize=11;entryX=0;entryY=0.75;entryDx=0;entryDy=0;" parent="1" source="oanLbzMRLrO47kRGS5rE-52" target="oanLbzMRLrO47kRGS5rE-63" edge="1">
                    <mxGeometry relative="1" as="geometry">
                        <mxPoint x="420" y="760" as="targetPoint"/>
                        <Array as="points">
                            <mxPoint x="440" y="1760"/>
                            <mxPoint x="440" y="1720"/>
                        </Array>
                    </mxGeometry>
                </mxCell>
                <mxCell id="oanLbzMRLrO47kRGS5rE-66" value="ADD" style="rounded=0;whiteSpace=wrap;html=1;fontSize=11;" parent="1" vertex="1">
                    <mxGeometry x="460" y="1900" width="80" height="80" as="geometry"/>
                </mxCell>
                <mxCell id="oanLbzMRLrO47kRGS5rE-67" style="edgeStyle=none;rounded=0;html=1;exitX=1;exitY=0.5;exitDx=0;exitDy=0;fontSize=11;entryX=0;entryY=0.25;entryDx=0;entryDy=0;" parent="1" source="oanLbzMRLrO47kRGS5rE-56" target="oanLbzMRLrO47kRGS5rE-66" edge="1">
                    <mxGeometry relative="1" as="geometry">
                        <mxPoint x="420" y="880.2" as="targetPoint"/>
                        <Array as="points">
                            <mxPoint x="440" y="1880"/>
                            <mxPoint x="440" y="1920"/>
                        </Array>
                    </mxGeometry>
                </mxCell>
                <mxCell id="oanLbzMRLrO47kRGS5rE-68" value="ADD" style="rounded=0;whiteSpace=wrap;html=1;fontSize=11;" parent="1" vertex="1">
                    <mxGeometry x="580" y="1780" width="80" height="80" as="geometry"/>
                </mxCell>
                <mxCell id="oanLbzMRLrO47kRGS5rE-69" style="edgeStyle=none;rounded=0;html=1;exitX=1;exitY=0.5;exitDx=0;exitDy=0;fontSize=11;entryX=0;entryY=0.75;entryDx=0;entryDy=0;" parent="1" source="oanLbzMRLrO47kRGS5rE-60" target="oanLbzMRLrO47kRGS5rE-66" edge="1">
                    <mxGeometry relative="1" as="geometry">
                        <mxPoint x="420" y="1000.2" as="targetPoint"/>
                        <Array as="points">
                            <mxPoint x="440" y="2000"/>
                            <mxPoint x="440" y="1960"/>
                        </Array>
                    </mxGeometry>
                </mxCell>
                <mxCell id="oanLbzMRLrO47kRGS5rE-70" value="" style="shape=waypoint;sketch=0;fillStyle=solid;size=6;pointerEvents=1;points=[];fillColor=none;resizable=0;rotatable=0;perimeter=centerPerimeter;snapToPoint=1;" parent="1" vertex="1">
                    <mxGeometry x="150" y="1610" width="20" height="20" as="geometry"/>
                </mxCell>
                <mxCell id="oanLbzMRLrO47kRGS5rE-71" value="" style="endArrow=none;html=1;rounded=0;strokeColor=default;entryX=0;entryY=0.25;entryDx=0;entryDy=0;" parent="1" target="oanLbzMRLrO47kRGS5rE-47" edge="1">
                    <mxGeometry width="50" height="50" relative="1" as="geometry">
                        <mxPoint x="160" y="1620" as="sourcePoint"/>
                        <mxPoint x="170" y="570" as="targetPoint"/>
                    </mxGeometry>
                </mxCell>
                <mxCell id="oanLbzMRLrO47kRGS5rE-72" value="" style="shape=waypoint;sketch=0;fillStyle=solid;size=6;pointerEvents=1;points=[];fillColor=none;resizable=0;rotatable=0;perimeter=centerPerimeter;snapToPoint=1;" parent="1" vertex="1">
                    <mxGeometry x="150" y="1730" width="20" height="20" as="geometry"/>
                </mxCell>
                <mxCell id="oanLbzMRLrO47kRGS5rE-73" value="" style="endArrow=none;html=1;rounded=0;strokeColor=default;entryX=0;entryY=0.25;entryDx=0;entryDy=0;" parent="1" edge="1">
                    <mxGeometry width="50" height="50" relative="1" as="geometry">
                        <mxPoint x="160" y="1740" as="sourcePoint"/>
                        <mxPoint x="200" y="1740" as="targetPoint"/>
                    </mxGeometry>
                </mxCell>
                <mxCell id="oanLbzMRLrO47kRGS5rE-74" value="" style="shape=waypoint;sketch=0;fillStyle=solid;size=6;pointerEvents=1;points=[];fillColor=none;resizable=0;rotatable=0;perimeter=centerPerimeter;snapToPoint=1;" parent="1" vertex="1">
                    <mxGeometry x="150" y="1850" width="20" height="20" as="geometry"/>
                </mxCell>
                <mxCell id="oanLbzMRLrO47kRGS5rE-75" value="" style="endArrow=none;html=1;rounded=0;strokeColor=default;entryX=0;entryY=0.25;entryDx=0;entryDy=0;" parent="1" edge="1">
                    <mxGeometry width="50" height="50" relative="1" as="geometry">
                        <mxPoint x="160" y="1860" as="sourcePoint"/>
                        <mxPoint x="200" y="1860" as="targetPoint"/>
                    </mxGeometry>
                </mxCell>
                <mxCell id="oanLbzMRLrO47kRGS5rE-76" value="" style="endArrow=none;html=1;rounded=0;strokeColor=default;entryX=0;entryY=0.25;entryDx=0;entryDy=0;" parent="1" target="oanLbzMRLrO47kRGS5rE-104" edge="1">
                    <mxGeometry width="50" height="50" relative="1" as="geometry">
                        <mxPoint x="160" y="1980" as="sourcePoint"/>
                        <mxPoint x="160" y="2960" as="targetPoint"/>
                        <Array as="points">
                            <mxPoint x="160" y="2940"/>
                        </Array>
                    </mxGeometry>
                </mxCell>
                <mxCell id="oanLbzMRLrO47kRGS5rE-77" value="" style="shape=waypoint;sketch=0;fillStyle=solid;size=6;pointerEvents=1;points=[];fillColor=none;resizable=0;rotatable=0;perimeter=centerPerimeter;snapToPoint=1;" parent="1" vertex="1">
                    <mxGeometry x="110" y="1890" width="20" height="20" as="geometry"/>
                </mxCell>
                <mxCell id="oanLbzMRLrO47kRGS5rE-78" value="" style="endArrow=none;html=1;rounded=0;strokeColor=default;entryX=0;entryY=0.75;entryDx=0;entryDy=0;" parent="1" target="oanLbzMRLrO47kRGS5rE-55" edge="1">
                    <mxGeometry width="50" height="50" relative="1" as="geometry">
                        <mxPoint x="120" y="1900" as="sourcePoint"/>
                        <mxPoint x="120" y="900" as="targetPoint"/>
                    </mxGeometry>
                </mxCell>
                <mxCell id="oanLbzMRLrO47kRGS5rE-79" value="" style="shape=waypoint;sketch=0;fillStyle=solid;size=6;pointerEvents=1;points=[];fillColor=none;resizable=0;rotatable=0;perimeter=centerPerimeter;snapToPoint=1;" parent="1" vertex="1">
                    <mxGeometry x="110" y="1770" width="20" height="20" as="geometry"/>
                </mxCell>
                <mxCell id="oanLbzMRLrO47kRGS5rE-80" value="" style="endArrow=none;html=1;rounded=0;strokeColor=default;entryX=0;entryY=0.75;entryDx=0;entryDy=0;" parent="1" edge="1">
                    <mxGeometry width="50" height="50" relative="1" as="geometry">
                        <mxPoint x="120" y="1780" as="sourcePoint"/>
                        <mxPoint x="200" y="1780" as="targetPoint"/>
                    </mxGeometry>
                </mxCell>
                <mxCell id="oanLbzMRLrO47kRGS5rE-81" value="" style="shape=waypoint;sketch=0;fillStyle=solid;size=6;pointerEvents=1;points=[];fillColor=none;resizable=0;rotatable=0;perimeter=centerPerimeter;snapToPoint=1;" parent="1" vertex="1">
                    <mxGeometry x="110" y="1650" width="20" height="20" as="geometry"/>
                </mxCell>
                <mxCell id="oanLbzMRLrO47kRGS5rE-82" value="" style="endArrow=none;html=1;rounded=0;strokeColor=default;entryX=0;entryY=0.75;entryDx=0;entryDy=0;" parent="1" edge="1">
                    <mxGeometry width="50" height="50" relative="1" as="geometry">
                        <mxPoint x="120" y="1660" as="sourcePoint"/>
                        <mxPoint x="200" y="1660" as="targetPoint"/>
                    </mxGeometry>
                </mxCell>
                <mxCell id="oanLbzMRLrO47kRGS5rE-84" style="edgeStyle=none;html=1;exitX=1;exitY=0.5;exitDx=0;exitDy=0;entryX=0;entryY=0.25;entryDx=0;entryDy=0;strokeColor=default;rounded=0;" parent="1" source="oanLbzMRLrO47kRGS5rE-63" target="oanLbzMRLrO47kRGS5rE-68" edge="1">
                    <mxGeometry relative="1" as="geometry">
                        <Array as="points">
                            <mxPoint x="560" y="1700"/>
                            <mxPoint x="560" y="1800"/>
                        </Array>
                    </mxGeometry>
                </mxCell>
                <mxCell id="oanLbzMRLrO47kRGS5rE-85" style="edgeStyle=none;html=1;exitX=1;exitY=0.5;exitDx=0;exitDy=0;entryX=0;entryY=0.75;entryDx=0;entryDy=0;rounded=0;" parent="1" source="oanLbzMRLrO47kRGS5rE-66" target="oanLbzMRLrO47kRGS5rE-68" edge="1">
                    <mxGeometry relative="1" as="geometry">
                        <Array as="points">
                            <mxPoint x="560" y="1940"/>
                            <mxPoint x="560" y="1840"/>
                        </Array>
                    </mxGeometry>
                </mxCell>
                <mxCell id="oanLbzMRLrO47kRGS5rE-86" style="edgeStyle=none;rounded=0;html=1;exitX=1;exitY=0.5;exitDx=0;exitDy=0;strokeColor=default;entryX=0;entryY=0.75;entryDx=0;entryDy=0;" parent="1" source="oanLbzMRLrO47kRGS5rE-68" target="oanLbzMRLrO47kRGS5rE-91" edge="1">
                    <mxGeometry relative="1" as="geometry">
                        <mxPoint x="700" y="1820" as="targetPoint"/>
                        <Array as="points">
                            <mxPoint x="680" y="1820"/>
                            <mxPoint x="680" y="1600"/>
                        </Array>
                    </mxGeometry>
                </mxCell>
                <mxCell id="oanLbzMRLrO47kRGS5rE-3" value="MUL" style="rounded=0;whiteSpace=wrap;html=1;fontSize=11;" parent="1" vertex="1">
                    <mxGeometry x="200" y="1120" width="80" height="80" as="geometry"/>
                </mxCell>
                <mxCell id="oanLbzMRLrO47kRGS5rE-4" value="ADD" style="rounded=0;whiteSpace=wrap;html=1;fontSize=11;" parent="1" vertex="1">
                    <mxGeometry x="320" y="1120" width="80" height="80" as="geometry"/>
                </mxCell>
                <mxCell id="oanLbzMRLrO47kRGS5rE-5" style="edgeStyle=none;rounded=0;html=1;exitX=1;exitY=0.5;exitDx=0;exitDy=0;entryX=0;entryY=0.5;entryDx=0;entryDy=0;fontSize=11;" parent="1" source="oanLbzMRLrO47kRGS5rE-3" target="oanLbzMRLrO47kRGS5rE-4" edge="1">
                    <mxGeometry relative="1" as="geometry"/>
                </mxCell>
                <mxCell id="oanLbzMRLrO47kRGS5rE-6" style="edgeStyle=none;rounded=0;html=1;exitX=1;exitY=0.5;exitDx=0;exitDy=0;entryX=0.5;entryY=0;entryDx=0;entryDy=0;fontSize=11;" parent="1" source="oanLbzMRLrO47kRGS5rE-4" target="oanLbzMRLrO47kRGS5rE-4" edge="1">
                    <mxGeometry relative="1" as="geometry">
                        <Array as="points">
                            <mxPoint x="420" y="1160"/>
                            <mxPoint x="420" y="1100"/>
                            <mxPoint x="360" y="1100"/>
                        </Array>
                    </mxGeometry>
                </mxCell>
                <mxCell id="oanLbzMRLrO47kRGS5rE-7" value="MUL" style="rounded=0;whiteSpace=wrap;html=1;fontSize=11;" parent="1" vertex="1">
                    <mxGeometry x="200" y="1240" width="80" height="80" as="geometry"/>
                </mxCell>
                <mxCell id="oanLbzMRLrO47kRGS5rE-8" value="ADD" style="rounded=0;whiteSpace=wrap;html=1;fontSize=11;" parent="1" vertex="1">
                    <mxGeometry x="320" y="1240" width="80" height="80" as="geometry"/>
                </mxCell>
                <mxCell id="oanLbzMRLrO47kRGS5rE-9" style="edgeStyle=none;rounded=0;html=1;exitX=1;exitY=0.5;exitDx=0;exitDy=0;entryX=0;entryY=0.5;entryDx=0;entryDy=0;fontSize=11;" parent="1" source="oanLbzMRLrO47kRGS5rE-7" target="oanLbzMRLrO47kRGS5rE-8" edge="1">
                    <mxGeometry relative="1" as="geometry"/>
                </mxCell>
                <mxCell id="oanLbzMRLrO47kRGS5rE-10" style="edgeStyle=none;rounded=0;html=1;exitX=1;exitY=0.5;exitDx=0;exitDy=0;entryX=0.5;entryY=0;entryDx=0;entryDy=0;fontSize=11;" parent="1" source="oanLbzMRLrO47kRGS5rE-8" target="oanLbzMRLrO47kRGS5rE-8" edge="1">
                    <mxGeometry relative="1" as="geometry">
                        <Array as="points">
                            <mxPoint x="420" y="1280"/>
                            <mxPoint x="420" y="1220"/>
                            <mxPoint x="360" y="1220"/>
                        </Array>
                    </mxGeometry>
                </mxCell>
                <mxCell id="oanLbzMRLrO47kRGS5rE-11" value="MUL" style="rounded=0;whiteSpace=wrap;html=1;fontSize=11;" parent="1" vertex="1">
                    <mxGeometry x="200" y="1360" width="80" height="80" as="geometry"/>
                </mxCell>
                <mxCell id="oanLbzMRLrO47kRGS5rE-12" value="ADD" style="rounded=0;whiteSpace=wrap;html=1;fontSize=11;" parent="1" vertex="1">
                    <mxGeometry x="320" y="1360" width="80" height="80" as="geometry"/>
                </mxCell>
                <mxCell id="oanLbzMRLrO47kRGS5rE-13" style="edgeStyle=none;rounded=0;html=1;exitX=1;exitY=0.5;exitDx=0;exitDy=0;entryX=0;entryY=0.5;entryDx=0;entryDy=0;fontSize=11;" parent="1" source="oanLbzMRLrO47kRGS5rE-11" target="oanLbzMRLrO47kRGS5rE-12" edge="1">
                    <mxGeometry relative="1" as="geometry"/>
                </mxCell>
                <mxCell id="oanLbzMRLrO47kRGS5rE-14" style="edgeStyle=none;rounded=0;html=1;exitX=1;exitY=0.5;exitDx=0;exitDy=0;entryX=0.5;entryY=0;entryDx=0;entryDy=0;fontSize=11;" parent="1" source="oanLbzMRLrO47kRGS5rE-12" target="oanLbzMRLrO47kRGS5rE-12" edge="1">
                    <mxGeometry relative="1" as="geometry">
                        <Array as="points">
                            <mxPoint x="420" y="1400"/>
                            <mxPoint x="420" y="1340"/>
                            <mxPoint x="360" y="1340"/>
                        </Array>
                    </mxGeometry>
                </mxCell>
                <mxCell id="oanLbzMRLrO47kRGS5rE-15" value="MUL" style="rounded=0;whiteSpace=wrap;html=1;fontSize=11;" parent="1" vertex="1">
                    <mxGeometry x="200" y="1480" width="80" height="80" as="geometry"/>
                </mxCell>
                <mxCell id="oanLbzMRLrO47kRGS5rE-16" value="ADD" style="rounded=0;whiteSpace=wrap;html=1;fontSize=11;" parent="1" vertex="1">
                    <mxGeometry x="320" y="1480" width="80" height="80" as="geometry"/>
                </mxCell>
                <mxCell id="oanLbzMRLrO47kRGS5rE-17" style="edgeStyle=none;rounded=0;html=1;exitX=1;exitY=0.5;exitDx=0;exitDy=0;entryX=0;entryY=0.5;entryDx=0;entryDy=0;fontSize=11;" parent="1" source="oanLbzMRLrO47kRGS5rE-15" target="oanLbzMRLrO47kRGS5rE-16" edge="1">
                    <mxGeometry relative="1" as="geometry"/>
                </mxCell>
                <mxCell id="oanLbzMRLrO47kRGS5rE-18" style="edgeStyle=none;rounded=0;html=1;exitX=1;exitY=0.5;exitDx=0;exitDy=0;entryX=0.5;entryY=0;entryDx=0;entryDy=0;fontSize=11;" parent="1" source="oanLbzMRLrO47kRGS5rE-16" target="oanLbzMRLrO47kRGS5rE-16" edge="1">
                    <mxGeometry relative="1" as="geometry">
                        <Array as="points">
                            <mxPoint x="420" y="1520"/>
                            <mxPoint x="420" y="1460"/>
                            <mxPoint x="360" y="1460"/>
                        </Array>
                    </mxGeometry>
                </mxCell>
                <mxCell id="oanLbzMRLrO47kRGS5rE-19" value="ADD" style="rounded=0;whiteSpace=wrap;html=1;fontSize=11;" parent="1" vertex="1">
                    <mxGeometry x="460" y="1180" width="80" height="80" as="geometry"/>
                </mxCell>
                <mxCell id="oanLbzMRLrO47kRGS5rE-20" style="edgeStyle=none;rounded=0;html=1;exitX=1;exitY=0.5;exitDx=0;exitDy=0;fontSize=11;entryX=0;entryY=0.25;entryDx=0;entryDy=0;" parent="1" source="oanLbzMRLrO47kRGS5rE-4" target="oanLbzMRLrO47kRGS5rE-19" edge="1">
                    <mxGeometry relative="1" as="geometry">
                        <mxPoint x="440" y="1220" as="targetPoint"/>
                        <Array as="points">
                            <mxPoint x="440" y="1160"/>
                            <mxPoint x="440" y="1200"/>
                        </Array>
                    </mxGeometry>
                </mxCell>
                <mxCell id="oanLbzMRLrO47kRGS5rE-21" style="edgeStyle=none;rounded=0;html=1;exitX=1;exitY=0.5;exitDx=0;exitDy=0;fontSize=11;entryX=0;entryY=0.75;entryDx=0;entryDy=0;" parent="1" source="oanLbzMRLrO47kRGS5rE-8" target="oanLbzMRLrO47kRGS5rE-19" edge="1">
                    <mxGeometry relative="1" as="geometry">
                        <mxPoint x="460" y="1280" as="targetPoint"/>
                        <Array as="points">
                            <mxPoint x="440" y="1280"/>
                            <mxPoint x="440" y="1240"/>
                        </Array>
                    </mxGeometry>
                </mxCell>
                <mxCell id="oanLbzMRLrO47kRGS5rE-22" value="ADD" style="rounded=0;whiteSpace=wrap;html=1;fontSize=11;" parent="1" vertex="1">
                    <mxGeometry x="460" y="1420" width="80" height="80" as="geometry"/>
                </mxCell>
                <mxCell id="oanLbzMRLrO47kRGS5rE-23" style="edgeStyle=none;rounded=0;html=1;exitX=1;exitY=0.5;exitDx=0;exitDy=0;fontSize=11;entryX=0;entryY=0.25;entryDx=0;entryDy=0;" parent="1" source="oanLbzMRLrO47kRGS5rE-12" target="oanLbzMRLrO47kRGS5rE-22" edge="1">
                    <mxGeometry relative="1" as="geometry">
                        <mxPoint x="460" y="1400.2" as="targetPoint"/>
                        <Array as="points">
                            <mxPoint x="440" y="1400"/>
                            <mxPoint x="440" y="1440"/>
                        </Array>
                    </mxGeometry>
                </mxCell>
                <mxCell id="oanLbzMRLrO47kRGS5rE-24" value="ADD" style="rounded=0;whiteSpace=wrap;html=1;fontSize=11;" parent="1" vertex="1">
                    <mxGeometry x="580" y="1300" width="80" height="80" as="geometry"/>
                </mxCell>
                <mxCell id="oanLbzMRLrO47kRGS5rE-25" style="edgeStyle=none;rounded=0;html=1;exitX=1;exitY=0.5;exitDx=0;exitDy=0;fontSize=11;entryX=0;entryY=0.75;entryDx=0;entryDy=0;" parent="1" source="oanLbzMRLrO47kRGS5rE-16" target="oanLbzMRLrO47kRGS5rE-22" edge="1">
                    <mxGeometry relative="1" as="geometry">
                        <mxPoint x="460" y="1520.2" as="targetPoint"/>
                        <Array as="points">
                            <mxPoint x="440" y="1520"/>
                            <mxPoint x="440" y="1480"/>
                        </Array>
                    </mxGeometry>
                </mxCell>
                <mxCell id="oanLbzMRLrO47kRGS5rE-26" value="" style="shape=waypoint;sketch=0;fillStyle=solid;size=6;pointerEvents=1;points=[];fillColor=none;resizable=0;rotatable=0;perimeter=centerPerimeter;snapToPoint=1;" parent="1" vertex="1">
                    <mxGeometry x="150" y="1130" width="20" height="20" as="geometry"/>
                </mxCell>
                <mxCell id="oanLbzMRLrO47kRGS5rE-27" value="" style="endArrow=none;html=1;rounded=0;strokeColor=default;entryX=0.319;entryY=0.712;entryDx=0;entryDy=0;entryPerimeter=0;exitX=1;exitY=0.5;exitDx=0;exitDy=0;" parent="1" source="oanLbzMRLrO47kRGS5rE-41" edge="1">
                    <mxGeometry width="50" height="50" relative="1" as="geometry">
                        <mxPoint x="80" y="1080" as="sourcePoint"/>
                        <mxPoint x="160" y="1500" as="targetPoint"/>
                        <Array as="points">
                            <mxPoint x="160" y="1080"/>
                        </Array>
                    </mxGeometry>
                </mxCell>
                <mxCell id="oanLbzMRLrO47kRGS5rE-28" value="" style="endArrow=none;html=1;rounded=0;strokeColor=default;entryX=0;entryY=0.25;entryDx=0;entryDy=0;" parent="1" target="oanLbzMRLrO47kRGS5rE-3" edge="1">
                    <mxGeometry width="50" height="50" relative="1" as="geometry">
                        <mxPoint x="160" y="1140" as="sourcePoint"/>
                        <mxPoint x="210" y="1090" as="targetPoint"/>
                    </mxGeometry>
                </mxCell>
                <mxCell id="oanLbzMRLrO47kRGS5rE-29" value="" style="shape=waypoint;sketch=0;fillStyle=solid;size=6;pointerEvents=1;points=[];fillColor=none;resizable=0;rotatable=0;perimeter=centerPerimeter;snapToPoint=1;" parent="1" vertex="1">
                    <mxGeometry x="150" y="1250" width="20" height="20" as="geometry"/>
                </mxCell>
                <mxCell id="oanLbzMRLrO47kRGS5rE-30" value="" style="endArrow=none;html=1;rounded=0;strokeColor=default;entryX=0;entryY=0.25;entryDx=0;entryDy=0;" parent="1" edge="1">
                    <mxGeometry width="50" height="50" relative="1" as="geometry">
                        <mxPoint x="160" y="1260" as="sourcePoint"/>
                        <mxPoint x="200" y="1260" as="targetPoint"/>
                    </mxGeometry>
                </mxCell>
                <mxCell id="oanLbzMRLrO47kRGS5rE-31" value="" style="shape=waypoint;sketch=0;fillStyle=solid;size=6;pointerEvents=1;points=[];fillColor=none;resizable=0;rotatable=0;perimeter=centerPerimeter;snapToPoint=1;" parent="1" vertex="1">
                    <mxGeometry x="150" y="1370" width="20" height="20" as="geometry"/>
                </mxCell>
                <mxCell id="oanLbzMRLrO47kRGS5rE-32" value="" style="endArrow=none;html=1;rounded=0;strokeColor=default;entryX=0;entryY=0.25;entryDx=0;entryDy=0;" parent="1" edge="1">
                    <mxGeometry width="50" height="50" relative="1" as="geometry">
                        <mxPoint x="160" y="1380" as="sourcePoint"/>
                        <mxPoint x="200" y="1380" as="targetPoint"/>
                    </mxGeometry>
                </mxCell>
                <mxCell id="oanLbzMRLrO47kRGS5rE-33" value="" style="endArrow=none;html=1;rounded=0;strokeColor=default;" parent="1" edge="1">
                    <mxGeometry width="50" height="50" relative="1" as="geometry">
                        <mxPoint x="160" y="1500" as="sourcePoint"/>
                        <mxPoint x="160" y="1980" as="targetPoint"/>
                    </mxGeometry>
                </mxCell>
                <mxCell id="oanLbzMRLrO47kRGS5rE-34" value="" style="endArrow=none;html=1;rounded=0;strokeColor=default;entryX=0;entryY=0.75;entryDx=0;entryDy=0;exitX=1;exitY=0.5;exitDx=0;exitDy=0;" parent="1" source="oanLbzMRLrO47kRGS5rE-42" target="oanLbzMRLrO47kRGS5rE-104" edge="1">
                    <mxGeometry width="50" height="50" relative="1" as="geometry">
                        <mxPoint x="80" y="1040" as="sourcePoint"/>
                        <mxPoint x="120" y="1040" as="targetPoint"/>
                        <Array as="points">
                            <mxPoint x="120" y="1040"/>
                            <mxPoint x="120" y="1540"/>
                            <mxPoint x="120" y="2020"/>
                            <mxPoint x="120" y="2980"/>
                        </Array>
                    </mxGeometry>
                </mxCell>
                <mxCell id="oanLbzMRLrO47kRGS5rE-35" value="" style="shape=waypoint;sketch=0;fillStyle=solid;size=6;pointerEvents=1;points=[];fillColor=none;resizable=0;rotatable=0;perimeter=centerPerimeter;snapToPoint=1;" parent="1" vertex="1">
                    <mxGeometry x="110" y="1410" width="20" height="20" as="geometry"/>
                </mxCell>
                <mxCell id="oanLbzMRLrO47kRGS5rE-36" value="" style="endArrow=none;html=1;rounded=0;strokeColor=default;entryX=0;entryY=0.75;entryDx=0;entryDy=0;" parent="1" target="oanLbzMRLrO47kRGS5rE-11" edge="1">
                    <mxGeometry width="50" height="50" relative="1" as="geometry">
                        <mxPoint x="120" y="1420" as="sourcePoint"/>
                        <mxPoint x="160" y="1420" as="targetPoint"/>
                    </mxGeometry>
                </mxCell>
                <mxCell id="oanLbzMRLrO47kRGS5rE-37" value="" style="shape=waypoint;sketch=0;fillStyle=solid;size=6;pointerEvents=1;points=[];fillColor=none;resizable=0;rotatable=0;perimeter=centerPerimeter;snapToPoint=1;" parent="1" vertex="1">
                    <mxGeometry x="110" y="1290" width="20" height="20" as="geometry"/>
                </mxCell>
                <mxCell id="oanLbzMRLrO47kRGS5rE-38" value="" style="endArrow=none;html=1;rounded=0;strokeColor=default;entryX=0;entryY=0.75;entryDx=0;entryDy=0;" parent="1" edge="1">
                    <mxGeometry width="50" height="50" relative="1" as="geometry">
                        <mxPoint x="120" y="1300" as="sourcePoint"/>
                        <mxPoint x="200" y="1300" as="targetPoint"/>
                    </mxGeometry>
                </mxCell>
                <mxCell id="oanLbzMRLrO47kRGS5rE-39" value="" style="shape=waypoint;sketch=0;fillStyle=solid;size=6;pointerEvents=1;points=[];fillColor=none;resizable=0;rotatable=0;perimeter=centerPerimeter;snapToPoint=1;" parent="1" vertex="1">
                    <mxGeometry x="110" y="1170" width="20" height="20" as="geometry"/>
                </mxCell>
                <mxCell id="oanLbzMRLrO47kRGS5rE-40" value="" style="endArrow=none;html=1;rounded=0;strokeColor=default;entryX=0;entryY=0.75;entryDx=0;entryDy=0;" parent="1" edge="1">
                    <mxGeometry width="50" height="50" relative="1" as="geometry">
                        <mxPoint x="120" y="1180" as="sourcePoint"/>
                        <mxPoint x="200" y="1180" as="targetPoint"/>
                    </mxGeometry>
                </mxCell>
                <mxCell id="oanLbzMRLrO47kRGS5rE-41" value="A" style="text;html=1;strokeColor=none;fillColor=none;align=center;verticalAlign=middle;whiteSpace=wrap;rounded=0;" parent="1" vertex="1">
                    <mxGeometry x="40" y="1070" width="20" height="20" as="geometry"/>
                </mxCell>
                <mxCell id="oanLbzMRLrO47kRGS5rE-42" value="B" style="text;html=1;strokeColor=none;fillColor=none;align=center;verticalAlign=middle;whiteSpace=wrap;rounded=0;" parent="1" vertex="1">
                    <mxGeometry x="40" y="1030" width="20" height="20" as="geometry"/>
                </mxCell>
                <mxCell id="oanLbzMRLrO47kRGS5rE-44" style="edgeStyle=none;html=1;exitX=1;exitY=0.5;exitDx=0;exitDy=0;entryX=0;entryY=0.25;entryDx=0;entryDy=0;strokeColor=default;rounded=0;" parent="1" source="oanLbzMRLrO47kRGS5rE-19" target="oanLbzMRLrO47kRGS5rE-24" edge="1">
                    <mxGeometry relative="1" as="geometry">
                        <Array as="points">
                            <mxPoint x="560" y="1220"/>
                            <mxPoint x="560" y="1320"/>
                        </Array>
                    </mxGeometry>
                </mxCell>
                <mxCell id="oanLbzMRLrO47kRGS5rE-45" style="edgeStyle=none;html=1;exitX=1;exitY=0.5;exitDx=0;exitDy=0;entryX=0;entryY=0.75;entryDx=0;entryDy=0;rounded=0;" parent="1" source="oanLbzMRLrO47kRGS5rE-22" target="oanLbzMRLrO47kRGS5rE-24" edge="1">
                    <mxGeometry relative="1" as="geometry">
                        <Array as="points">
                            <mxPoint x="560" y="1460"/>
                            <mxPoint x="560" y="1360"/>
                        </Array>
                    </mxGeometry>
                </mxCell>
                <mxCell id="oanLbzMRLrO47kRGS5rE-46" style="edgeStyle=none;rounded=0;html=1;exitX=1;exitY=0.5;exitDx=0;exitDy=0;strokeColor=default;entryX=0;entryY=0.25;entryDx=0;entryDy=0;" parent="1" source="oanLbzMRLrO47kRGS5rE-24" target="oanLbzMRLrO47kRGS5rE-91" edge="1">
                    <mxGeometry relative="1" as="geometry">
                        <mxPoint x="700" y="1340" as="targetPoint"/>
                        <Array as="points">
                            <mxPoint x="680" y="1340"/>
                            <mxPoint x="680" y="1560"/>
                        </Array>
                    </mxGeometry>
                </mxCell>
                <mxCell id="oanLbzMRLrO47kRGS5rE-87" value="" style="shape=waypoint;sketch=0;fillStyle=solid;size=6;pointerEvents=1;points=[];fillColor=none;resizable=0;rotatable=0;perimeter=centerPerimeter;snapToPoint=1;" parent="1" vertex="1">
                    <mxGeometry x="150" y="1490" width="20" height="20" as="geometry"/>
                </mxCell>
                <mxCell id="oanLbzMRLrO47kRGS5rE-88" value="" style="endArrow=none;html=1;rounded=0;strokeColor=default;entryX=0;entryY=0.25;entryDx=0;entryDy=0;" parent="1" edge="1">
                    <mxGeometry width="50" height="50" relative="1" as="geometry">
                        <mxPoint x="160" y="1500" as="sourcePoint"/>
                        <mxPoint x="200" y="1500" as="targetPoint"/>
                    </mxGeometry>
                </mxCell>
                <mxCell id="oanLbzMRLrO47kRGS5rE-89" value="" style="shape=waypoint;sketch=0;fillStyle=solid;size=6;pointerEvents=1;points=[];fillColor=none;resizable=0;rotatable=0;perimeter=centerPerimeter;snapToPoint=1;" parent="1" vertex="1">
                    <mxGeometry x="110" y="1530" width="20" height="20" as="geometry"/>
                </mxCell>
                <mxCell id="oanLbzMRLrO47kRGS5rE-90" value="" style="endArrow=none;html=1;rounded=0;strokeColor=default;entryX=0;entryY=0.75;entryDx=0;entryDy=0;" parent="1" edge="1">
                    <mxGeometry width="50" height="50" relative="1" as="geometry">
                        <mxPoint x="120" y="1540" as="sourcePoint"/>
                        <mxPoint x="200" y="1540" as="targetPoint"/>
                    </mxGeometry>
                </mxCell>
                <mxCell id="oanLbzMRLrO47kRGS5rE-182" style="edgeStyle=none;html=1;exitX=1;exitY=0.5;exitDx=0;exitDy=0;entryX=0;entryY=0.25;entryDx=0;entryDy=0;rounded=0;" parent="1" source="oanLbzMRLrO47kRGS5rE-91" target="oanLbzMRLrO47kRGS5rE-181" edge="1">
                    <mxGeometry relative="1" as="geometry">
                        <Array as="points">
                            <mxPoint x="800" y="1580"/>
                            <mxPoint x="800" y="2040"/>
                        </Array>
                    </mxGeometry>
                </mxCell>
                <mxCell id="oanLbzMRLrO47kRGS5rE-91" value="ADD" style="rounded=0;whiteSpace=wrap;html=1;fontSize=11;" parent="1" vertex="1">
                    <mxGeometry x="700" y="1540" width="80" height="80" as="geometry"/>
                </mxCell>
                <mxCell id="oanLbzMRLrO47kRGS5rE-92" value="MUL" style="rounded=0;whiteSpace=wrap;html=1;fontSize=11;" parent="1" vertex="1">
                    <mxGeometry x="200" y="2560" width="80" height="80" as="geometry"/>
                </mxCell>
                <mxCell id="oanLbzMRLrO47kRGS5rE-93" value="ADD" style="rounded=0;whiteSpace=wrap;html=1;fontSize=11;" parent="1" vertex="1">
                    <mxGeometry x="320" y="2560" width="80" height="80" as="geometry"/>
                </mxCell>
                <mxCell id="oanLbzMRLrO47kRGS5rE-94" style="edgeStyle=none;rounded=0;html=1;exitX=1;exitY=0.5;exitDx=0;exitDy=0;entryX=0;entryY=0.5;entryDx=0;entryDy=0;fontSize=11;" parent="1" source="oanLbzMRLrO47kRGS5rE-92" target="oanLbzMRLrO47kRGS5rE-93" edge="1">
                    <mxGeometry relative="1" as="geometry"/>
                </mxCell>
                <mxCell id="oanLbzMRLrO47kRGS5rE-95" style="edgeStyle=none;rounded=0;html=1;exitX=1;exitY=0.5;exitDx=0;exitDy=0;entryX=0.5;entryY=0;entryDx=0;entryDy=0;fontSize=11;" parent="1" source="oanLbzMRLrO47kRGS5rE-93" target="oanLbzMRLrO47kRGS5rE-93" edge="1">
                    <mxGeometry relative="1" as="geometry">
                        <Array as="points">
                            <mxPoint x="420" y="2600"/>
                            <mxPoint x="420" y="2540"/>
                            <mxPoint x="360" y="2540"/>
                        </Array>
                    </mxGeometry>
                </mxCell>
                <mxCell id="oanLbzMRLrO47kRGS5rE-96" value="MUL" style="rounded=0;whiteSpace=wrap;html=1;fontSize=11;" parent="1" vertex="1">
                    <mxGeometry x="200" y="2680" width="80" height="80" as="geometry"/>
                </mxCell>
                <mxCell id="oanLbzMRLrO47kRGS5rE-97" value="ADD" style="rounded=0;whiteSpace=wrap;html=1;fontSize=11;" parent="1" vertex="1">
                    <mxGeometry x="320" y="2680" width="80" height="80" as="geometry"/>
                </mxCell>
                <mxCell id="oanLbzMRLrO47kRGS5rE-98" style="edgeStyle=none;rounded=0;html=1;exitX=1;exitY=0.5;exitDx=0;exitDy=0;entryX=0;entryY=0.5;entryDx=0;entryDy=0;fontSize=11;" parent="1" source="oanLbzMRLrO47kRGS5rE-96" target="oanLbzMRLrO47kRGS5rE-97" edge="1">
                    <mxGeometry relative="1" as="geometry"/>
                </mxCell>
                <mxCell id="oanLbzMRLrO47kRGS5rE-99" style="edgeStyle=none;rounded=0;html=1;exitX=1;exitY=0.5;exitDx=0;exitDy=0;entryX=0.5;entryY=0;entryDx=0;entryDy=0;fontSize=11;" parent="1" source="oanLbzMRLrO47kRGS5rE-97" target="oanLbzMRLrO47kRGS5rE-97" edge="1">
                    <mxGeometry relative="1" as="geometry">
                        <Array as="points">
                            <mxPoint x="420" y="2720"/>
                            <mxPoint x="420" y="2660"/>
                            <mxPoint x="360" y="2660"/>
                        </Array>
                    </mxGeometry>
                </mxCell>
                <mxCell id="oanLbzMRLrO47kRGS5rE-100" value="MUL" style="rounded=0;whiteSpace=wrap;html=1;fontSize=11;" parent="1" vertex="1">
                    <mxGeometry x="200" y="2800" width="80" height="80" as="geometry"/>
                </mxCell>
                <mxCell id="oanLbzMRLrO47kRGS5rE-101" value="ADD" style="rounded=0;whiteSpace=wrap;html=1;fontSize=11;" parent="1" vertex="1">
                    <mxGeometry x="320" y="2800" width="80" height="80" as="geometry"/>
                </mxCell>
                <mxCell id="oanLbzMRLrO47kRGS5rE-102" style="edgeStyle=none;rounded=0;html=1;exitX=1;exitY=0.5;exitDx=0;exitDy=0;entryX=0;entryY=0.5;entryDx=0;entryDy=0;fontSize=11;" parent="1" source="oanLbzMRLrO47kRGS5rE-100" target="oanLbzMRLrO47kRGS5rE-101" edge="1">
                    <mxGeometry relative="1" as="geometry"/>
                </mxCell>
                <mxCell id="oanLbzMRLrO47kRGS5rE-103" style="edgeStyle=none;rounded=0;html=1;exitX=1;exitY=0.5;exitDx=0;exitDy=0;entryX=0.5;entryY=0;entryDx=0;entryDy=0;fontSize=11;" parent="1" source="oanLbzMRLrO47kRGS5rE-101" target="oanLbzMRLrO47kRGS5rE-101" edge="1">
                    <mxGeometry relative="1" as="geometry">
                        <Array as="points">
                            <mxPoint x="420" y="2840"/>
                            <mxPoint x="420" y="2780"/>
                            <mxPoint x="360" y="2780"/>
                        </Array>
                    </mxGeometry>
                </mxCell>
                <mxCell id="oanLbzMRLrO47kRGS5rE-104" value="MUL" style="rounded=0;whiteSpace=wrap;html=1;fontSize=11;" parent="1" vertex="1">
                    <mxGeometry x="200" y="2920" width="80" height="80" as="geometry"/>
                </mxCell>
                <mxCell id="oanLbzMRLrO47kRGS5rE-105" value="ADD" style="rounded=0;whiteSpace=wrap;html=1;fontSize=11;" parent="1" vertex="1">
                    <mxGeometry x="320" y="2920" width="80" height="80" as="geometry"/>
                </mxCell>
                <mxCell id="oanLbzMRLrO47kRGS5rE-106" style="edgeStyle=none;rounded=0;html=1;exitX=1;exitY=0.5;exitDx=0;exitDy=0;entryX=0;entryY=0.5;entryDx=0;entryDy=0;fontSize=11;" parent="1" source="oanLbzMRLrO47kRGS5rE-104" target="oanLbzMRLrO47kRGS5rE-105" edge="1">
                    <mxGeometry relative="1" as="geometry"/>
                </mxCell>
                <mxCell id="oanLbzMRLrO47kRGS5rE-107" style="edgeStyle=none;rounded=0;html=1;exitX=1;exitY=0.5;exitDx=0;exitDy=0;entryX=0.5;entryY=0;entryDx=0;entryDy=0;fontSize=11;" parent="1" source="oanLbzMRLrO47kRGS5rE-105" target="oanLbzMRLrO47kRGS5rE-105" edge="1">
                    <mxGeometry relative="1" as="geometry">
                        <Array as="points">
                            <mxPoint x="420" y="2960"/>
                            <mxPoint x="420" y="2900"/>
                            <mxPoint x="360" y="2900"/>
                        </Array>
                    </mxGeometry>
                </mxCell>
                <mxCell id="oanLbzMRLrO47kRGS5rE-108" value="ADD" style="rounded=0;whiteSpace=wrap;html=1;fontSize=11;" parent="1" vertex="1">
                    <mxGeometry x="460" y="2620" width="80" height="80" as="geometry"/>
                </mxCell>
                <mxCell id="oanLbzMRLrO47kRGS5rE-109" style="edgeStyle=none;rounded=0;html=1;exitX=1;exitY=0.5;exitDx=0;exitDy=0;fontSize=11;entryX=0;entryY=0.25;entryDx=0;entryDy=0;" parent="1" source="oanLbzMRLrO47kRGS5rE-93" target="oanLbzMRLrO47kRGS5rE-108" edge="1">
                    <mxGeometry relative="1" as="geometry">
                        <mxPoint x="400" y="1660" as="targetPoint"/>
                        <Array as="points">
                            <mxPoint x="440" y="2600"/>
                            <mxPoint x="440" y="2640"/>
                        </Array>
                    </mxGeometry>
                </mxCell>
                <mxCell id="oanLbzMRLrO47kRGS5rE-110" style="edgeStyle=none;rounded=0;html=1;exitX=1;exitY=0.5;exitDx=0;exitDy=0;fontSize=11;entryX=0;entryY=0.75;entryDx=0;entryDy=0;" parent="1" source="oanLbzMRLrO47kRGS5rE-97" target="oanLbzMRLrO47kRGS5rE-108" edge="1">
                    <mxGeometry relative="1" as="geometry">
                        <mxPoint x="420" y="1720" as="targetPoint"/>
                        <Array as="points">
                            <mxPoint x="440" y="2720"/>
                            <mxPoint x="440" y="2680"/>
                        </Array>
                    </mxGeometry>
                </mxCell>
                <mxCell id="oanLbzMRLrO47kRGS5rE-111" value="ADD" style="rounded=0;whiteSpace=wrap;html=1;fontSize=11;" parent="1" vertex="1">
                    <mxGeometry x="460" y="2860" width="80" height="80" as="geometry"/>
                </mxCell>
                <mxCell id="oanLbzMRLrO47kRGS5rE-112" style="edgeStyle=none;rounded=0;html=1;exitX=1;exitY=0.5;exitDx=0;exitDy=0;fontSize=11;entryX=0;entryY=0.25;entryDx=0;entryDy=0;" parent="1" source="oanLbzMRLrO47kRGS5rE-101" target="oanLbzMRLrO47kRGS5rE-111" edge="1">
                    <mxGeometry relative="1" as="geometry">
                        <mxPoint x="420" y="1840.2" as="targetPoint"/>
                        <Array as="points">
                            <mxPoint x="440" y="2840"/>
                            <mxPoint x="440" y="2880"/>
                        </Array>
                    </mxGeometry>
                </mxCell>
                <mxCell id="oanLbzMRLrO47kRGS5rE-113" value="ADD" style="rounded=0;whiteSpace=wrap;html=1;fontSize=11;" parent="1" vertex="1">
                    <mxGeometry x="580" y="2740" width="80" height="80" as="geometry"/>
                </mxCell>
                <mxCell id="oanLbzMRLrO47kRGS5rE-114" style="edgeStyle=none;rounded=0;html=1;exitX=1;exitY=0.5;exitDx=0;exitDy=0;fontSize=11;entryX=0;entryY=0.75;entryDx=0;entryDy=0;" parent="1" source="oanLbzMRLrO47kRGS5rE-105" target="oanLbzMRLrO47kRGS5rE-111" edge="1">
                    <mxGeometry relative="1" as="geometry">
                        <mxPoint x="420" y="1960.2" as="targetPoint"/>
                        <Array as="points">
                            <mxPoint x="440" y="2960"/>
                            <mxPoint x="440" y="2920"/>
                        </Array>
                    </mxGeometry>
                </mxCell>
                <mxCell id="oanLbzMRLrO47kRGS5rE-115" value="" style="shape=waypoint;sketch=0;fillStyle=solid;size=6;pointerEvents=1;points=[];fillColor=none;resizable=0;rotatable=0;perimeter=centerPerimeter;snapToPoint=1;" parent="1" vertex="1">
                    <mxGeometry x="150" y="2570" width="20" height="20" as="geometry"/>
                </mxCell>
                <mxCell id="oanLbzMRLrO47kRGS5rE-116" value="" style="endArrow=none;html=1;rounded=0;strokeColor=default;entryX=0;entryY=0.25;entryDx=0;entryDy=0;" parent="1" target="oanLbzMRLrO47kRGS5rE-92" edge="1">
                    <mxGeometry width="50" height="50" relative="1" as="geometry">
                        <mxPoint x="160" y="2580" as="sourcePoint"/>
                        <mxPoint x="170" y="1530" as="targetPoint"/>
                    </mxGeometry>
                </mxCell>
                <mxCell id="oanLbzMRLrO47kRGS5rE-117" value="" style="shape=waypoint;sketch=0;fillStyle=solid;size=6;pointerEvents=1;points=[];fillColor=none;resizable=0;rotatable=0;perimeter=centerPerimeter;snapToPoint=1;" parent="1" vertex="1">
                    <mxGeometry x="150" y="2690" width="20" height="20" as="geometry"/>
                </mxCell>
                <mxCell id="oanLbzMRLrO47kRGS5rE-118" value="" style="endArrow=none;html=1;rounded=0;strokeColor=default;entryX=0;entryY=0.25;entryDx=0;entryDy=0;" parent="1" edge="1">
                    <mxGeometry width="50" height="50" relative="1" as="geometry">
                        <mxPoint x="160" y="2700" as="sourcePoint"/>
                        <mxPoint x="200" y="2700" as="targetPoint"/>
                    </mxGeometry>
                </mxCell>
                <mxCell id="oanLbzMRLrO47kRGS5rE-119" value="" style="shape=waypoint;sketch=0;fillStyle=solid;size=6;pointerEvents=1;points=[];fillColor=none;resizable=0;rotatable=0;perimeter=centerPerimeter;snapToPoint=1;" parent="1" vertex="1">
                    <mxGeometry x="150" y="2810" width="20" height="20" as="geometry"/>
                </mxCell>
                <mxCell id="oanLbzMRLrO47kRGS5rE-120" value="" style="endArrow=none;html=1;rounded=0;strokeColor=default;entryX=0;entryY=0.25;entryDx=0;entryDy=0;" parent="1" edge="1">
                    <mxGeometry width="50" height="50" relative="1" as="geometry">
                        <mxPoint x="160" y="2820" as="sourcePoint"/>
                        <mxPoint x="200" y="2820" as="targetPoint"/>
                    </mxGeometry>
                </mxCell>
                <mxCell id="oanLbzMRLrO47kRGS5rE-122" value="" style="shape=waypoint;sketch=0;fillStyle=solid;size=6;pointerEvents=1;points=[];fillColor=none;resizable=0;rotatable=0;perimeter=centerPerimeter;snapToPoint=1;" parent="1" vertex="1">
                    <mxGeometry x="110" y="2850" width="20" height="20" as="geometry"/>
                </mxCell>
                <mxCell id="oanLbzMRLrO47kRGS5rE-123" value="" style="endArrow=none;html=1;rounded=0;strokeColor=default;entryX=0;entryY=0.75;entryDx=0;entryDy=0;" parent="1" target="oanLbzMRLrO47kRGS5rE-100" edge="1">
                    <mxGeometry width="50" height="50" relative="1" as="geometry">
                        <mxPoint x="120" y="2860" as="sourcePoint"/>
                        <mxPoint x="120" y="1860" as="targetPoint"/>
                    </mxGeometry>
                </mxCell>
                <mxCell id="oanLbzMRLrO47kRGS5rE-124" value="" style="shape=waypoint;sketch=0;fillStyle=solid;size=6;pointerEvents=1;points=[];fillColor=none;resizable=0;rotatable=0;perimeter=centerPerimeter;snapToPoint=1;" parent="1" vertex="1">
                    <mxGeometry x="110" y="2730" width="20" height="20" as="geometry"/>
                </mxCell>
                <mxCell id="oanLbzMRLrO47kRGS5rE-125" value="" style="endArrow=none;html=1;rounded=0;strokeColor=default;entryX=0;entryY=0.75;entryDx=0;entryDy=0;" parent="1" edge="1">
                    <mxGeometry width="50" height="50" relative="1" as="geometry">
                        <mxPoint x="120" y="2740" as="sourcePoint"/>
                        <mxPoint x="200" y="2740" as="targetPoint"/>
                    </mxGeometry>
                </mxCell>
                <mxCell id="oanLbzMRLrO47kRGS5rE-126" value="" style="shape=waypoint;sketch=0;fillStyle=solid;size=6;pointerEvents=1;points=[];fillColor=none;resizable=0;rotatable=0;perimeter=centerPerimeter;snapToPoint=1;" parent="1" vertex="1">
                    <mxGeometry x="110" y="2610" width="20" height="20" as="geometry"/>
                </mxCell>
                <mxCell id="oanLbzMRLrO47kRGS5rE-127" value="" style="endArrow=none;html=1;rounded=0;strokeColor=default;entryX=0;entryY=0.75;entryDx=0;entryDy=0;" parent="1" edge="1">
                    <mxGeometry width="50" height="50" relative="1" as="geometry">
                        <mxPoint x="120" y="2620" as="sourcePoint"/>
                        <mxPoint x="200" y="2620" as="targetPoint"/>
                    </mxGeometry>
                </mxCell>
                <mxCell id="oanLbzMRLrO47kRGS5rE-128" style="edgeStyle=none;html=1;exitX=1;exitY=0.5;exitDx=0;exitDy=0;entryX=0;entryY=0.25;entryDx=0;entryDy=0;strokeColor=default;rounded=0;" parent="1" source="oanLbzMRLrO47kRGS5rE-108" target="oanLbzMRLrO47kRGS5rE-113" edge="1">
                    <mxGeometry relative="1" as="geometry">
                        <Array as="points">
                            <mxPoint x="560" y="2660"/>
                            <mxPoint x="560" y="2760"/>
                        </Array>
                    </mxGeometry>
                </mxCell>
                <mxCell id="oanLbzMRLrO47kRGS5rE-129" style="edgeStyle=none;html=1;exitX=1;exitY=0.5;exitDx=0;exitDy=0;entryX=0;entryY=0.75;entryDx=0;entryDy=0;rounded=0;" parent="1" source="oanLbzMRLrO47kRGS5rE-111" target="oanLbzMRLrO47kRGS5rE-113" edge="1">
                    <mxGeometry relative="1" as="geometry">
                        <Array as="points">
                            <mxPoint x="560" y="2900"/>
                            <mxPoint x="560" y="2800"/>
                        </Array>
                    </mxGeometry>
                </mxCell>
                <mxCell id="oanLbzMRLrO47kRGS5rE-130" style="edgeStyle=none;rounded=0;html=1;exitX=1;exitY=0.5;exitDx=0;exitDy=0;strokeColor=default;entryX=0;entryY=0.75;entryDx=0;entryDy=0;" parent="1" source="oanLbzMRLrO47kRGS5rE-113" target="oanLbzMRLrO47kRGS5rE-174" edge="1">
                    <mxGeometry relative="1" as="geometry">
                        <mxPoint x="700" y="2780" as="targetPoint"/>
                        <Array as="points">
                            <mxPoint x="680" y="2780"/>
                            <mxPoint x="680" y="2560"/>
                        </Array>
                    </mxGeometry>
                </mxCell>
                <mxCell id="oanLbzMRLrO47kRGS5rE-131" value="MUL" style="rounded=0;whiteSpace=wrap;html=1;fontSize=11;" parent="1" vertex="1">
                    <mxGeometry x="200" y="2080" width="80" height="80" as="geometry"/>
                </mxCell>
                <mxCell id="oanLbzMRLrO47kRGS5rE-132" value="ADD" style="rounded=0;whiteSpace=wrap;html=1;fontSize=11;" parent="1" vertex="1">
                    <mxGeometry x="320" y="2080" width="80" height="80" as="geometry"/>
                </mxCell>
                <mxCell id="oanLbzMRLrO47kRGS5rE-133" style="edgeStyle=none;rounded=0;html=1;exitX=1;exitY=0.5;exitDx=0;exitDy=0;entryX=0;entryY=0.5;entryDx=0;entryDy=0;fontSize=11;" parent="1" source="oanLbzMRLrO47kRGS5rE-131" target="oanLbzMRLrO47kRGS5rE-132" edge="1">
                    <mxGeometry relative="1" as="geometry"/>
                </mxCell>
                <mxCell id="oanLbzMRLrO47kRGS5rE-134" style="edgeStyle=none;rounded=0;html=1;exitX=1;exitY=0.5;exitDx=0;exitDy=0;entryX=0.5;entryY=0;entryDx=0;entryDy=0;fontSize=11;" parent="1" source="oanLbzMRLrO47kRGS5rE-132" target="oanLbzMRLrO47kRGS5rE-132" edge="1">
                    <mxGeometry relative="1" as="geometry">
                        <Array as="points">
                            <mxPoint x="420" y="2120"/>
                            <mxPoint x="420" y="2060"/>
                            <mxPoint x="360" y="2060"/>
                        </Array>
                    </mxGeometry>
                </mxCell>
                <mxCell id="oanLbzMRLrO47kRGS5rE-135" value="MUL" style="rounded=0;whiteSpace=wrap;html=1;fontSize=11;" parent="1" vertex="1">
                    <mxGeometry x="200" y="2200" width="80" height="80" as="geometry"/>
                </mxCell>
                <mxCell id="oanLbzMRLrO47kRGS5rE-136" value="ADD" style="rounded=0;whiteSpace=wrap;html=1;fontSize=11;" parent="1" vertex="1">
                    <mxGeometry x="320" y="2200" width="80" height="80" as="geometry"/>
                </mxCell>
                <mxCell id="oanLbzMRLrO47kRGS5rE-137" style="edgeStyle=none;rounded=0;html=1;exitX=1;exitY=0.5;exitDx=0;exitDy=0;entryX=0;entryY=0.5;entryDx=0;entryDy=0;fontSize=11;" parent="1" source="oanLbzMRLrO47kRGS5rE-135" target="oanLbzMRLrO47kRGS5rE-136" edge="1">
                    <mxGeometry relative="1" as="geometry"/>
                </mxCell>
                <mxCell id="oanLbzMRLrO47kRGS5rE-138" style="edgeStyle=none;rounded=0;html=1;exitX=1;exitY=0.5;exitDx=0;exitDy=0;entryX=0.5;entryY=0;entryDx=0;entryDy=0;fontSize=11;" parent="1" source="oanLbzMRLrO47kRGS5rE-136" target="oanLbzMRLrO47kRGS5rE-136" edge="1">
                    <mxGeometry relative="1" as="geometry">
                        <Array as="points">
                            <mxPoint x="420" y="2240"/>
                            <mxPoint x="420" y="2180"/>
                            <mxPoint x="360" y="2180"/>
                        </Array>
                    </mxGeometry>
                </mxCell>
                <mxCell id="oanLbzMRLrO47kRGS5rE-139" value="MUL" style="rounded=0;whiteSpace=wrap;html=1;fontSize=11;" parent="1" vertex="1">
                    <mxGeometry x="200" y="2320" width="80" height="80" as="geometry"/>
                </mxCell>
                <mxCell id="oanLbzMRLrO47kRGS5rE-140" value="ADD" style="rounded=0;whiteSpace=wrap;html=1;fontSize=11;" parent="1" vertex="1">
                    <mxGeometry x="320" y="2320" width="80" height="80" as="geometry"/>
                </mxCell>
                <mxCell id="oanLbzMRLrO47kRGS5rE-141" style="edgeStyle=none;rounded=0;html=1;exitX=1;exitY=0.5;exitDx=0;exitDy=0;entryX=0;entryY=0.5;entryDx=0;entryDy=0;fontSize=11;" parent="1" source="oanLbzMRLrO47kRGS5rE-139" target="oanLbzMRLrO47kRGS5rE-140" edge="1">
                    <mxGeometry relative="1" as="geometry"/>
                </mxCell>
                <mxCell id="oanLbzMRLrO47kRGS5rE-142" style="edgeStyle=none;rounded=0;html=1;exitX=1;exitY=0.5;exitDx=0;exitDy=0;entryX=0.5;entryY=0;entryDx=0;entryDy=0;fontSize=11;" parent="1" source="oanLbzMRLrO47kRGS5rE-140" target="oanLbzMRLrO47kRGS5rE-140" edge="1">
                    <mxGeometry relative="1" as="geometry">
                        <Array as="points">
                            <mxPoint x="420" y="2360"/>
                            <mxPoint x="420" y="2300"/>
                            <mxPoint x="360" y="2300"/>
                        </Array>
                    </mxGeometry>
                </mxCell>
                <mxCell id="oanLbzMRLrO47kRGS5rE-143" value="MUL" style="rounded=0;whiteSpace=wrap;html=1;fontSize=11;" parent="1" vertex="1">
                    <mxGeometry x="200" y="2440" width="80" height="80" as="geometry"/>
                </mxCell>
                <mxCell id="oanLbzMRLrO47kRGS5rE-144" value="ADD" style="rounded=0;whiteSpace=wrap;html=1;fontSize=11;" parent="1" vertex="1">
                    <mxGeometry x="320" y="2440" width="80" height="80" as="geometry"/>
                </mxCell>
                <mxCell id="oanLbzMRLrO47kRGS5rE-145" style="edgeStyle=none;rounded=0;html=1;exitX=1;exitY=0.5;exitDx=0;exitDy=0;entryX=0;entryY=0.5;entryDx=0;entryDy=0;fontSize=11;" parent="1" source="oanLbzMRLrO47kRGS5rE-143" target="oanLbzMRLrO47kRGS5rE-144" edge="1">
                    <mxGeometry relative="1" as="geometry"/>
                </mxCell>
                <mxCell id="oanLbzMRLrO47kRGS5rE-146" style="edgeStyle=none;rounded=0;html=1;exitX=1;exitY=0.5;exitDx=0;exitDy=0;entryX=0.5;entryY=0;entryDx=0;entryDy=0;fontSize=11;" parent="1" source="oanLbzMRLrO47kRGS5rE-144" target="oanLbzMRLrO47kRGS5rE-144" edge="1">
                    <mxGeometry relative="1" as="geometry">
                        <Array as="points">
                            <mxPoint x="420" y="2480"/>
                            <mxPoint x="420" y="2420"/>
                            <mxPoint x="360" y="2420"/>
                        </Array>
                    </mxGeometry>
                </mxCell>
                <mxCell id="oanLbzMRLrO47kRGS5rE-147" value="ADD" style="rounded=0;whiteSpace=wrap;html=1;fontSize=11;" parent="1" vertex="1">
                    <mxGeometry x="460" y="2140" width="80" height="80" as="geometry"/>
                </mxCell>
                <mxCell id="oanLbzMRLrO47kRGS5rE-148" style="edgeStyle=none;rounded=0;html=1;exitX=1;exitY=0.5;exitDx=0;exitDy=0;fontSize=11;entryX=0;entryY=0.25;entryDx=0;entryDy=0;" parent="1" source="oanLbzMRLrO47kRGS5rE-132" target="oanLbzMRLrO47kRGS5rE-147" edge="1">
                    <mxGeometry relative="1" as="geometry">
                        <mxPoint x="440" y="2180" as="targetPoint"/>
                        <Array as="points">
                            <mxPoint x="440" y="2120"/>
                            <mxPoint x="440" y="2160"/>
                        </Array>
                    </mxGeometry>
                </mxCell>
                <mxCell id="oanLbzMRLrO47kRGS5rE-149" style="edgeStyle=none;rounded=0;html=1;exitX=1;exitY=0.5;exitDx=0;exitDy=0;fontSize=11;entryX=0;entryY=0.75;entryDx=0;entryDy=0;" parent="1" source="oanLbzMRLrO47kRGS5rE-136" target="oanLbzMRLrO47kRGS5rE-147" edge="1">
                    <mxGeometry relative="1" as="geometry">
                        <mxPoint x="460" y="2240" as="targetPoint"/>
                        <Array as="points">
                            <mxPoint x="440" y="2240"/>
                            <mxPoint x="440" y="2200"/>
                        </Array>
                    </mxGeometry>
                </mxCell>
                <mxCell id="oanLbzMRLrO47kRGS5rE-150" value="ADD" style="rounded=0;whiteSpace=wrap;html=1;fontSize=11;" parent="1" vertex="1">
                    <mxGeometry x="460" y="2380" width="80" height="80" as="geometry"/>
                </mxCell>
                <mxCell id="oanLbzMRLrO47kRGS5rE-151" style="edgeStyle=none;rounded=0;html=1;exitX=1;exitY=0.5;exitDx=0;exitDy=0;fontSize=11;entryX=0;entryY=0.25;entryDx=0;entryDy=0;" parent="1" source="oanLbzMRLrO47kRGS5rE-140" target="oanLbzMRLrO47kRGS5rE-150" edge="1">
                    <mxGeometry relative="1" as="geometry">
                        <mxPoint x="460" y="2360.2" as="targetPoint"/>
                        <Array as="points">
                            <mxPoint x="440" y="2360"/>
                            <mxPoint x="440" y="2400"/>
                        </Array>
                    </mxGeometry>
                </mxCell>
                <mxCell id="oanLbzMRLrO47kRGS5rE-152" value="ADD" style="rounded=0;whiteSpace=wrap;html=1;fontSize=11;" parent="1" vertex="1">
                    <mxGeometry x="580" y="2260" width="80" height="80" as="geometry"/>
                </mxCell>
                <mxCell id="oanLbzMRLrO47kRGS5rE-153" style="edgeStyle=none;rounded=0;html=1;exitX=1;exitY=0.5;exitDx=0;exitDy=0;fontSize=11;entryX=0;entryY=0.75;entryDx=0;entryDy=0;" parent="1" source="oanLbzMRLrO47kRGS5rE-144" target="oanLbzMRLrO47kRGS5rE-150" edge="1">
                    <mxGeometry relative="1" as="geometry">
                        <mxPoint x="460" y="2480.2" as="targetPoint"/>
                        <Array as="points">
                            <mxPoint x="440" y="2480"/>
                            <mxPoint x="440" y="2440"/>
                        </Array>
                    </mxGeometry>
                </mxCell>
                <mxCell id="oanLbzMRLrO47kRGS5rE-154" value="" style="shape=waypoint;sketch=0;fillStyle=solid;size=6;pointerEvents=1;points=[];fillColor=none;resizable=0;rotatable=0;perimeter=centerPerimeter;snapToPoint=1;" parent="1" vertex="1">
                    <mxGeometry x="150" y="2090" width="20" height="20" as="geometry"/>
                </mxCell>
                <mxCell id="oanLbzMRLrO47kRGS5rE-155" value="" style="endArrow=none;html=1;rounded=0;strokeColor=default;entryX=0;entryY=0.25;entryDx=0;entryDy=0;" parent="1" target="oanLbzMRLrO47kRGS5rE-131" edge="1">
                    <mxGeometry width="50" height="50" relative="1" as="geometry">
                        <mxPoint x="160" y="2100" as="sourcePoint"/>
                        <mxPoint x="210" y="2050" as="targetPoint"/>
                    </mxGeometry>
                </mxCell>
                <mxCell id="oanLbzMRLrO47kRGS5rE-156" value="" style="shape=waypoint;sketch=0;fillStyle=solid;size=6;pointerEvents=1;points=[];fillColor=none;resizable=0;rotatable=0;perimeter=centerPerimeter;snapToPoint=1;" parent="1" vertex="1">
                    <mxGeometry x="150" y="2210" width="20" height="20" as="geometry"/>
                </mxCell>
                <mxCell id="oanLbzMRLrO47kRGS5rE-157" value="" style="endArrow=none;html=1;rounded=0;strokeColor=default;entryX=0;entryY=0.25;entryDx=0;entryDy=0;" parent="1" edge="1">
                    <mxGeometry width="50" height="50" relative="1" as="geometry">
                        <mxPoint x="160" y="2220" as="sourcePoint"/>
                        <mxPoint x="200" y="2220" as="targetPoint"/>
                    </mxGeometry>
                </mxCell>
                <mxCell id="oanLbzMRLrO47kRGS5rE-158" value="" style="shape=waypoint;sketch=0;fillStyle=solid;size=6;pointerEvents=1;points=[];fillColor=none;resizable=0;rotatable=0;perimeter=centerPerimeter;snapToPoint=1;" parent="1" vertex="1">
                    <mxGeometry x="150" y="2330" width="20" height="20" as="geometry"/>
                </mxCell>
                <mxCell id="oanLbzMRLrO47kRGS5rE-159" value="" style="endArrow=none;html=1;rounded=0;strokeColor=default;entryX=0;entryY=0.25;entryDx=0;entryDy=0;" parent="1" edge="1">
                    <mxGeometry width="50" height="50" relative="1" as="geometry">
                        <mxPoint x="160" y="2340" as="sourcePoint"/>
                        <mxPoint x="200" y="2340" as="targetPoint"/>
                    </mxGeometry>
                </mxCell>
                <mxCell id="oanLbzMRLrO47kRGS5rE-161" value="" style="shape=waypoint;sketch=0;fillStyle=solid;size=6;pointerEvents=1;points=[];fillColor=none;resizable=0;rotatable=0;perimeter=centerPerimeter;snapToPoint=1;" parent="1" vertex="1">
                    <mxGeometry x="110" y="2370" width="20" height="20" as="geometry"/>
                </mxCell>
                <mxCell id="oanLbzMRLrO47kRGS5rE-162" value="" style="endArrow=none;html=1;rounded=0;strokeColor=default;entryX=0;entryY=0.75;entryDx=0;entryDy=0;" parent="1" target="oanLbzMRLrO47kRGS5rE-139" edge="1">
                    <mxGeometry width="50" height="50" relative="1" as="geometry">
                        <mxPoint x="120" y="2380" as="sourcePoint"/>
                        <mxPoint x="160" y="2380" as="targetPoint"/>
                    </mxGeometry>
                </mxCell>
                <mxCell id="oanLbzMRLrO47kRGS5rE-163" value="" style="shape=waypoint;sketch=0;fillStyle=solid;size=6;pointerEvents=1;points=[];fillColor=none;resizable=0;rotatable=0;perimeter=centerPerimeter;snapToPoint=1;" parent="1" vertex="1">
                    <mxGeometry x="110" y="2250" width="20" height="20" as="geometry"/>
                </mxCell>
                <mxCell id="oanLbzMRLrO47kRGS5rE-164" value="" style="endArrow=none;html=1;rounded=0;strokeColor=default;entryX=0;entryY=0.75;entryDx=0;entryDy=0;" parent="1" edge="1">
                    <mxGeometry width="50" height="50" relative="1" as="geometry">
                        <mxPoint x="120" y="2260" as="sourcePoint"/>
                        <mxPoint x="200" y="2260" as="targetPoint"/>
                    </mxGeometry>
                </mxCell>
                <mxCell id="oanLbzMRLrO47kRGS5rE-165" value="" style="shape=waypoint;sketch=0;fillStyle=solid;size=6;pointerEvents=1;points=[];fillColor=none;resizable=0;rotatable=0;perimeter=centerPerimeter;snapToPoint=1;" parent="1" vertex="1">
                    <mxGeometry x="110" y="2130" width="20" height="20" as="geometry"/>
                </mxCell>
                <mxCell id="oanLbzMRLrO47kRGS5rE-166" value="" style="endArrow=none;html=1;rounded=0;strokeColor=default;entryX=0;entryY=0.75;entryDx=0;entryDy=0;" parent="1" edge="1">
                    <mxGeometry width="50" height="50" relative="1" as="geometry">
                        <mxPoint x="120" y="2140" as="sourcePoint"/>
                        <mxPoint x="200" y="2140" as="targetPoint"/>
                    </mxGeometry>
                </mxCell>
                <mxCell id="oanLbzMRLrO47kRGS5rE-167" style="edgeStyle=none;html=1;exitX=1;exitY=0.5;exitDx=0;exitDy=0;entryX=0;entryY=0.25;entryDx=0;entryDy=0;strokeColor=default;rounded=0;" parent="1" source="oanLbzMRLrO47kRGS5rE-147" target="oanLbzMRLrO47kRGS5rE-152" edge="1">
                    <mxGeometry relative="1" as="geometry">
                        <Array as="points">
                            <mxPoint x="560" y="2180"/>
                            <mxPoint x="560" y="2280"/>
                        </Array>
                    </mxGeometry>
                </mxCell>
                <mxCell id="oanLbzMRLrO47kRGS5rE-168" style="edgeStyle=none;html=1;exitX=1;exitY=0.5;exitDx=0;exitDy=0;entryX=0;entryY=0.75;entryDx=0;entryDy=0;rounded=0;" parent="1" source="oanLbzMRLrO47kRGS5rE-150" target="oanLbzMRLrO47kRGS5rE-152" edge="1">
                    <mxGeometry relative="1" as="geometry">
                        <Array as="points">
                            <mxPoint x="560" y="2420"/>
                            <mxPoint x="560" y="2320"/>
                        </Array>
                    </mxGeometry>
                </mxCell>
                <mxCell id="oanLbzMRLrO47kRGS5rE-169" style="edgeStyle=none;rounded=0;html=1;exitX=1;exitY=0.5;exitDx=0;exitDy=0;strokeColor=default;entryX=0;entryY=0.25;entryDx=0;entryDy=0;" parent="1" source="oanLbzMRLrO47kRGS5rE-152" target="oanLbzMRLrO47kRGS5rE-174" edge="1">
                    <mxGeometry relative="1" as="geometry">
                        <mxPoint x="700" y="2300" as="targetPoint"/>
                        <Array as="points">
                            <mxPoint x="680" y="2300"/>
                            <mxPoint x="680" y="2520"/>
                        </Array>
                    </mxGeometry>
                </mxCell>
                <mxCell id="oanLbzMRLrO47kRGS5rE-170" value="" style="shape=waypoint;sketch=0;fillStyle=solid;size=6;pointerEvents=1;points=[];fillColor=none;resizable=0;rotatable=0;perimeter=centerPerimeter;snapToPoint=1;" parent="1" vertex="1">
                    <mxGeometry x="150" y="2450" width="20" height="20" as="geometry"/>
                </mxCell>
                <mxCell id="oanLbzMRLrO47kRGS5rE-171" value="" style="endArrow=none;html=1;rounded=0;strokeColor=default;entryX=0;entryY=0.25;entryDx=0;entryDy=0;" parent="1" edge="1">
                    <mxGeometry width="50" height="50" relative="1" as="geometry">
                        <mxPoint x="160" y="2460" as="sourcePoint"/>
                        <mxPoint x="200" y="2460" as="targetPoint"/>
                    </mxGeometry>
                </mxCell>
                <mxCell id="oanLbzMRLrO47kRGS5rE-172" value="" style="shape=waypoint;sketch=0;fillStyle=solid;size=6;pointerEvents=1;points=[];fillColor=none;resizable=0;rotatable=0;perimeter=centerPerimeter;snapToPoint=1;" parent="1" vertex="1">
                    <mxGeometry x="110" y="2490" width="20" height="20" as="geometry"/>
                </mxCell>
                <mxCell id="oanLbzMRLrO47kRGS5rE-173" value="" style="endArrow=none;html=1;rounded=0;strokeColor=default;entryX=0;entryY=0.75;entryDx=0;entryDy=0;" parent="1" edge="1">
                    <mxGeometry width="50" height="50" relative="1" as="geometry">
                        <mxPoint x="120" y="2500" as="sourcePoint"/>
                        <mxPoint x="200" y="2500" as="targetPoint"/>
                    </mxGeometry>
                </mxCell>
                <mxCell id="oanLbzMRLrO47kRGS5rE-183" style="edgeStyle=none;html=1;exitX=1;exitY=0.5;exitDx=0;exitDy=0;entryX=0;entryY=0.75;entryDx=0;entryDy=0;rounded=0;" parent="1" source="oanLbzMRLrO47kRGS5rE-174" target="oanLbzMRLrO47kRGS5rE-181" edge="1">
                    <mxGeometry relative="1" as="geometry">
                        <Array as="points">
                            <mxPoint x="800" y="2540"/>
                            <mxPoint x="800" y="2080"/>
                        </Array>
                    </mxGeometry>
                </mxCell>
                <mxCell id="oanLbzMRLrO47kRGS5rE-174" value="ADD" style="rounded=0;whiteSpace=wrap;html=1;fontSize=11;" parent="1" vertex="1">
                    <mxGeometry x="700" y="2500" width="80" height="80" as="geometry"/>
                </mxCell>
                <mxCell id="oanLbzMRLrO47kRGS5rE-177" value="" style="shape=waypoint;sketch=0;fillStyle=solid;size=6;pointerEvents=1;points=[];fillColor=none;resizable=0;rotatable=0;perimeter=centerPerimeter;snapToPoint=1;" parent="1" vertex="1">
                    <mxGeometry x="150" y="1970" width="20" height="20" as="geometry"/>
                </mxCell>
                <mxCell id="oanLbzMRLrO47kRGS5rE-178" value="" style="endArrow=none;html=1;rounded=0;strokeColor=default;entryX=0;entryY=0.25;entryDx=0;entryDy=0;" parent="1" edge="1">
                    <mxGeometry width="50" height="50" relative="1" as="geometry">
                        <mxPoint x="160" y="1980" as="sourcePoint"/>
                        <mxPoint x="200" y="1980" as="targetPoint"/>
                    </mxGeometry>
                </mxCell>
                <mxCell id="oanLbzMRLrO47kRGS5rE-179" value="" style="shape=waypoint;sketch=0;fillStyle=solid;size=6;pointerEvents=1;points=[];fillColor=none;resizable=0;rotatable=0;perimeter=centerPerimeter;snapToPoint=1;" parent="1" vertex="1">
                    <mxGeometry x="110" y="2010" width="20" height="20" as="geometry"/>
                </mxCell>
                <mxCell id="oanLbzMRLrO47kRGS5rE-180" value="" style="endArrow=none;html=1;rounded=0;strokeColor=default;entryX=0;entryY=0.75;entryDx=0;entryDy=0;" parent="1" edge="1">
                    <mxGeometry width="50" height="50" relative="1" as="geometry">
                        <mxPoint x="120" y="2020" as="sourcePoint"/>
                        <mxPoint x="200" y="2020" as="targetPoint"/>
                    </mxGeometry>
                </mxCell>
                <mxCell id="oanLbzMRLrO47kRGS5rE-184" style="edgeStyle=none;rounded=0;html=1;exitX=1;exitY=0.5;exitDx=0;exitDy=0;" parent="1" source="oanLbzMRLrO47kRGS5rE-181" edge="1">
                    <mxGeometry relative="1" as="geometry">
                        <mxPoint x="940" y="2059.5882352941176" as="targetPoint"/>
                    </mxGeometry>
                </mxCell>
                <mxCell id="oanLbzMRLrO47kRGS5rE-181" value="ADD" style="rounded=0;whiteSpace=wrap;html=1;fontSize=11;" parent="1" vertex="1">
                    <mxGeometry x="820" y="2020" width="80" height="80" as="geometry"/>
                </mxCell>
                <mxCell id="oanLbzMRLrO47kRGS5rE-544" value="MUL" style="rounded=0;whiteSpace=wrap;html=1;fontSize=11;" parent="1" vertex="1">
                    <mxGeometry x="1200" y="1600" width="80" height="80" as="geometry"/>
                </mxCell>
                <mxCell id="oanLbzMRLrO47kRGS5rE-545" value="ADD" style="rounded=0;whiteSpace=wrap;html=1;fontSize=11;" parent="1" vertex="1">
                    <mxGeometry x="1320" y="1600" width="80" height="80" as="geometry"/>
                </mxCell>
                <mxCell id="oanLbzMRLrO47kRGS5rE-546" style="edgeStyle=none;rounded=0;html=1;exitX=1;exitY=0.5;exitDx=0;exitDy=0;entryX=0;entryY=0.5;entryDx=0;entryDy=0;fontSize=11;" parent="1" source="oanLbzMRLrO47kRGS5rE-544" target="oanLbzMRLrO47kRGS5rE-545" edge="1">
                    <mxGeometry relative="1" as="geometry"/>
                </mxCell>
                <mxCell id="oanLbzMRLrO47kRGS5rE-547" style="edgeStyle=none;rounded=0;html=1;exitX=1;exitY=0.5;exitDx=0;exitDy=0;entryX=0.5;entryY=0;entryDx=0;entryDy=0;fontSize=11;" parent="1" source="oanLbzMRLrO47kRGS5rE-545" target="oanLbzMRLrO47kRGS5rE-545" edge="1">
                    <mxGeometry relative="1" as="geometry">
                        <Array as="points">
                            <mxPoint x="1420" y="1640"/>
                            <mxPoint x="1420" y="1580"/>
                            <mxPoint x="1360" y="1580"/>
                        </Array>
                    </mxGeometry>
                </mxCell>
                <mxCell id="oanLbzMRLrO47kRGS5rE-548" value="MUL" style="rounded=0;whiteSpace=wrap;html=1;fontSize=11;" parent="1" vertex="1">
                    <mxGeometry x="1200" y="1720" width="80" height="80" as="geometry"/>
                </mxCell>
                <mxCell id="oanLbzMRLrO47kRGS5rE-549" value="ADD" style="rounded=0;whiteSpace=wrap;html=1;fontSize=11;" parent="1" vertex="1">
                    <mxGeometry x="1320" y="1720" width="80" height="80" as="geometry"/>
                </mxCell>
                <mxCell id="oanLbzMRLrO47kRGS5rE-550" style="edgeStyle=none;rounded=0;html=1;exitX=1;exitY=0.5;exitDx=0;exitDy=0;entryX=0;entryY=0.5;entryDx=0;entryDy=0;fontSize=11;" parent="1" source="oanLbzMRLrO47kRGS5rE-548" target="oanLbzMRLrO47kRGS5rE-549" edge="1">
                    <mxGeometry relative="1" as="geometry"/>
                </mxCell>
                <mxCell id="oanLbzMRLrO47kRGS5rE-551" style="edgeStyle=none;rounded=0;html=1;exitX=1;exitY=0.5;exitDx=0;exitDy=0;entryX=0.5;entryY=0;entryDx=0;entryDy=0;fontSize=11;" parent="1" source="oanLbzMRLrO47kRGS5rE-549" target="oanLbzMRLrO47kRGS5rE-549" edge="1">
                    <mxGeometry relative="1" as="geometry">
                        <Array as="points">
                            <mxPoint x="1420" y="1760"/>
                            <mxPoint x="1420" y="1700"/>
                            <mxPoint x="1360" y="1700"/>
                        </Array>
                    </mxGeometry>
                </mxCell>
                <mxCell id="oanLbzMRLrO47kRGS5rE-552" value="MUL" style="rounded=0;whiteSpace=wrap;html=1;fontSize=11;" parent="1" vertex="1">
                    <mxGeometry x="1200" y="1840" width="80" height="80" as="geometry"/>
                </mxCell>
                <mxCell id="oanLbzMRLrO47kRGS5rE-553" value="ADD" style="rounded=0;whiteSpace=wrap;html=1;fontSize=11;" parent="1" vertex="1">
                    <mxGeometry x="1320" y="1840" width="80" height="80" as="geometry"/>
                </mxCell>
                <mxCell id="oanLbzMRLrO47kRGS5rE-554" style="edgeStyle=none;rounded=0;html=1;exitX=1;exitY=0.5;exitDx=0;exitDy=0;entryX=0;entryY=0.5;entryDx=0;entryDy=0;fontSize=11;" parent="1" source="oanLbzMRLrO47kRGS5rE-552" target="oanLbzMRLrO47kRGS5rE-553" edge="1">
                    <mxGeometry relative="1" as="geometry"/>
                </mxCell>
                <mxCell id="oanLbzMRLrO47kRGS5rE-555" style="edgeStyle=none;rounded=0;html=1;exitX=1;exitY=0.5;exitDx=0;exitDy=0;entryX=0.5;entryY=0;entryDx=0;entryDy=0;fontSize=11;" parent="1" source="oanLbzMRLrO47kRGS5rE-553" target="oanLbzMRLrO47kRGS5rE-553" edge="1">
                    <mxGeometry relative="1" as="geometry">
                        <Array as="points">
                            <mxPoint x="1420" y="1880"/>
                            <mxPoint x="1420" y="1820"/>
                            <mxPoint x="1360" y="1820"/>
                        </Array>
                    </mxGeometry>
                </mxCell>
                <mxCell id="oanLbzMRLrO47kRGS5rE-556" value="MUL" style="rounded=0;whiteSpace=wrap;html=1;fontSize=11;" parent="1" vertex="1">
                    <mxGeometry x="1200" y="1960" width="80" height="80" as="geometry"/>
                </mxCell>
                <mxCell id="oanLbzMRLrO47kRGS5rE-557" value="ADD" style="rounded=0;whiteSpace=wrap;html=1;fontSize=11;" parent="1" vertex="1">
                    <mxGeometry x="1320" y="1960" width="80" height="80" as="geometry"/>
                </mxCell>
                <mxCell id="oanLbzMRLrO47kRGS5rE-558" style="edgeStyle=none;rounded=0;html=1;exitX=1;exitY=0.5;exitDx=0;exitDy=0;entryX=0;entryY=0.5;entryDx=0;entryDy=0;fontSize=11;" parent="1" source="oanLbzMRLrO47kRGS5rE-556" target="oanLbzMRLrO47kRGS5rE-557" edge="1">
                    <mxGeometry relative="1" as="geometry"/>
                </mxCell>
                <mxCell id="oanLbzMRLrO47kRGS5rE-559" style="edgeStyle=none;rounded=0;html=1;exitX=1;exitY=0.5;exitDx=0;exitDy=0;entryX=0.5;entryY=0;entryDx=0;entryDy=0;fontSize=11;" parent="1" source="oanLbzMRLrO47kRGS5rE-557" target="oanLbzMRLrO47kRGS5rE-557" edge="1">
                    <mxGeometry relative="1" as="geometry">
                        <Array as="points">
                            <mxPoint x="1420" y="2000"/>
                            <mxPoint x="1420" y="1940"/>
                            <mxPoint x="1360" y="1940"/>
                        </Array>
                    </mxGeometry>
                </mxCell>
                <mxCell id="oanLbzMRLrO47kRGS5rE-560" value="ADD" style="rounded=0;whiteSpace=wrap;html=1;fontSize=11;" parent="1" vertex="1">
                    <mxGeometry x="1460" y="1660" width="80" height="80" as="geometry"/>
                </mxCell>
                <mxCell id="oanLbzMRLrO47kRGS5rE-561" style="edgeStyle=none;rounded=0;html=1;exitX=1;exitY=0.5;exitDx=0;exitDy=0;fontSize=11;entryX=0;entryY=0.25;entryDx=0;entryDy=0;" parent="1" source="oanLbzMRLrO47kRGS5rE-545" target="oanLbzMRLrO47kRGS5rE-560" edge="1">
                    <mxGeometry relative="1" as="geometry">
                        <mxPoint x="1400" y="700" as="targetPoint"/>
                        <Array as="points">
                            <mxPoint x="1440" y="1640"/>
                            <mxPoint x="1440" y="1680"/>
                        </Array>
                    </mxGeometry>
                </mxCell>
                <mxCell id="oanLbzMRLrO47kRGS5rE-562" style="edgeStyle=none;rounded=0;html=1;exitX=1;exitY=0.5;exitDx=0;exitDy=0;fontSize=11;entryX=0;entryY=0.75;entryDx=0;entryDy=0;" parent="1" source="oanLbzMRLrO47kRGS5rE-549" target="oanLbzMRLrO47kRGS5rE-560" edge="1">
                    <mxGeometry relative="1" as="geometry">
                        <mxPoint x="1420" y="760" as="targetPoint"/>
                        <Array as="points">
                            <mxPoint x="1440" y="1760"/>
                            <mxPoint x="1440" y="1720"/>
                        </Array>
                    </mxGeometry>
                </mxCell>
                <mxCell id="oanLbzMRLrO47kRGS5rE-563" value="ADD" style="rounded=0;whiteSpace=wrap;html=1;fontSize=11;" parent="1" vertex="1">
                    <mxGeometry x="1460" y="1900" width="80" height="80" as="geometry"/>
                </mxCell>
                <mxCell id="oanLbzMRLrO47kRGS5rE-564" style="edgeStyle=none;rounded=0;html=1;exitX=1;exitY=0.5;exitDx=0;exitDy=0;fontSize=11;entryX=0;entryY=0.25;entryDx=0;entryDy=0;" parent="1" source="oanLbzMRLrO47kRGS5rE-553" target="oanLbzMRLrO47kRGS5rE-563" edge="1">
                    <mxGeometry relative="1" as="geometry">
                        <mxPoint x="1420" y="880.2" as="targetPoint"/>
                        <Array as="points">
                            <mxPoint x="1440" y="1880"/>
                            <mxPoint x="1440" y="1920"/>
                        </Array>
                    </mxGeometry>
                </mxCell>
                <mxCell id="oanLbzMRLrO47kRGS5rE-565" value="ADD" style="rounded=0;whiteSpace=wrap;html=1;fontSize=11;" parent="1" vertex="1">
                    <mxGeometry x="1580" y="1780" width="80" height="80" as="geometry"/>
                </mxCell>
                <mxCell id="oanLbzMRLrO47kRGS5rE-566" style="edgeStyle=none;rounded=0;html=1;exitX=1;exitY=0.5;exitDx=0;exitDy=0;fontSize=11;entryX=0;entryY=0.75;entryDx=0;entryDy=0;" parent="1" source="oanLbzMRLrO47kRGS5rE-557" target="oanLbzMRLrO47kRGS5rE-563" edge="1">
                    <mxGeometry relative="1" as="geometry">
                        <mxPoint x="1420" y="1000.2" as="targetPoint"/>
                        <Array as="points">
                            <mxPoint x="1440" y="2000"/>
                            <mxPoint x="1440" y="1960"/>
                        </Array>
                    </mxGeometry>
                </mxCell>
                <mxCell id="oanLbzMRLrO47kRGS5rE-567" value="" style="shape=waypoint;sketch=0;fillStyle=solid;size=6;pointerEvents=1;points=[];fillColor=none;resizable=0;rotatable=0;perimeter=centerPerimeter;snapToPoint=1;" parent="1" vertex="1">
                    <mxGeometry x="1150" y="1610" width="20" height="20" as="geometry"/>
                </mxCell>
                <mxCell id="oanLbzMRLrO47kRGS5rE-568" value="" style="endArrow=none;html=1;rounded=0;strokeColor=default;entryX=0;entryY=0.25;entryDx=0;entryDy=0;" parent="1" target="oanLbzMRLrO47kRGS5rE-544" edge="1">
                    <mxGeometry width="50" height="50" relative="1" as="geometry">
                        <mxPoint x="1160" y="1620" as="sourcePoint"/>
                        <mxPoint x="1170" y="570" as="targetPoint"/>
                    </mxGeometry>
                </mxCell>
                <mxCell id="oanLbzMRLrO47kRGS5rE-569" value="" style="shape=waypoint;sketch=0;fillStyle=solid;size=6;pointerEvents=1;points=[];fillColor=none;resizable=0;rotatable=0;perimeter=centerPerimeter;snapToPoint=1;" parent="1" vertex="1">
                    <mxGeometry x="1150" y="1730" width="20" height="20" as="geometry"/>
                </mxCell>
                <mxCell id="oanLbzMRLrO47kRGS5rE-570" value="" style="endArrow=none;html=1;rounded=0;strokeColor=default;entryX=0;entryY=0.25;entryDx=0;entryDy=0;" parent="1" edge="1">
                    <mxGeometry width="50" height="50" relative="1" as="geometry">
                        <mxPoint x="1160" y="1740" as="sourcePoint"/>
                        <mxPoint x="1200" y="1740" as="targetPoint"/>
                    </mxGeometry>
                </mxCell>
                <mxCell id="oanLbzMRLrO47kRGS5rE-571" value="" style="shape=waypoint;sketch=0;fillStyle=solid;size=6;pointerEvents=1;points=[];fillColor=none;resizable=0;rotatable=0;perimeter=centerPerimeter;snapToPoint=1;" parent="1" vertex="1">
                    <mxGeometry x="1150" y="1850" width="20" height="20" as="geometry"/>
                </mxCell>
                <mxCell id="oanLbzMRLrO47kRGS5rE-572" value="" style="endArrow=none;html=1;rounded=0;strokeColor=default;entryX=0;entryY=0.25;entryDx=0;entryDy=0;" parent="1" edge="1">
                    <mxGeometry width="50" height="50" relative="1" as="geometry">
                        <mxPoint x="1160" y="1860" as="sourcePoint"/>
                        <mxPoint x="1200" y="1860" as="targetPoint"/>
                    </mxGeometry>
                </mxCell>
                <mxCell id="oanLbzMRLrO47kRGS5rE-573" value="" style="shape=waypoint;sketch=0;fillStyle=solid;size=6;pointerEvents=1;points=[];fillColor=none;resizable=0;rotatable=0;perimeter=centerPerimeter;snapToPoint=1;" parent="1" vertex="1">
                    <mxGeometry x="1110" y="1890" width="20" height="20" as="geometry"/>
                </mxCell>
                <mxCell id="oanLbzMRLrO47kRGS5rE-574" value="" style="endArrow=none;html=1;rounded=0;strokeColor=default;entryX=0;entryY=0.75;entryDx=0;entryDy=0;" parent="1" target="oanLbzMRLrO47kRGS5rE-552" edge="1">
                    <mxGeometry width="50" height="50" relative="1" as="geometry">
                        <mxPoint x="1120" y="1900" as="sourcePoint"/>
                        <mxPoint x="1120" y="900" as="targetPoint"/>
                    </mxGeometry>
                </mxCell>
                <mxCell id="oanLbzMRLrO47kRGS5rE-575" value="" style="shape=waypoint;sketch=0;fillStyle=solid;size=6;pointerEvents=1;points=[];fillColor=none;resizable=0;rotatable=0;perimeter=centerPerimeter;snapToPoint=1;" parent="1" vertex="1">
                    <mxGeometry x="1110" y="1770" width="20" height="20" as="geometry"/>
                </mxCell>
                <mxCell id="oanLbzMRLrO47kRGS5rE-576" value="" style="endArrow=none;html=1;rounded=0;strokeColor=default;entryX=0;entryY=0.75;entryDx=0;entryDy=0;" parent="1" edge="1">
                    <mxGeometry width="50" height="50" relative="1" as="geometry">
                        <mxPoint x="1120" y="1780" as="sourcePoint"/>
                        <mxPoint x="1200" y="1780" as="targetPoint"/>
                    </mxGeometry>
                </mxCell>
                <mxCell id="oanLbzMRLrO47kRGS5rE-577" value="" style="shape=waypoint;sketch=0;fillStyle=solid;size=6;pointerEvents=1;points=[];fillColor=none;resizable=0;rotatable=0;perimeter=centerPerimeter;snapToPoint=1;" parent="1" vertex="1">
                    <mxGeometry x="1110" y="1650" width="20" height="20" as="geometry"/>
                </mxCell>
                <mxCell id="oanLbzMRLrO47kRGS5rE-578" value="" style="endArrow=none;html=1;rounded=0;strokeColor=default;entryX=0;entryY=0.75;entryDx=0;entryDy=0;" parent="1" edge="1">
                    <mxGeometry width="50" height="50" relative="1" as="geometry">
                        <mxPoint x="1120" y="1660" as="sourcePoint"/>
                        <mxPoint x="1200" y="1660" as="targetPoint"/>
                    </mxGeometry>
                </mxCell>
                <mxCell id="oanLbzMRLrO47kRGS5rE-579" style="edgeStyle=none;html=1;exitX=1;exitY=0.5;exitDx=0;exitDy=0;entryX=0;entryY=0.25;entryDx=0;entryDy=0;strokeColor=default;rounded=0;" parent="1" source="oanLbzMRLrO47kRGS5rE-560" target="oanLbzMRLrO47kRGS5rE-565" edge="1">
                    <mxGeometry relative="1" as="geometry">
                        <Array as="points">
                            <mxPoint x="1560" y="1700"/>
                            <mxPoint x="1560" y="1800"/>
                        </Array>
                    </mxGeometry>
                </mxCell>
                <mxCell id="oanLbzMRLrO47kRGS5rE-580" style="edgeStyle=none;html=1;exitX=1;exitY=0.5;exitDx=0;exitDy=0;entryX=0;entryY=0.75;entryDx=0;entryDy=0;rounded=0;" parent="1" source="oanLbzMRLrO47kRGS5rE-563" target="oanLbzMRLrO47kRGS5rE-565" edge="1">
                    <mxGeometry relative="1" as="geometry">
                        <Array as="points">
                            <mxPoint x="1560" y="1940"/>
                            <mxPoint x="1560" y="1840"/>
                        </Array>
                    </mxGeometry>
                </mxCell>
                <mxCell id="oanLbzMRLrO47kRGS5rE-581" style="edgeStyle=none;rounded=0;html=1;exitX=1;exitY=0.5;exitDx=0;exitDy=0;strokeColor=default;entryX=0;entryY=0.75;entryDx=0;entryDy=0;" parent="1" source="oanLbzMRLrO47kRGS5rE-565" target="oanLbzMRLrO47kRGS5rE-628" edge="1">
                    <mxGeometry relative="1" as="geometry">
                        <mxPoint x="1700" y="1820" as="targetPoint"/>
                        <Array as="points">
                            <mxPoint x="1680" y="1820"/>
                            <mxPoint x="1680" y="1600"/>
                        </Array>
                    </mxGeometry>
                </mxCell>
                <mxCell id="oanLbzMRLrO47kRGS5rE-582" value="MUL" style="rounded=0;whiteSpace=wrap;html=1;fontSize=11;" parent="1" vertex="1">
                    <mxGeometry x="1200" y="1120" width="80" height="80" as="geometry"/>
                </mxCell>
                <mxCell id="oanLbzMRLrO47kRGS5rE-583" value="ADD" style="rounded=0;whiteSpace=wrap;html=1;fontSize=11;" parent="1" vertex="1">
                    <mxGeometry x="1320" y="1120" width="80" height="80" as="geometry"/>
                </mxCell>
                <mxCell id="oanLbzMRLrO47kRGS5rE-584" style="edgeStyle=none;rounded=0;html=1;exitX=1;exitY=0.5;exitDx=0;exitDy=0;entryX=0;entryY=0.5;entryDx=0;entryDy=0;fontSize=11;" parent="1" source="oanLbzMRLrO47kRGS5rE-582" target="oanLbzMRLrO47kRGS5rE-583" edge="1">
                    <mxGeometry relative="1" as="geometry"/>
                </mxCell>
                <mxCell id="oanLbzMRLrO47kRGS5rE-585" style="edgeStyle=none;rounded=0;html=1;exitX=1;exitY=0.5;exitDx=0;exitDy=0;entryX=0.5;entryY=0;entryDx=0;entryDy=0;fontSize=11;" parent="1" source="oanLbzMRLrO47kRGS5rE-583" target="oanLbzMRLrO47kRGS5rE-583" edge="1">
                    <mxGeometry relative="1" as="geometry">
                        <Array as="points">
                            <mxPoint x="1420" y="1160"/>
                            <mxPoint x="1420" y="1100"/>
                            <mxPoint x="1360" y="1100"/>
                        </Array>
                    </mxGeometry>
                </mxCell>
                <mxCell id="oanLbzMRLrO47kRGS5rE-586" value="MUL" style="rounded=0;whiteSpace=wrap;html=1;fontSize=11;" parent="1" vertex="1">
                    <mxGeometry x="1200" y="1240" width="80" height="80" as="geometry"/>
                </mxCell>
                <mxCell id="oanLbzMRLrO47kRGS5rE-587" value="ADD" style="rounded=0;whiteSpace=wrap;html=1;fontSize=11;" parent="1" vertex="1">
                    <mxGeometry x="1320" y="1240" width="80" height="80" as="geometry"/>
                </mxCell>
                <mxCell id="oanLbzMRLrO47kRGS5rE-588" style="edgeStyle=none;rounded=0;html=1;exitX=1;exitY=0.5;exitDx=0;exitDy=0;entryX=0;entryY=0.5;entryDx=0;entryDy=0;fontSize=11;" parent="1" source="oanLbzMRLrO47kRGS5rE-586" target="oanLbzMRLrO47kRGS5rE-587" edge="1">
                    <mxGeometry relative="1" as="geometry"/>
                </mxCell>
                <mxCell id="oanLbzMRLrO47kRGS5rE-589" style="edgeStyle=none;rounded=0;html=1;exitX=1;exitY=0.5;exitDx=0;exitDy=0;entryX=0.5;entryY=0;entryDx=0;entryDy=0;fontSize=11;" parent="1" source="oanLbzMRLrO47kRGS5rE-587" target="oanLbzMRLrO47kRGS5rE-587" edge="1">
                    <mxGeometry relative="1" as="geometry">
                        <Array as="points">
                            <mxPoint x="1420" y="1280"/>
                            <mxPoint x="1420" y="1220"/>
                            <mxPoint x="1360" y="1220"/>
                        </Array>
                    </mxGeometry>
                </mxCell>
                <mxCell id="oanLbzMRLrO47kRGS5rE-590" value="MUL" style="rounded=0;whiteSpace=wrap;html=1;fontSize=11;" parent="1" vertex="1">
                    <mxGeometry x="1200" y="1360" width="80" height="80" as="geometry"/>
                </mxCell>
                <mxCell id="oanLbzMRLrO47kRGS5rE-591" value="ADD" style="rounded=0;whiteSpace=wrap;html=1;fontSize=11;" parent="1" vertex="1">
                    <mxGeometry x="1320" y="1360" width="80" height="80" as="geometry"/>
                </mxCell>
                <mxCell id="oanLbzMRLrO47kRGS5rE-592" style="edgeStyle=none;rounded=0;html=1;exitX=1;exitY=0.5;exitDx=0;exitDy=0;entryX=0;entryY=0.5;entryDx=0;entryDy=0;fontSize=11;" parent="1" source="oanLbzMRLrO47kRGS5rE-590" target="oanLbzMRLrO47kRGS5rE-591" edge="1">
                    <mxGeometry relative="1" as="geometry"/>
                </mxCell>
                <mxCell id="oanLbzMRLrO47kRGS5rE-593" style="edgeStyle=none;rounded=0;html=1;exitX=1;exitY=0.5;exitDx=0;exitDy=0;entryX=0.5;entryY=0;entryDx=0;entryDy=0;fontSize=11;" parent="1" source="oanLbzMRLrO47kRGS5rE-591" target="oanLbzMRLrO47kRGS5rE-591" edge="1">
                    <mxGeometry relative="1" as="geometry">
                        <Array as="points">
                            <mxPoint x="1420" y="1400"/>
                            <mxPoint x="1420" y="1340"/>
                            <mxPoint x="1360" y="1340"/>
                        </Array>
                    </mxGeometry>
                </mxCell>
                <mxCell id="oanLbzMRLrO47kRGS5rE-594" value="MUL" style="rounded=0;whiteSpace=wrap;html=1;fontSize=11;" parent="1" vertex="1">
                    <mxGeometry x="1200" y="1480" width="80" height="80" as="geometry"/>
                </mxCell>
                <mxCell id="oanLbzMRLrO47kRGS5rE-595" value="ADD" style="rounded=0;whiteSpace=wrap;html=1;fontSize=11;" parent="1" vertex="1">
                    <mxGeometry x="1320" y="1480" width="80" height="80" as="geometry"/>
                </mxCell>
                <mxCell id="oanLbzMRLrO47kRGS5rE-596" style="edgeStyle=none;rounded=0;html=1;exitX=1;exitY=0.5;exitDx=0;exitDy=0;entryX=0;entryY=0.5;entryDx=0;entryDy=0;fontSize=11;" parent="1" source="oanLbzMRLrO47kRGS5rE-594" target="oanLbzMRLrO47kRGS5rE-595" edge="1">
                    <mxGeometry relative="1" as="geometry"/>
                </mxCell>
                <mxCell id="oanLbzMRLrO47kRGS5rE-597" style="edgeStyle=none;rounded=0;html=1;exitX=1;exitY=0.5;exitDx=0;exitDy=0;entryX=0.5;entryY=0;entryDx=0;entryDy=0;fontSize=11;" parent="1" source="oanLbzMRLrO47kRGS5rE-595" target="oanLbzMRLrO47kRGS5rE-595" edge="1">
                    <mxGeometry relative="1" as="geometry">
                        <Array as="points">
                            <mxPoint x="1420" y="1520"/>
                            <mxPoint x="1420" y="1460"/>
                            <mxPoint x="1360" y="1460"/>
                        </Array>
                    </mxGeometry>
                </mxCell>
                <mxCell id="oanLbzMRLrO47kRGS5rE-598" value="ADD" style="rounded=0;whiteSpace=wrap;html=1;fontSize=11;" parent="1" vertex="1">
                    <mxGeometry x="1460" y="1180" width="80" height="80" as="geometry"/>
                </mxCell>
                <mxCell id="oanLbzMRLrO47kRGS5rE-599" style="edgeStyle=none;rounded=0;html=1;exitX=1;exitY=0.5;exitDx=0;exitDy=0;fontSize=11;entryX=0;entryY=0.25;entryDx=0;entryDy=0;" parent="1" source="oanLbzMRLrO47kRGS5rE-583" target="oanLbzMRLrO47kRGS5rE-598" edge="1">
                    <mxGeometry relative="1" as="geometry">
                        <mxPoint x="1440" y="1220" as="targetPoint"/>
                        <Array as="points">
                            <mxPoint x="1440" y="1160"/>
                            <mxPoint x="1440" y="1200"/>
                        </Array>
                    </mxGeometry>
                </mxCell>
                <mxCell id="oanLbzMRLrO47kRGS5rE-600" style="edgeStyle=none;rounded=0;html=1;exitX=1;exitY=0.5;exitDx=0;exitDy=0;fontSize=11;entryX=0;entryY=0.75;entryDx=0;entryDy=0;" parent="1" source="oanLbzMRLrO47kRGS5rE-587" target="oanLbzMRLrO47kRGS5rE-598" edge="1">
                    <mxGeometry relative="1" as="geometry">
                        <mxPoint x="1460" y="1280" as="targetPoint"/>
                        <Array as="points">
                            <mxPoint x="1440" y="1280"/>
                            <mxPoint x="1440" y="1240"/>
                        </Array>
                    </mxGeometry>
                </mxCell>
                <mxCell id="oanLbzMRLrO47kRGS5rE-601" value="ADD" style="rounded=0;whiteSpace=wrap;html=1;fontSize=11;" parent="1" vertex="1">
                    <mxGeometry x="1460" y="1420" width="80" height="80" as="geometry"/>
                </mxCell>
                <mxCell id="oanLbzMRLrO47kRGS5rE-602" style="edgeStyle=none;rounded=0;html=1;exitX=1;exitY=0.5;exitDx=0;exitDy=0;fontSize=11;entryX=0;entryY=0.25;entryDx=0;entryDy=0;" parent="1" source="oanLbzMRLrO47kRGS5rE-591" target="oanLbzMRLrO47kRGS5rE-601" edge="1">
                    <mxGeometry relative="1" as="geometry">
                        <mxPoint x="1460" y="1400.2" as="targetPoint"/>
                        <Array as="points">
                            <mxPoint x="1440" y="1400"/>
                            <mxPoint x="1440" y="1440"/>
                        </Array>
                    </mxGeometry>
                </mxCell>
                <mxCell id="oanLbzMRLrO47kRGS5rE-603" value="ADD" style="rounded=0;whiteSpace=wrap;html=1;fontSize=11;" parent="1" vertex="1">
                    <mxGeometry x="1580" y="1300" width="80" height="80" as="geometry"/>
                </mxCell>
                <mxCell id="oanLbzMRLrO47kRGS5rE-604" style="edgeStyle=none;rounded=0;html=1;exitX=1;exitY=0.5;exitDx=0;exitDy=0;fontSize=11;entryX=0;entryY=0.75;entryDx=0;entryDy=0;" parent="1" source="oanLbzMRLrO47kRGS5rE-595" target="oanLbzMRLrO47kRGS5rE-601" edge="1">
                    <mxGeometry relative="1" as="geometry">
                        <mxPoint x="1460" y="1520.2" as="targetPoint"/>
                        <Array as="points">
                            <mxPoint x="1440" y="1520"/>
                            <mxPoint x="1440" y="1480"/>
                        </Array>
                    </mxGeometry>
                </mxCell>
                <mxCell id="oanLbzMRLrO47kRGS5rE-605" value="" style="shape=waypoint;sketch=0;fillStyle=solid;size=6;pointerEvents=1;points=[];fillColor=none;resizable=0;rotatable=0;perimeter=centerPerimeter;snapToPoint=1;" parent="1" vertex="1">
                    <mxGeometry x="1150" y="1130" width="20" height="20" as="geometry"/>
                </mxCell>
                <mxCell id="oanLbzMRLrO47kRGS5rE-606" value="" style="endArrow=none;html=1;rounded=0;strokeColor=default;entryX=0.319;entryY=0.712;entryDx=0;entryDy=0;entryPerimeter=0;exitX=1;exitY=0.5;exitDx=0;exitDy=0;" parent="1" source="oanLbzMRLrO47kRGS5rE-619" edge="1">
                    <mxGeometry width="50" height="50" relative="1" as="geometry">
                        <mxPoint x="1080" y="1080" as="sourcePoint"/>
                        <mxPoint x="1160" y="1500" as="targetPoint"/>
                        <Array as="points">
                            <mxPoint x="1160" y="1080"/>
                        </Array>
                    </mxGeometry>
                </mxCell>
                <mxCell id="oanLbzMRLrO47kRGS5rE-607" value="" style="endArrow=none;html=1;rounded=0;strokeColor=default;entryX=0;entryY=0.25;entryDx=0;entryDy=0;" parent="1" target="oanLbzMRLrO47kRGS5rE-582" edge="1">
                    <mxGeometry width="50" height="50" relative="1" as="geometry">
                        <mxPoint x="1160" y="1140" as="sourcePoint"/>
                        <mxPoint x="1210" y="1090" as="targetPoint"/>
                    </mxGeometry>
                </mxCell>
                <mxCell id="oanLbzMRLrO47kRGS5rE-608" value="" style="shape=waypoint;sketch=0;fillStyle=solid;size=6;pointerEvents=1;points=[];fillColor=none;resizable=0;rotatable=0;perimeter=centerPerimeter;snapToPoint=1;" parent="1" vertex="1">
                    <mxGeometry x="1150" y="1250" width="20" height="20" as="geometry"/>
                </mxCell>
                <mxCell id="oanLbzMRLrO47kRGS5rE-609" value="" style="endArrow=none;html=1;rounded=0;strokeColor=default;entryX=0;entryY=0.25;entryDx=0;entryDy=0;" parent="1" edge="1">
                    <mxGeometry width="50" height="50" relative="1" as="geometry">
                        <mxPoint x="1160" y="1260" as="sourcePoint"/>
                        <mxPoint x="1200" y="1260" as="targetPoint"/>
                    </mxGeometry>
                </mxCell>
                <mxCell id="oanLbzMRLrO47kRGS5rE-610" value="" style="shape=waypoint;sketch=0;fillStyle=solid;size=6;pointerEvents=1;points=[];fillColor=none;resizable=0;rotatable=0;perimeter=centerPerimeter;snapToPoint=1;" parent="1" vertex="1">
                    <mxGeometry x="1150" y="1370" width="20" height="20" as="geometry"/>
                </mxCell>
                <mxCell id="oanLbzMRLrO47kRGS5rE-611" value="" style="endArrow=none;html=1;rounded=0;strokeColor=default;entryX=0;entryY=0.25;entryDx=0;entryDy=0;" parent="1" edge="1">
                    <mxGeometry width="50" height="50" relative="1" as="geometry">
                        <mxPoint x="1160" y="1380" as="sourcePoint"/>
                        <mxPoint x="1200" y="1380" as="targetPoint"/>
                    </mxGeometry>
                </mxCell>
                <mxCell id="oanLbzMRLrO47kRGS5rE-612" value="" style="endArrow=none;html=1;rounded=0;strokeColor=default;" parent="1" edge="1">
                    <mxGeometry width="50" height="50" relative="1" as="geometry">
                        <mxPoint x="1160" y="1500" as="sourcePoint"/>
                        <mxPoint x="1160" y="1980" as="targetPoint"/>
                    </mxGeometry>
                </mxCell>
                <mxCell id="oanLbzMRLrO47kRGS5rE-613" value="" style="shape=waypoint;sketch=0;fillStyle=solid;size=6;pointerEvents=1;points=[];fillColor=none;resizable=0;rotatable=0;perimeter=centerPerimeter;snapToPoint=1;" parent="1" vertex="1">
                    <mxGeometry x="1110" y="1410" width="20" height="20" as="geometry"/>
                </mxCell>
                <mxCell id="oanLbzMRLrO47kRGS5rE-614" value="" style="endArrow=none;html=1;rounded=0;strokeColor=default;entryX=0;entryY=0.75;entryDx=0;entryDy=0;" parent="1" target="oanLbzMRLrO47kRGS5rE-590" edge="1">
                    <mxGeometry width="50" height="50" relative="1" as="geometry">
                        <mxPoint x="1120" y="1420" as="sourcePoint"/>
                        <mxPoint x="1160" y="1420" as="targetPoint"/>
                    </mxGeometry>
                </mxCell>
                <mxCell id="oanLbzMRLrO47kRGS5rE-615" value="" style="shape=waypoint;sketch=0;fillStyle=solid;size=6;pointerEvents=1;points=[];fillColor=none;resizable=0;rotatable=0;perimeter=centerPerimeter;snapToPoint=1;" parent="1" vertex="1">
                    <mxGeometry x="1110" y="1290" width="20" height="20" as="geometry"/>
                </mxCell>
                <mxCell id="oanLbzMRLrO47kRGS5rE-616" value="" style="endArrow=none;html=1;rounded=0;strokeColor=default;entryX=0;entryY=0.75;entryDx=0;entryDy=0;" parent="1" edge="1">
                    <mxGeometry width="50" height="50" relative="1" as="geometry">
                        <mxPoint x="1120" y="1300" as="sourcePoint"/>
                        <mxPoint x="1200" y="1300" as="targetPoint"/>
                    </mxGeometry>
                </mxCell>
                <mxCell id="oanLbzMRLrO47kRGS5rE-617" value="" style="shape=waypoint;sketch=0;fillStyle=solid;size=6;pointerEvents=1;points=[];fillColor=none;resizable=0;rotatable=0;perimeter=centerPerimeter;snapToPoint=1;" parent="1" vertex="1">
                    <mxGeometry x="1110" y="1170" width="20" height="20" as="geometry"/>
                </mxCell>
                <mxCell id="oanLbzMRLrO47kRGS5rE-618" value="" style="endArrow=none;html=1;rounded=0;strokeColor=default;entryX=0;entryY=0.75;entryDx=0;entryDy=0;" parent="1" edge="1">
                    <mxGeometry width="50" height="50" relative="1" as="geometry">
                        <mxPoint x="1120" y="1180" as="sourcePoint"/>
                        <mxPoint x="1200" y="1180" as="targetPoint"/>
                    </mxGeometry>
                </mxCell>
                <mxCell id="oanLbzMRLrO47kRGS5rE-619" value="A" style="text;html=1;strokeColor=none;fillColor=none;align=center;verticalAlign=middle;whiteSpace=wrap;rounded=0;" parent="1" vertex="1">
                    <mxGeometry x="1040" y="1070" width="20" height="20" as="geometry"/>
                </mxCell>
                <mxCell id="oanLbzMRLrO47kRGS5rE-633" style="edgeStyle=none;rounded=0;html=1;exitX=1;exitY=0.5;exitDx=0;exitDy=0;endArrow=none;endFill=0;" parent="1" source="oanLbzMRLrO47kRGS5rE-620" edge="1">
                    <mxGeometry relative="1" as="geometry">
                        <mxPoint x="1200" y="2020" as="targetPoint"/>
                        <Array as="points">
                            <mxPoint x="1120" y="1040"/>
                            <mxPoint x="1120" y="2020"/>
                        </Array>
                    </mxGeometry>
                </mxCell>
                <mxCell id="oanLbzMRLrO47kRGS5rE-620" value="B" style="text;html=1;strokeColor=none;fillColor=none;align=center;verticalAlign=middle;whiteSpace=wrap;rounded=0;" parent="1" vertex="1">
                    <mxGeometry x="1040" y="1030" width="20" height="20" as="geometry"/>
                </mxCell>
                <mxCell id="oanLbzMRLrO47kRGS5rE-621" style="edgeStyle=none;html=1;exitX=1;exitY=0.5;exitDx=0;exitDy=0;entryX=0;entryY=0.25;entryDx=0;entryDy=0;strokeColor=default;rounded=0;" parent="1" source="oanLbzMRLrO47kRGS5rE-598" target="oanLbzMRLrO47kRGS5rE-603" edge="1">
                    <mxGeometry relative="1" as="geometry">
                        <Array as="points">
                            <mxPoint x="1560" y="1220"/>
                            <mxPoint x="1560" y="1320"/>
                        </Array>
                    </mxGeometry>
                </mxCell>
                <mxCell id="oanLbzMRLrO47kRGS5rE-622" style="edgeStyle=none;html=1;exitX=1;exitY=0.5;exitDx=0;exitDy=0;entryX=0;entryY=0.75;entryDx=0;entryDy=0;rounded=0;" parent="1" source="oanLbzMRLrO47kRGS5rE-601" target="oanLbzMRLrO47kRGS5rE-603" edge="1">
                    <mxGeometry relative="1" as="geometry">
                        <Array as="points">
                            <mxPoint x="1560" y="1460"/>
                            <mxPoint x="1560" y="1360"/>
                        </Array>
                    </mxGeometry>
                </mxCell>
                <mxCell id="oanLbzMRLrO47kRGS5rE-623" style="edgeStyle=none;rounded=0;html=1;exitX=1;exitY=0.5;exitDx=0;exitDy=0;strokeColor=default;entryX=0;entryY=0.25;entryDx=0;entryDy=0;" parent="1" source="oanLbzMRLrO47kRGS5rE-603" target="oanLbzMRLrO47kRGS5rE-628" edge="1">
                    <mxGeometry relative="1" as="geometry">
                        <mxPoint x="1700" y="1340" as="targetPoint"/>
                        <Array as="points">
                            <mxPoint x="1680" y="1340"/>
                            <mxPoint x="1680" y="1560"/>
                        </Array>
                    </mxGeometry>
                </mxCell>
                <mxCell id="oanLbzMRLrO47kRGS5rE-624" value="" style="shape=waypoint;sketch=0;fillStyle=solid;size=6;pointerEvents=1;points=[];fillColor=none;resizable=0;rotatable=0;perimeter=centerPerimeter;snapToPoint=1;" parent="1" vertex="1">
                    <mxGeometry x="1150" y="1490" width="20" height="20" as="geometry"/>
                </mxCell>
                <mxCell id="oanLbzMRLrO47kRGS5rE-625" value="" style="endArrow=none;html=1;rounded=0;strokeColor=default;entryX=0;entryY=0.25;entryDx=0;entryDy=0;" parent="1" edge="1">
                    <mxGeometry width="50" height="50" relative="1" as="geometry">
                        <mxPoint x="1160" y="1500" as="sourcePoint"/>
                        <mxPoint x="1200" y="1500" as="targetPoint"/>
                    </mxGeometry>
                </mxCell>
                <mxCell id="oanLbzMRLrO47kRGS5rE-626" value="" style="shape=waypoint;sketch=0;fillStyle=solid;size=6;pointerEvents=1;points=[];fillColor=none;resizable=0;rotatable=0;perimeter=centerPerimeter;snapToPoint=1;" parent="1" vertex="1">
                    <mxGeometry x="1110" y="1530" width="20" height="20" as="geometry"/>
                </mxCell>
                <mxCell id="oanLbzMRLrO47kRGS5rE-627" value="" style="endArrow=none;html=1;rounded=0;strokeColor=default;entryX=0;entryY=0.75;entryDx=0;entryDy=0;" parent="1" edge="1">
                    <mxGeometry width="50" height="50" relative="1" as="geometry">
                        <mxPoint x="1120" y="1540" as="sourcePoint"/>
                        <mxPoint x="1200" y="1540" as="targetPoint"/>
                    </mxGeometry>
                </mxCell>
                <mxCell id="oanLbzMRLrO47kRGS5rE-628" value="ADD" style="rounded=0;whiteSpace=wrap;html=1;fontSize=11;" parent="1" vertex="1">
                    <mxGeometry x="1700" y="1540" width="80" height="80" as="geometry"/>
                </mxCell>
                <mxCell id="oanLbzMRLrO47kRGS5rE-629" value="" style="shape=waypoint;sketch=0;fillStyle=solid;size=6;pointerEvents=1;points=[];fillColor=none;resizable=0;rotatable=0;perimeter=centerPerimeter;snapToPoint=1;" parent="1" vertex="1">
                    <mxGeometry x="1150" y="1970" width="20" height="20" as="geometry"/>
                </mxCell>
                <mxCell id="oanLbzMRLrO47kRGS5rE-630" value="" style="endArrow=none;html=1;rounded=0;strokeColor=default;entryX=0;entryY=0.25;entryDx=0;entryDy=0;" parent="1" edge="1">
                    <mxGeometry width="50" height="50" relative="1" as="geometry">
                        <mxPoint x="1160" y="1980" as="sourcePoint"/>
                        <mxPoint x="1200" y="1980" as="targetPoint"/>
                    </mxGeometry>
                </mxCell>
                <mxCell id="oanLbzMRLrO47kRGS5rE-631" value="" style="shape=waypoint;sketch=0;fillStyle=solid;size=6;pointerEvents=1;points=[];fillColor=none;resizable=0;rotatable=0;perimeter=centerPerimeter;snapToPoint=1;" parent="1" vertex="1">
                    <mxGeometry x="1110" y="2010" width="20" height="20" as="geometry"/>
                </mxCell>
                <mxCell id="oanLbzMRLrO47kRGS5rE-634" value="0" style="text;html=1;strokeColor=none;fillColor=none;align=center;verticalAlign=middle;whiteSpace=wrap;rounded=0;" parent="1" vertex="1">
                    <mxGeometry x="1440" y="1180" width="20" height="20" as="geometry"/>
                </mxCell>
                <mxCell id="oanLbzMRLrO47kRGS5rE-635" value="1" style="text;html=1;strokeColor=none;fillColor=none;align=center;verticalAlign=middle;whiteSpace=wrap;rounded=0;" parent="1" vertex="1">
                    <mxGeometry x="1440" y="1220" width="20" height="20" as="geometry"/>
                </mxCell>
                <mxCell id="oanLbzMRLrO47kRGS5rE-636" value="2" style="text;html=1;strokeColor=none;fillColor=none;align=center;verticalAlign=middle;whiteSpace=wrap;rounded=0;" parent="1" vertex="1">
                    <mxGeometry x="1440" y="1420" width="20" height="20" as="geometry"/>
                </mxCell>
                <mxCell id="oanLbzMRLrO47kRGS5rE-637" value="3" style="text;html=1;strokeColor=none;fillColor=none;align=center;verticalAlign=middle;whiteSpace=wrap;rounded=0;" parent="1" vertex="1">
                    <mxGeometry x="1440" y="1460" width="20" height="20" as="geometry"/>
                </mxCell>
                <mxCell id="oanLbzMRLrO47kRGS5rE-638" value="4" style="text;html=1;strokeColor=none;fillColor=none;align=center;verticalAlign=middle;whiteSpace=wrap;rounded=0;" parent="1" vertex="1">
                    <mxGeometry x="1440" y="1660" width="20" height="20" as="geometry"/>
                </mxCell>
                <mxCell id="oanLbzMRLrO47kRGS5rE-639" value="5" style="text;html=1;strokeColor=none;fillColor=none;align=center;verticalAlign=middle;whiteSpace=wrap;rounded=0;" parent="1" vertex="1">
                    <mxGeometry x="1440" y="1700" width="20" height="20" as="geometry"/>
                </mxCell>
                <mxCell id="oanLbzMRLrO47kRGS5rE-640" value="6" style="text;html=1;strokeColor=none;fillColor=none;align=center;verticalAlign=middle;whiteSpace=wrap;rounded=0;" parent="1" vertex="1">
                    <mxGeometry x="1440" y="1900" width="20" height="20" as="geometry"/>
                </mxCell>
                <mxCell id="oanLbzMRLrO47kRGS5rE-641" value="7" style="text;html=1;strokeColor=none;fillColor=none;align=center;verticalAlign=middle;whiteSpace=wrap;rounded=0;" parent="1" vertex="1">
                    <mxGeometry x="1440" y="1940" width="20" height="20" as="geometry"/>
                </mxCell>
                <mxCell id="oanLbzMRLrO47kRGS5rE-642" value="8" style="text;html=1;strokeColor=none;fillColor=none;align=center;verticalAlign=middle;whiteSpace=wrap;rounded=0;" parent="1" vertex="1">
                    <mxGeometry x="1560" y="1300" width="20" height="20" as="geometry"/>
                </mxCell>
                <mxCell id="oanLbzMRLrO47kRGS5rE-643" value="9" style="text;html=1;strokeColor=none;fillColor=none;align=center;verticalAlign=middle;whiteSpace=wrap;rounded=0;" parent="1" vertex="1">
                    <mxGeometry x="1560" y="1340" width="20" height="20" as="geometry"/>
                </mxCell>
                <mxCell id="oanLbzMRLrO47kRGS5rE-644" value="10" style="text;html=1;strokeColor=none;fillColor=none;align=center;verticalAlign=middle;whiteSpace=wrap;rounded=0;" parent="1" vertex="1">
                    <mxGeometry x="1560" y="1780" width="20" height="20" as="geometry"/>
                </mxCell>
                <mxCell id="oanLbzMRLrO47kRGS5rE-645" value="11" style="text;html=1;strokeColor=none;fillColor=none;align=center;verticalAlign=middle;whiteSpace=wrap;rounded=0;" parent="1" vertex="1">
                    <mxGeometry x="1560" y="1820" width="20" height="20" as="geometry"/>
                </mxCell>
                <mxCell id="oanLbzMRLrO47kRGS5rE-646" value="13" style="text;html=1;strokeColor=none;fillColor=none;align=center;verticalAlign=middle;whiteSpace=wrap;rounded=0;" parent="1" vertex="1">
                    <mxGeometry x="1680" y="1580" width="20" height="20" as="geometry"/>
                </mxCell>
                <mxCell id="oanLbzMRLrO47kRGS5rE-647" value="12" style="text;html=1;strokeColor=none;fillColor=none;align=center;verticalAlign=middle;whiteSpace=wrap;rounded=0;" parent="1" vertex="1">
                    <mxGeometry x="1680" y="1540" width="20" height="20" as="geometry"/>
                </mxCell>
                <mxCell id="oanLbzMRLrO47kRGS5rE-648" value="8" style="text;html=1;strokeColor=none;fillColor=none;align=center;verticalAlign=middle;whiteSpace=wrap;rounded=0;" parent="1" vertex="1">
                    <mxGeometry x="1540" y="1200" width="20" height="20" as="geometry"/>
                </mxCell>
                <mxCell id="oanLbzMRLrO47kRGS5rE-649" value="9" style="text;html=1;strokeColor=none;fillColor=none;align=center;verticalAlign=middle;whiteSpace=wrap;rounded=0;" parent="1" vertex="1">
                    <mxGeometry x="1540" y="1440" width="20" height="20" as="geometry"/>
                </mxCell>
                <mxCell id="oanLbzMRLrO47kRGS5rE-650" value="10" style="text;html=1;strokeColor=none;fillColor=none;align=center;verticalAlign=middle;whiteSpace=wrap;rounded=0;" parent="1" vertex="1">
                    <mxGeometry x="1540" y="1680" width="20" height="20" as="geometry"/>
                </mxCell>
                <mxCell id="oanLbzMRLrO47kRGS5rE-651" value="11" style="text;html=1;strokeColor=none;fillColor=none;align=center;verticalAlign=middle;whiteSpace=wrap;rounded=0;" parent="1" vertex="1">
                    <mxGeometry x="1540" y="1920" width="20" height="20" as="geometry"/>
                </mxCell>
                <mxCell id="oanLbzMRLrO47kRGS5rE-652" value="13" style="text;html=1;strokeColor=none;fillColor=none;align=center;verticalAlign=middle;whiteSpace=wrap;rounded=0;" parent="1" vertex="1">
                    <mxGeometry x="1660" y="1800" width="20" height="20" as="geometry"/>
                </mxCell>
                <mxCell id="oanLbzMRLrO47kRGS5rE-653" value="12" style="text;html=1;strokeColor=none;fillColor=none;align=center;verticalAlign=middle;whiteSpace=wrap;rounded=0;" parent="1" vertex="1">
                    <mxGeometry x="1660" y="1320" width="20" height="20" as="geometry"/>
                </mxCell>
                <mxCell id="oanLbzMRLrO47kRGS5rE-654" value="14" style="text;html=1;strokeColor=none;fillColor=none;align=center;verticalAlign=middle;whiteSpace=wrap;rounded=0;" parent="1" vertex="1">
                    <mxGeometry x="1800" y="1570" width="20" height="20" as="geometry"/>
                </mxCell>
                <mxCell id="Ymgi8AtLxsKTSbRszZ6a-6" value="MUL" style="rounded=0;whiteSpace=wrap;html=1;fontSize=11;" parent="1" vertex="1">
                    <mxGeometry x="200" y="440" width="80" height="80" as="geometry"/>
                </mxCell>
                <mxCell id="Ymgi8AtLxsKTSbRszZ6a-8" value="ADD" style="rounded=0;whiteSpace=wrap;html=1;fontSize=11;" parent="1" vertex="1">
                    <mxGeometry x="320" y="440" width="80" height="80" as="geometry"/>
                </mxCell>
                <mxCell id="Ymgi8AtLxsKTSbRszZ6a-5" style="edgeStyle=none;rounded=0;html=1;exitX=1;exitY=0.5;exitDx=0;exitDy=0;entryX=0;entryY=0.5;entryDx=0;entryDy=0;fontSize=11;" parent="1" source="Ymgi8AtLxsKTSbRszZ6a-6" target="Ymgi8AtLxsKTSbRszZ6a-8" edge="1">
                    <mxGeometry relative="1" as="geometry"/>
                </mxCell>
                <mxCell id="Ymgi8AtLxsKTSbRszZ6a-9" style="edgeStyle=none;rounded=0;html=1;exitX=1;exitY=0.5;exitDx=0;exitDy=0;entryX=0.5;entryY=0;entryDx=0;entryDy=0;fontSize=11;" parent="1" source="Ymgi8AtLxsKTSbRszZ6a-8" target="Ymgi8AtLxsKTSbRszZ6a-8" edge="1">
                    <mxGeometry relative="1" as="geometry">
                        <Array as="points">
                            <mxPoint x="420" y="480"/>
                            <mxPoint x="420" y="420"/>
                            <mxPoint x="360" y="420"/>
                        </Array>
                    </mxGeometry>
                </mxCell>
                <mxCell id="Ymgi8AtLxsKTSbRszZ6a-12" value="MUL" style="rounded=0;whiteSpace=wrap;html=1;fontSize=11;" parent="1" vertex="1">
                    <mxGeometry x="200" y="560" width="80" height="80" as="geometry"/>
                </mxCell>
                <mxCell id="Ymgi8AtLxsKTSbRszZ6a-14" value="ADD" style="rounded=0;whiteSpace=wrap;html=1;fontSize=11;" parent="1" vertex="1">
                    <mxGeometry x="320" y="560" width="80" height="80" as="geometry"/>
                </mxCell>
                <mxCell id="Ymgi8AtLxsKTSbRszZ6a-11" style="edgeStyle=none;rounded=0;html=1;exitX=1;exitY=0.5;exitDx=0;exitDy=0;entryX=0;entryY=0.5;entryDx=0;entryDy=0;fontSize=11;" parent="1" source="Ymgi8AtLxsKTSbRszZ6a-12" target="Ymgi8AtLxsKTSbRszZ6a-14" edge="1">
                    <mxGeometry relative="1" as="geometry"/>
                </mxCell>
                <mxCell id="Ymgi8AtLxsKTSbRszZ6a-15" style="edgeStyle=none;rounded=0;html=1;exitX=1;exitY=0.5;exitDx=0;exitDy=0;entryX=0.5;entryY=0;entryDx=0;entryDy=0;fontSize=11;" parent="1" source="Ymgi8AtLxsKTSbRszZ6a-14" target="Ymgi8AtLxsKTSbRszZ6a-14" edge="1">
                    <mxGeometry relative="1" as="geometry">
                        <Array as="points">
                            <mxPoint x="420" y="600"/>
                            <mxPoint x="420" y="540"/>
                            <mxPoint x="360" y="540"/>
                        </Array>
                    </mxGeometry>
                </mxCell>
                <mxCell id="Ymgi8AtLxsKTSbRszZ6a-18" value="MUL" style="rounded=0;whiteSpace=wrap;html=1;fontSize=11;" parent="1" vertex="1">
                    <mxGeometry x="200" y="680" width="80" height="80" as="geometry"/>
                </mxCell>
                <mxCell id="Ymgi8AtLxsKTSbRszZ6a-20" value="ADD" style="rounded=0;whiteSpace=wrap;html=1;fontSize=11;" parent="1" vertex="1">
                    <mxGeometry x="320" y="680" width="80" height="80" as="geometry"/>
                </mxCell>
                <mxCell id="Ymgi8AtLxsKTSbRszZ6a-17" style="edgeStyle=none;rounded=0;html=1;exitX=1;exitY=0.5;exitDx=0;exitDy=0;entryX=0;entryY=0.5;entryDx=0;entryDy=0;fontSize=11;" parent="1" source="Ymgi8AtLxsKTSbRszZ6a-18" target="Ymgi8AtLxsKTSbRszZ6a-20" edge="1">
                    <mxGeometry relative="1" as="geometry"/>
                </mxCell>
                <mxCell id="Ymgi8AtLxsKTSbRszZ6a-21" style="edgeStyle=none;rounded=0;html=1;exitX=1;exitY=0.5;exitDx=0;exitDy=0;entryX=0.5;entryY=0;entryDx=0;entryDy=0;fontSize=11;" parent="1" source="Ymgi8AtLxsKTSbRszZ6a-20" target="Ymgi8AtLxsKTSbRszZ6a-20" edge="1">
                    <mxGeometry relative="1" as="geometry">
                        <Array as="points">
                            <mxPoint x="420" y="720"/>
                            <mxPoint x="420" y="660"/>
                            <mxPoint x="360" y="660"/>
                        </Array>
                    </mxGeometry>
                </mxCell>
                <mxCell id="Ymgi8AtLxsKTSbRszZ6a-24" value="MUL" style="rounded=0;whiteSpace=wrap;html=1;fontSize=11;" parent="1" vertex="1">
                    <mxGeometry x="200" y="800" width="80" height="80" as="geometry"/>
                </mxCell>
                <mxCell id="Ymgi8AtLxsKTSbRszZ6a-26" value="ADD" style="rounded=0;whiteSpace=wrap;html=1;fontSize=11;" parent="1" vertex="1">
                    <mxGeometry x="320" y="800" width="80" height="80" as="geometry"/>
                </mxCell>
                <mxCell id="Ymgi8AtLxsKTSbRszZ6a-23" style="edgeStyle=none;rounded=0;html=1;exitX=1;exitY=0.5;exitDx=0;exitDy=0;entryX=0;entryY=0.5;entryDx=0;entryDy=0;fontSize=11;" parent="1" source="Ymgi8AtLxsKTSbRszZ6a-24" target="Ymgi8AtLxsKTSbRszZ6a-26" edge="1">
                    <mxGeometry relative="1" as="geometry"/>
                </mxCell>
                <mxCell id="Ymgi8AtLxsKTSbRszZ6a-27" style="edgeStyle=none;rounded=0;html=1;exitX=1;exitY=0.5;exitDx=0;exitDy=0;entryX=0.5;entryY=0;entryDx=0;entryDy=0;fontSize=11;" parent="1" source="Ymgi8AtLxsKTSbRszZ6a-26" target="Ymgi8AtLxsKTSbRszZ6a-26" edge="1">
                    <mxGeometry relative="1" as="geometry">
                        <Array as="points">
                            <mxPoint x="420" y="840"/>
                            <mxPoint x="420" y="780"/>
                            <mxPoint x="360" y="780"/>
                        </Array>
                    </mxGeometry>
                </mxCell>
                <mxCell id="Ymgi8AtLxsKTSbRszZ6a-29" value="ADD" style="rounded=0;whiteSpace=wrap;html=1;fontSize=11;" parent="1" vertex="1">
                    <mxGeometry x="460" y="500" width="80" height="80" as="geometry"/>
                </mxCell>
                <mxCell id="Ymgi8AtLxsKTSbRszZ6a-7" style="edgeStyle=none;rounded=0;html=1;exitX=1;exitY=0.5;exitDx=0;exitDy=0;fontSize=11;entryX=0;entryY=0.25;entryDx=0;entryDy=0;" parent="1" source="Ymgi8AtLxsKTSbRszZ6a-8" target="Ymgi8AtLxsKTSbRszZ6a-29" edge="1">
                    <mxGeometry relative="1" as="geometry">
                        <mxPoint x="440" y="540" as="targetPoint"/>
                        <Array as="points">
                            <mxPoint x="440" y="480"/>
                            <mxPoint x="440" y="520"/>
                        </Array>
                    </mxGeometry>
                </mxCell>
                <mxCell id="Ymgi8AtLxsKTSbRszZ6a-13" style="edgeStyle=none;rounded=0;html=1;exitX=1;exitY=0.5;exitDx=0;exitDy=0;fontSize=11;entryX=0;entryY=0.75;entryDx=0;entryDy=0;" parent="1" source="Ymgi8AtLxsKTSbRszZ6a-14" target="Ymgi8AtLxsKTSbRszZ6a-29" edge="1">
                    <mxGeometry relative="1" as="geometry">
                        <mxPoint x="460" y="600" as="targetPoint"/>
                        <Array as="points">
                            <mxPoint x="440" y="600"/>
                            <mxPoint x="440" y="560"/>
                        </Array>
                    </mxGeometry>
                </mxCell>
                <mxCell id="Ymgi8AtLxsKTSbRszZ6a-30" value="ADD" style="rounded=0;whiteSpace=wrap;html=1;fontSize=11;" parent="1" vertex="1">
                    <mxGeometry x="460" y="740" width="80" height="80" as="geometry"/>
                </mxCell>
                <mxCell id="Ymgi8AtLxsKTSbRszZ6a-19" style="edgeStyle=none;rounded=0;html=1;exitX=1;exitY=0.5;exitDx=0;exitDy=0;fontSize=11;entryX=0;entryY=0.25;entryDx=0;entryDy=0;" parent="1" source="Ymgi8AtLxsKTSbRszZ6a-20" target="Ymgi8AtLxsKTSbRszZ6a-30" edge="1">
                    <mxGeometry relative="1" as="geometry">
                        <mxPoint x="460" y="720.2" as="targetPoint"/>
                        <Array as="points">
                            <mxPoint x="440" y="720"/>
                            <mxPoint x="440" y="760"/>
                        </Array>
                    </mxGeometry>
                </mxCell>
                <mxCell id="Ymgi8AtLxsKTSbRszZ6a-31" value="ADD" style="rounded=0;whiteSpace=wrap;html=1;fontSize=11;" parent="1" vertex="1">
                    <mxGeometry x="580" y="620" width="80" height="80" as="geometry"/>
                </mxCell>
                <mxCell id="Ymgi8AtLxsKTSbRszZ6a-25" style="edgeStyle=none;rounded=0;html=1;exitX=1;exitY=0.5;exitDx=0;exitDy=0;fontSize=11;entryX=0;entryY=0.75;entryDx=0;entryDy=0;" parent="1" source="Ymgi8AtLxsKTSbRszZ6a-26" target="Ymgi8AtLxsKTSbRszZ6a-30" edge="1">
                    <mxGeometry relative="1" as="geometry">
                        <mxPoint x="460" y="840.2" as="targetPoint"/>
                        <Array as="points">
                            <mxPoint x="440" y="840"/>
                            <mxPoint x="440" y="800"/>
                        </Array>
                    </mxGeometry>
                </mxCell>
                <mxCell id="Ymgi8AtLxsKTSbRszZ6a-41" value="" style="shape=waypoint;sketch=0;fillStyle=solid;size=6;pointerEvents=1;points=[];fillColor=none;resizable=0;rotatable=0;perimeter=centerPerimeter;snapToPoint=1;" parent="1" vertex="1">
                    <mxGeometry x="150" y="450" width="20" height="20" as="geometry"/>
                </mxCell>
                <mxCell id="Ymgi8AtLxsKTSbRszZ6a-43" value="" style="endArrow=none;html=1;rounded=0;strokeColor=default;entryX=0.319;entryY=0.712;entryDx=0;entryDy=0;entryPerimeter=0;exitX=1;exitY=0.5;exitDx=0;exitDy=0;" parent="1" source="Ymgi8AtLxsKTSbRszZ6a-64" edge="1">
                    <mxGeometry width="50" height="50" relative="1" as="geometry">
                        <mxPoint x="80" y="400" as="sourcePoint"/>
                        <mxPoint x="160" y="820" as="targetPoint"/>
                        <Array as="points">
                            <mxPoint x="160" y="400"/>
                        </Array>
                    </mxGeometry>
                </mxCell>
                <mxCell id="Ymgi8AtLxsKTSbRszZ6a-44" value="" style="endArrow=none;html=1;rounded=0;strokeColor=default;entryX=0;entryY=0.25;entryDx=0;entryDy=0;" parent="1" target="Ymgi8AtLxsKTSbRszZ6a-6" edge="1">
                    <mxGeometry width="50" height="50" relative="1" as="geometry">
                        <mxPoint x="160" y="460" as="sourcePoint"/>
                        <mxPoint x="210" y="410" as="targetPoint"/>
                    </mxGeometry>
                </mxCell>
                <mxCell id="Ymgi8AtLxsKTSbRszZ6a-45" value="" style="shape=waypoint;sketch=0;fillStyle=solid;size=6;pointerEvents=1;points=[];fillColor=none;resizable=0;rotatable=0;perimeter=centerPerimeter;snapToPoint=1;" parent="1" vertex="1">
                    <mxGeometry x="150" y="570" width="20" height="20" as="geometry"/>
                </mxCell>
                <mxCell id="Ymgi8AtLxsKTSbRszZ6a-46" value="" style="endArrow=none;html=1;rounded=0;strokeColor=default;entryX=0;entryY=0.25;entryDx=0;entryDy=0;" parent="1" edge="1">
                    <mxGeometry width="50" height="50" relative="1" as="geometry">
                        <mxPoint x="160" y="580" as="sourcePoint"/>
                        <mxPoint x="200" y="580" as="targetPoint"/>
                    </mxGeometry>
                </mxCell>
                <mxCell id="Ymgi8AtLxsKTSbRszZ6a-47" value="" style="shape=waypoint;sketch=0;fillStyle=solid;size=6;pointerEvents=1;points=[];fillColor=none;resizable=0;rotatable=0;perimeter=centerPerimeter;snapToPoint=1;" parent="1" vertex="1">
                    <mxGeometry x="150" y="690" width="20" height="20" as="geometry"/>
                </mxCell>
                <mxCell id="Ymgi8AtLxsKTSbRszZ6a-48" value="" style="endArrow=none;html=1;rounded=0;strokeColor=default;entryX=0;entryY=0.25;entryDx=0;entryDy=0;" parent="1" edge="1">
                    <mxGeometry width="50" height="50" relative="1" as="geometry">
                        <mxPoint x="160" y="700" as="sourcePoint"/>
                        <mxPoint x="200" y="700" as="targetPoint"/>
                    </mxGeometry>
                </mxCell>
                <mxCell id="Ymgi8AtLxsKTSbRszZ6a-50" value="" style="endArrow=none;html=1;rounded=0;strokeColor=default;entryX=0;entryY=0.25;entryDx=0;entryDy=0;" parent="1" edge="1">
                    <mxGeometry width="50" height="50" relative="1" as="geometry">
                        <mxPoint x="160" y="820" as="sourcePoint"/>
                        <mxPoint x="200" y="820" as="targetPoint"/>
                    </mxGeometry>
                </mxCell>
                <mxCell id="Ymgi8AtLxsKTSbRszZ6a-51" value="" style="endArrow=none;html=1;rounded=0;strokeColor=default;entryX=0;entryY=0.75;entryDx=0;entryDy=0;exitX=1;exitY=0.5;exitDx=0;exitDy=0;" parent="1" source="Ymgi8AtLxsKTSbRszZ6a-65" target="Ymgi8AtLxsKTSbRszZ6a-24" edge="1">
                    <mxGeometry width="50" height="50" relative="1" as="geometry">
                        <mxPoint x="80" y="360" as="sourcePoint"/>
                        <mxPoint x="120" y="360" as="targetPoint"/>
                        <Array as="points">
                            <mxPoint x="120" y="360"/>
                            <mxPoint x="120" y="860"/>
                        </Array>
                    </mxGeometry>
                </mxCell>
                <mxCell id="Ymgi8AtLxsKTSbRszZ6a-52" value="" style="shape=waypoint;sketch=0;fillStyle=solid;size=6;pointerEvents=1;points=[];fillColor=none;resizable=0;rotatable=0;perimeter=centerPerimeter;snapToPoint=1;" parent="1" vertex="1">
                    <mxGeometry x="110" y="730" width="20" height="20" as="geometry"/>
                </mxCell>
                <mxCell id="Ymgi8AtLxsKTSbRszZ6a-53" value="" style="endArrow=none;html=1;rounded=0;strokeColor=default;entryX=0;entryY=0.75;entryDx=0;entryDy=0;" parent="1" target="Ymgi8AtLxsKTSbRszZ6a-18" edge="1">
                    <mxGeometry width="50" height="50" relative="1" as="geometry">
                        <mxPoint x="120" y="740" as="sourcePoint"/>
                        <mxPoint x="160" y="740" as="targetPoint"/>
                    </mxGeometry>
                </mxCell>
                <mxCell id="Ymgi8AtLxsKTSbRszZ6a-55" value="" style="shape=waypoint;sketch=0;fillStyle=solid;size=6;pointerEvents=1;points=[];fillColor=none;resizable=0;rotatable=0;perimeter=centerPerimeter;snapToPoint=1;" parent="1" vertex="1">
                    <mxGeometry x="110" y="610" width="20" height="20" as="geometry"/>
                </mxCell>
                <mxCell id="Ymgi8AtLxsKTSbRszZ6a-56" value="" style="endArrow=none;html=1;rounded=0;strokeColor=default;entryX=0;entryY=0.75;entryDx=0;entryDy=0;" parent="1" edge="1">
                    <mxGeometry width="50" height="50" relative="1" as="geometry">
                        <mxPoint x="120" y="620" as="sourcePoint"/>
                        <mxPoint x="200" y="620" as="targetPoint"/>
                    </mxGeometry>
                </mxCell>
                <mxCell id="Ymgi8AtLxsKTSbRszZ6a-57" value="" style="shape=waypoint;sketch=0;fillStyle=solid;size=6;pointerEvents=1;points=[];fillColor=none;resizable=0;rotatable=0;perimeter=centerPerimeter;snapToPoint=1;" parent="1" vertex="1">
                    <mxGeometry x="110" y="490" width="20" height="20" as="geometry"/>
                </mxCell>
                <mxCell id="Ymgi8AtLxsKTSbRszZ6a-58" value="" style="endArrow=none;html=1;rounded=0;strokeColor=default;entryX=0;entryY=0.75;entryDx=0;entryDy=0;" parent="1" edge="1">
                    <mxGeometry width="50" height="50" relative="1" as="geometry">
                        <mxPoint x="120" y="500" as="sourcePoint"/>
                        <mxPoint x="200" y="500" as="targetPoint"/>
                    </mxGeometry>
                </mxCell>
                <mxCell id="Ymgi8AtLxsKTSbRszZ6a-64" value="A" style="text;html=1;strokeColor=none;fillColor=none;align=center;verticalAlign=middle;whiteSpace=wrap;rounded=0;" parent="1" vertex="1">
                    <mxGeometry x="40" y="390" width="20" height="20" as="geometry"/>
                </mxCell>
                <mxCell id="Ymgi8AtLxsKTSbRszZ6a-65" value="B" style="text;html=1;strokeColor=none;fillColor=none;align=center;verticalAlign=middle;whiteSpace=wrap;rounded=0;" parent="1" vertex="1">
                    <mxGeometry x="40" y="350" width="20" height="20" as="geometry"/>
                </mxCell>
                <mxCell id="Ymgi8AtLxsKTSbRszZ6a-67" value="OUT" style="text;html=1;strokeColor=none;fillColor=none;align=center;verticalAlign=middle;whiteSpace=wrap;rounded=0;" parent="1" vertex="1">
                    <mxGeometry x="700" y="650" width="30" height="20" as="geometry"/>
                </mxCell>
                <mxCell id="Ymgi8AtLxsKTSbRszZ6a-37" style="edgeStyle=none;html=1;exitX=1;exitY=0.5;exitDx=0;exitDy=0;entryX=0;entryY=0.25;entryDx=0;entryDy=0;strokeColor=default;rounded=0;" parent="1" source="Ymgi8AtLxsKTSbRszZ6a-29" target="Ymgi8AtLxsKTSbRszZ6a-31" edge="1">
                    <mxGeometry relative="1" as="geometry">
                        <Array as="points">
                            <mxPoint x="560" y="540"/>
                            <mxPoint x="560" y="640"/>
                        </Array>
                    </mxGeometry>
                </mxCell>
                <mxCell id="Ymgi8AtLxsKTSbRszZ6a-36" style="edgeStyle=none;html=1;exitX=1;exitY=0.5;exitDx=0;exitDy=0;entryX=0;entryY=0.75;entryDx=0;entryDy=0;rounded=0;" parent="1" source="Ymgi8AtLxsKTSbRszZ6a-30" target="Ymgi8AtLxsKTSbRszZ6a-31" edge="1">
                    <mxGeometry relative="1" as="geometry">
                        <Array as="points">
                            <mxPoint x="560" y="780"/>
                            <mxPoint x="560" y="680"/>
                        </Array>
                    </mxGeometry>
                </mxCell>
                <mxCell id="Ymgi8AtLxsKTSbRszZ6a-38" style="edgeStyle=none;rounded=0;html=1;exitX=1;exitY=0.5;exitDx=0;exitDy=0;strokeColor=default;entryX=0;entryY=0.5;entryDx=0;entryDy=0;" parent="1" source="Ymgi8AtLxsKTSbRszZ6a-31" target="Ymgi8AtLxsKTSbRszZ6a-67" edge="1">
                    <mxGeometry relative="1" as="geometry">
                        <mxPoint x="690" y="660" as="targetPoint"/>
                    </mxGeometry>
                </mxCell>
                <mxCell id="oanLbzMRLrO47kRGS5rE-655" value="0" style="text;html=1;strokeColor=none;fillColor=none;align=center;verticalAlign=middle;whiteSpace=wrap;rounded=0;" parent="1" vertex="1">
                    <mxGeometry x="440" y="500" width="20" height="20" as="geometry"/>
                </mxCell>
                <mxCell id="oanLbzMRLrO47kRGS5rE-656" value="1" style="text;html=1;strokeColor=none;fillColor=none;align=center;verticalAlign=middle;whiteSpace=wrap;rounded=0;" parent="1" vertex="1">
                    <mxGeometry x="440" y="540" width="20" height="20" as="geometry"/>
                </mxCell>
                <mxCell id="oanLbzMRLrO47kRGS5rE-657" value="4" style="text;html=1;strokeColor=none;fillColor=none;align=center;verticalAlign=middle;whiteSpace=wrap;rounded=0;" parent="1" vertex="1">
                    <mxGeometry x="540" y="520" width="20" height="20" as="geometry"/>
                </mxCell>
                <mxCell id="oanLbzMRLrO47kRGS5rE-658" value="2" style="text;html=1;strokeColor=none;fillColor=none;align=center;verticalAlign=middle;whiteSpace=wrap;rounded=0;" parent="1" vertex="1">
                    <mxGeometry x="440" y="740" width="20" height="20" as="geometry"/>
                </mxCell>
                <mxCell id="oanLbzMRLrO47kRGS5rE-659" value="3" style="text;html=1;strokeColor=none;fillColor=none;align=center;verticalAlign=middle;whiteSpace=wrap;rounded=0;" parent="1" vertex="1">
                    <mxGeometry x="440" y="780" width="20" height="20" as="geometry"/>
                </mxCell>
                <mxCell id="oanLbzMRLrO47kRGS5rE-660" value="5" style="text;html=1;strokeColor=none;fillColor=none;align=center;verticalAlign=middle;whiteSpace=wrap;rounded=0;" parent="1" vertex="1">
                    <mxGeometry x="540" y="760" width="20" height="20" as="geometry"/>
                </mxCell>
                <mxCell id="oanLbzMRLrO47kRGS5rE-661" value="4" style="text;html=1;strokeColor=none;fillColor=none;align=center;verticalAlign=middle;whiteSpace=wrap;rounded=0;" parent="1" vertex="1">
                    <mxGeometry x="560" y="620" width="20" height="20" as="geometry"/>
                </mxCell>
                <mxCell id="oanLbzMRLrO47kRGS5rE-662" value="5" style="text;html=1;strokeColor=none;fillColor=none;align=center;verticalAlign=middle;whiteSpace=wrap;rounded=0;" parent="1" vertex="1">
                    <mxGeometry x="560" y="660" width="20" height="20" as="geometry"/>
                </mxCell>
                <mxCell id="oanLbzMRLrO47kRGS5rE-663" value="6" style="text;html=1;strokeColor=none;fillColor=none;align=center;verticalAlign=middle;whiteSpace=wrap;rounded=0;" parent="1" vertex="1">
                    <mxGeometry x="660" y="640" width="20" height="20" as="geometry"/>
                </mxCell>
                <mxCell id="oanLbzMRLrO47kRGS5rE-664" value="0" style="text;html=1;strokeColor=none;fillColor=none;align=center;verticalAlign=middle;whiteSpace=wrap;rounded=0;" parent="1" vertex="1">
                    <mxGeometry x="440" y="1180" width="20" height="20" as="geometry"/>
                </mxCell>
                <mxCell id="oanLbzMRLrO47kRGS5rE-665" value="1" style="text;html=1;strokeColor=none;fillColor=none;align=center;verticalAlign=middle;whiteSpace=wrap;rounded=0;" parent="1" vertex="1">
                    <mxGeometry x="440" y="1220" width="20" height="20" as="geometry"/>
                </mxCell>
                <mxCell id="oanLbzMRLrO47kRGS5rE-666" value="16" style="text;html=1;strokeColor=none;fillColor=none;align=center;verticalAlign=middle;whiteSpace=wrap;rounded=0;" parent="1" vertex="1">
                    <mxGeometry x="540" y="1200" width="20" height="20" as="geometry"/>
                </mxCell>
                <mxCell id="oanLbzMRLrO47kRGS5rE-667" value="2" style="text;html=1;strokeColor=none;fillColor=none;align=center;verticalAlign=middle;whiteSpace=wrap;rounded=0;" parent="1" vertex="1">
                    <mxGeometry x="440" y="1420" width="20" height="20" as="geometry"/>
                </mxCell>
                <mxCell id="oanLbzMRLrO47kRGS5rE-668" value="3" style="text;html=1;strokeColor=none;fillColor=none;align=center;verticalAlign=middle;whiteSpace=wrap;rounded=0;" parent="1" vertex="1">
                    <mxGeometry x="440" y="1460" width="20" height="20" as="geometry"/>
                </mxCell>
                <mxCell id="oanLbzMRLrO47kRGS5rE-669" value="17" style="text;html=1;strokeColor=none;fillColor=none;align=center;verticalAlign=middle;whiteSpace=wrap;rounded=0;" parent="1" vertex="1">
                    <mxGeometry x="540" y="1440" width="20" height="20" as="geometry"/>
                </mxCell>
                <mxCell id="oanLbzMRLrO47kRGS5rE-670" value="4" style="text;html=1;strokeColor=none;fillColor=none;align=center;verticalAlign=middle;whiteSpace=wrap;rounded=0;" parent="1" vertex="1">
                    <mxGeometry x="440" y="1660" width="20" height="20" as="geometry"/>
                </mxCell>
                <mxCell id="oanLbzMRLrO47kRGS5rE-671" value="5" style="text;html=1;strokeColor=none;fillColor=none;align=center;verticalAlign=middle;whiteSpace=wrap;rounded=0;" parent="1" vertex="1">
                    <mxGeometry x="440" y="1700" width="20" height="20" as="geometry"/>
                </mxCell>
                <mxCell id="oanLbzMRLrO47kRGS5rE-672" value="18" style="text;html=1;strokeColor=none;fillColor=none;align=center;verticalAlign=middle;whiteSpace=wrap;rounded=0;" parent="1" vertex="1">
                    <mxGeometry x="540" y="1680" width="20" height="20" as="geometry"/>
                </mxCell>
                <mxCell id="oanLbzMRLrO47kRGS5rE-673" value="6" style="text;html=1;strokeColor=none;fillColor=none;align=center;verticalAlign=middle;whiteSpace=wrap;rounded=0;" parent="1" vertex="1">
                    <mxGeometry x="440" y="1900" width="20" height="20" as="geometry"/>
                </mxCell>
                <mxCell id="oanLbzMRLrO47kRGS5rE-674" value="7" style="text;html=1;strokeColor=none;fillColor=none;align=center;verticalAlign=middle;whiteSpace=wrap;rounded=0;" parent="1" vertex="1">
                    <mxGeometry x="440" y="1940" width="20" height="20" as="geometry"/>
                </mxCell>
                <mxCell id="oanLbzMRLrO47kRGS5rE-675" value="19" style="text;html=1;strokeColor=none;fillColor=none;align=center;verticalAlign=middle;whiteSpace=wrap;rounded=0;" parent="1" vertex="1">
                    <mxGeometry x="540" y="1920" width="20" height="20" as="geometry"/>
                </mxCell>
                <mxCell id="oanLbzMRLrO47kRGS5rE-676" value="8" style="text;html=1;strokeColor=none;fillColor=none;align=center;verticalAlign=middle;whiteSpace=wrap;rounded=0;" parent="1" vertex="1">
                    <mxGeometry x="440" y="2140" width="20" height="20" as="geometry"/>
                </mxCell>
                <mxCell id="oanLbzMRLrO47kRGS5rE-677" value="9" style="text;html=1;strokeColor=none;fillColor=none;align=center;verticalAlign=middle;whiteSpace=wrap;rounded=0;" parent="1" vertex="1">
                    <mxGeometry x="440" y="2180" width="20" height="20" as="geometry"/>
                </mxCell>
                <mxCell id="oanLbzMRLrO47kRGS5rE-678" value="20" style="text;html=1;strokeColor=none;fillColor=none;align=center;verticalAlign=middle;whiteSpace=wrap;rounded=0;" parent="1" vertex="1">
                    <mxGeometry x="540" y="2160" width="20" height="20" as="geometry"/>
                </mxCell>
                <mxCell id="oanLbzMRLrO47kRGS5rE-679" value="10" style="text;html=1;strokeColor=none;fillColor=none;align=center;verticalAlign=middle;whiteSpace=wrap;rounded=0;" parent="1" vertex="1">
                    <mxGeometry x="440" y="2380" width="20" height="20" as="geometry"/>
                </mxCell>
                <mxCell id="oanLbzMRLrO47kRGS5rE-680" value="11" style="text;html=1;strokeColor=none;fillColor=none;align=center;verticalAlign=middle;whiteSpace=wrap;rounded=0;" parent="1" vertex="1">
                    <mxGeometry x="440" y="2420" width="20" height="20" as="geometry"/>
                </mxCell>
                <mxCell id="oanLbzMRLrO47kRGS5rE-681" value="21" style="text;html=1;strokeColor=none;fillColor=none;align=center;verticalAlign=middle;whiteSpace=wrap;rounded=0;" parent="1" vertex="1">
                    <mxGeometry x="540" y="2400" width="20" height="20" as="geometry"/>
                </mxCell>
                <mxCell id="oanLbzMRLrO47kRGS5rE-682" value="12" style="text;html=1;strokeColor=none;fillColor=none;align=center;verticalAlign=middle;whiteSpace=wrap;rounded=0;" parent="1" vertex="1">
                    <mxGeometry x="440" y="2620" width="20" height="20" as="geometry"/>
                </mxCell>
                <mxCell id="oanLbzMRLrO47kRGS5rE-683" value="13" style="text;html=1;strokeColor=none;fillColor=none;align=center;verticalAlign=middle;whiteSpace=wrap;rounded=0;" parent="1" vertex="1">
                    <mxGeometry x="440" y="2660" width="20" height="20" as="geometry"/>
                </mxCell>
                <mxCell id="oanLbzMRLrO47kRGS5rE-684" value="22" style="text;html=1;strokeColor=none;fillColor=none;align=center;verticalAlign=middle;whiteSpace=wrap;rounded=0;" parent="1" vertex="1">
                    <mxGeometry x="540" y="2640" width="20" height="20" as="geometry"/>
                </mxCell>
                <mxCell id="oanLbzMRLrO47kRGS5rE-685" value="14" style="text;html=1;strokeColor=none;fillColor=none;align=center;verticalAlign=middle;whiteSpace=wrap;rounded=0;" parent="1" vertex="1">
                    <mxGeometry x="440" y="2860" width="20" height="20" as="geometry"/>
                </mxCell>
                <mxCell id="oanLbzMRLrO47kRGS5rE-686" value="15" style="text;html=1;strokeColor=none;fillColor=none;align=center;verticalAlign=middle;whiteSpace=wrap;rounded=0;" parent="1" vertex="1">
                    <mxGeometry x="440" y="2900" width="20" height="20" as="geometry"/>
                </mxCell>
                <mxCell id="oanLbzMRLrO47kRGS5rE-687" value="23" style="text;html=1;strokeColor=none;fillColor=none;align=center;verticalAlign=middle;whiteSpace=wrap;rounded=0;" parent="1" vertex="1">
                    <mxGeometry x="540" y="2880" width="20" height="20" as="geometry"/>
                </mxCell>
                <mxCell id="oanLbzMRLrO47kRGS5rE-688" value="18" style="text;html=1;strokeColor=none;fillColor=none;align=center;verticalAlign=middle;whiteSpace=wrap;rounded=0;" parent="1" vertex="1">
                    <mxGeometry x="560" y="1780" width="20" height="20" as="geometry"/>
                </mxCell>
                <mxCell id="oanLbzMRLrO47kRGS5rE-689" value="19" style="text;html=1;strokeColor=none;fillColor=none;align=center;verticalAlign=middle;whiteSpace=wrap;rounded=0;" parent="1" vertex="1">
                    <mxGeometry x="560" y="1820" width="20" height="20" as="geometry"/>
                </mxCell>
                <mxCell id="oanLbzMRLrO47kRGS5rE-690" value="25" style="text;html=1;strokeColor=none;fillColor=none;align=center;verticalAlign=middle;whiteSpace=wrap;rounded=0;" parent="1" vertex="1">
                    <mxGeometry x="660" y="1800" width="20" height="20" as="geometry"/>
                </mxCell>
                <mxCell id="oanLbzMRLrO47kRGS5rE-691" value="24" style="text;html=1;strokeColor=none;fillColor=none;align=center;verticalAlign=middle;whiteSpace=wrap;rounded=0;" parent="1" vertex="1">
                    <mxGeometry x="680" y="1540" width="20" height="20" as="geometry"/>
                </mxCell>
                <mxCell id="oanLbzMRLrO47kRGS5rE-692" value="25" style="text;html=1;strokeColor=none;fillColor=none;align=center;verticalAlign=middle;whiteSpace=wrap;rounded=0;" parent="1" vertex="1">
                    <mxGeometry x="680" y="1580" width="20" height="20" as="geometry"/>
                </mxCell>
                <mxCell id="oanLbzMRLrO47kRGS5rE-693" value="28" style="text;html=1;strokeColor=none;fillColor=none;align=center;verticalAlign=middle;whiteSpace=wrap;rounded=0;" parent="1" vertex="1">
                    <mxGeometry x="780" y="1560" width="20" height="20" as="geometry"/>
                </mxCell>
                <mxCell id="oanLbzMRLrO47kRGS5rE-694" value="28" style="text;html=1;strokeColor=none;fillColor=none;align=center;verticalAlign=middle;whiteSpace=wrap;rounded=0;" parent="1" vertex="1">
                    <mxGeometry x="800" y="2020" width="20" height="20" as="geometry"/>
                </mxCell>
                <mxCell id="oanLbzMRLrO47kRGS5rE-695" value="29" style="text;html=1;strokeColor=none;fillColor=none;align=center;verticalAlign=middle;whiteSpace=wrap;rounded=0;" parent="1" vertex="1">
                    <mxGeometry x="800" y="2060" width="20" height="20" as="geometry"/>
                </mxCell>
                <mxCell id="oanLbzMRLrO47kRGS5rE-696" value="30" style="text;html=1;strokeColor=none;fillColor=none;align=center;verticalAlign=middle;whiteSpace=wrap;rounded=0;" parent="1" vertex="1">
                    <mxGeometry x="900" y="2040" width="20" height="20" as="geometry"/>
                </mxCell>
                <mxCell id="oanLbzMRLrO47kRGS5rE-697" value="20" style="text;html=1;strokeColor=none;fillColor=none;align=center;verticalAlign=middle;whiteSpace=wrap;rounded=0;" parent="1" vertex="1">
                    <mxGeometry x="560" y="2260" width="20" height="20" as="geometry"/>
                </mxCell>
                <mxCell id="oanLbzMRLrO47kRGS5rE-698" value="21" style="text;html=1;strokeColor=none;fillColor=none;align=center;verticalAlign=middle;whiteSpace=wrap;rounded=0;" parent="1" vertex="1">
                    <mxGeometry x="560" y="2300" width="20" height="20" as="geometry"/>
                </mxCell>
                <mxCell id="oanLbzMRLrO47kRGS5rE-699" value="26" style="text;html=1;strokeColor=none;fillColor=none;align=center;verticalAlign=middle;whiteSpace=wrap;rounded=0;" parent="1" vertex="1">
                    <mxGeometry x="660" y="2280" width="20" height="20" as="geometry"/>
                </mxCell>
                <mxCell id="oanLbzMRLrO47kRGS5rE-700" value="26" style="text;html=1;strokeColor=none;fillColor=none;align=center;verticalAlign=middle;whiteSpace=wrap;rounded=0;" parent="1" vertex="1">
                    <mxGeometry x="680" y="2500" width="20" height="20" as="geometry"/>
                </mxCell>
                <mxCell id="oanLbzMRLrO47kRGS5rE-701" value="27" style="text;html=1;strokeColor=none;fillColor=none;align=center;verticalAlign=middle;whiteSpace=wrap;rounded=0;" parent="1" vertex="1">
                    <mxGeometry x="680" y="2540" width="20" height="20" as="geometry"/>
                </mxCell>
                <mxCell id="oanLbzMRLrO47kRGS5rE-702" value="29" style="text;html=1;strokeColor=none;fillColor=none;align=center;verticalAlign=middle;whiteSpace=wrap;rounded=0;" parent="1" vertex="1">
                    <mxGeometry x="780" y="2520" width="20" height="20" as="geometry"/>
                </mxCell>
                <mxCell id="oanLbzMRLrO47kRGS5rE-703" value="22" style="text;html=1;strokeColor=none;fillColor=none;align=center;verticalAlign=middle;whiteSpace=wrap;rounded=0;" parent="1" vertex="1">
                    <mxGeometry x="560" y="2740" width="20" height="20" as="geometry"/>
                </mxCell>
                <mxCell id="oanLbzMRLrO47kRGS5rE-704" value="23" style="text;html=1;strokeColor=none;fillColor=none;align=center;verticalAlign=middle;whiteSpace=wrap;rounded=0;" parent="1" vertex="1">
                    <mxGeometry x="560" y="2780" width="20" height="20" as="geometry"/>
                </mxCell>
                <mxCell id="oanLbzMRLrO47kRGS5rE-705" value="27" style="text;html=1;strokeColor=none;fillColor=none;align=center;verticalAlign=middle;whiteSpace=wrap;rounded=0;" parent="1" vertex="1">
                    <mxGeometry x="660" y="2760" width="20" height="20" as="geometry"/>
                </mxCell>
                <mxCell id="oanLbzMRLrO47kRGS5rE-706" value="16" style="text;html=1;strokeColor=none;fillColor=none;align=center;verticalAlign=middle;whiteSpace=wrap;rounded=0;" parent="1" vertex="1">
                    <mxGeometry x="560" y="1300" width="20" height="20" as="geometry"/>
                </mxCell>
                <mxCell id="oanLbzMRLrO47kRGS5rE-707" value="17" style="text;html=1;strokeColor=none;fillColor=none;align=center;verticalAlign=middle;whiteSpace=wrap;rounded=0;" parent="1" vertex="1">
                    <mxGeometry x="560" y="1340" width="20" height="20" as="geometry"/>
                </mxCell>
                <mxCell id="oanLbzMRLrO47kRGS5rE-708" value="24" style="text;html=1;strokeColor=none;fillColor=none;align=center;verticalAlign=middle;whiteSpace=wrap;rounded=0;" parent="1" vertex="1">
                    <mxGeometry x="660" y="1320" width="20" height="20" as="geometry"/>
                </mxCell>
            </root>
        </mxGraphModel>
    </diagram>
    <diagram id="diczz6ePIACqCGDy3RMP" name="Nuron">
        <mxGraphModel dx="989" dy="569" grid="1" gridSize="10" guides="1" tooltips="1" connect="1" arrows="1" fold="1" page="1" pageScale="1" pageWidth="4681" pageHeight="3300" math="0" shadow="0">
            <root>
                <mxCell id="0"/>
                <mxCell id="1" parent="0"/>
                <mxCell id="s3vumEDeoFLonyZzGIdh-8" style="edgeStyle=none;html=1;exitX=1;exitY=0.5;exitDx=0;exitDy=0;entryX=0;entryY=0.75;entryDx=0;entryDy=0;" parent="1" source="s3vumEDeoFLonyZzGIdh-1" target="s3vumEDeoFLonyZzGIdh-2" edge="1">
                    <mxGeometry relative="1" as="geometry">
                        <Array as="points">
                            <mxPoint x="280" y="160"/>
                            <mxPoint x="280" y="180"/>
                        </Array>
                    </mxGeometry>
                </mxCell>
                <mxCell id="s3vumEDeoFLonyZzGIdh-9" style="edgeStyle=none;html=1;exitX=0;exitY=0.75;exitDx=0;exitDy=0;entryX=0;entryY=0.75;entryDx=0;entryDy=0;" parent="1" target="s3vumEDeoFLonyZzGIdh-1" edge="1">
                    <mxGeometry relative="1" as="geometry">
                        <mxPoint x="120" y="180.2" as="sourcePoint"/>
                    </mxGeometry>
                </mxCell>
                <mxCell id="s3vumEDeoFLonyZzGIdh-10" value="B" style="edgeLabel;html=1;align=center;verticalAlign=middle;resizable=0;points=[];" parent="s3vumEDeoFLonyZzGIdh-9" vertex="1" connectable="0">
                    <mxGeometry x="-0.7198" y="1" relative="1" as="geometry">
                        <mxPoint x="-6" y="-9" as="offset"/>
                    </mxGeometry>
                </mxCell>
                <mxCell id="s3vumEDeoFLonyZzGIdh-11" style="edgeStyle=none;html=1;exitX=0;exitY=0.25;exitDx=0;exitDy=0;entryX=0;entryY=0.25;entryDx=0;entryDy=0;" parent="1" target="s3vumEDeoFLonyZzGIdh-1" edge="1">
                    <mxGeometry relative="1" as="geometry">
                        <mxPoint x="120" y="140.2" as="sourcePoint"/>
                    </mxGeometry>
                </mxCell>
                <mxCell id="s3vumEDeoFLonyZzGIdh-12" value="A" style="edgeLabel;html=1;align=center;verticalAlign=middle;resizable=0;points=[];" parent="s3vumEDeoFLonyZzGIdh-11" vertex="1" connectable="0">
                    <mxGeometry x="-0.5999" relative="1" as="geometry">
                        <mxPoint x="-8" y="-10" as="offset"/>
                    </mxGeometry>
                </mxCell>
                <mxCell id="s3vumEDeoFLonyZzGIdh-1" value="2 x 32" style="rounded=0;whiteSpace=wrap;html=1;" parent="1" vertex="1">
                    <mxGeometry x="160" y="120" width="80" height="80" as="geometry"/>
                </mxCell>
                <mxCell id="s3vumEDeoFLonyZzGIdh-14" style="edgeStyle=none;html=1;exitX=1;exitY=0.5;exitDx=0;exitDy=0;entryX=-0.025;entryY=0.75;entryDx=0;entryDy=0;entryPerimeter=0;" parent="1" source="s3vumEDeoFLonyZzGIdh-2" target="s3vumEDeoFLonyZzGIdh-3" edge="1">
                    <mxGeometry relative="1" as="geometry">
                        <Array as="points">
                            <mxPoint x="440" y="160"/>
                            <mxPoint x="440" y="180"/>
                        </Array>
                    </mxGeometry>
                </mxCell>
                <mxCell id="s3vumEDeoFLonyZzGIdh-17" style="edgeStyle=none;html=1;entryX=0;entryY=0.25;entryDx=0;entryDy=0;" parent="1" target="s3vumEDeoFLonyZzGIdh-2" edge="1">
                    <mxGeometry relative="1" as="geometry">
                        <mxPoint x="280" y="80" as="sourcePoint"/>
                        <Array as="points">
                            <mxPoint x="280" y="140"/>
                        </Array>
                    </mxGeometry>
                </mxCell>
                <mxCell id="s3vumEDeoFLonyZzGIdh-21" value="C" style="edgeLabel;html=1;align=center;verticalAlign=middle;resizable=0;points=[];" parent="s3vumEDeoFLonyZzGIdh-17" vertex="1" connectable="0">
                    <mxGeometry x="-0.868" y="1" relative="1" as="geometry">
                        <mxPoint y="-17" as="offset"/>
                    </mxGeometry>
                </mxCell>
                <mxCell id="s3vumEDeoFLonyZzGIdh-2" value="32 x 32" style="rounded=0;whiteSpace=wrap;html=1;" parent="1" vertex="1">
                    <mxGeometry x="320" y="120" width="80" height="80" as="geometry"/>
                </mxCell>
                <mxCell id="s3vumEDeoFLonyZzGIdh-15" style="edgeStyle=none;html=1;exitX=1;exitY=0.5;exitDx=0;exitDy=0;entryX=0;entryY=0.75;entryDx=0;entryDy=0;" parent="1" source="s3vumEDeoFLonyZzGIdh-3" target="s3vumEDeoFLonyZzGIdh-4" edge="1">
                    <mxGeometry relative="1" as="geometry">
                        <Array as="points">
                            <mxPoint x="600" y="160"/>
                            <mxPoint x="600" y="180"/>
                        </Array>
                    </mxGeometry>
                </mxCell>
                <mxCell id="s3vumEDeoFLonyZzGIdh-18" style="edgeStyle=none;html=1;entryX=0;entryY=0.25;entryDx=0;entryDy=0;" parent="1" target="s3vumEDeoFLonyZzGIdh-3" edge="1">
                    <mxGeometry relative="1" as="geometry">
                        <mxPoint x="440" y="80" as="sourcePoint"/>
                        <Array as="points">
                            <mxPoint x="440" y="140"/>
                        </Array>
                    </mxGeometry>
                </mxCell>
                <mxCell id="s3vumEDeoFLonyZzGIdh-22" value="D" style="edgeLabel;html=1;align=center;verticalAlign=middle;resizable=0;points=[];" parent="s3vumEDeoFLonyZzGIdh-18" vertex="1" connectable="0">
                    <mxGeometry x="-0.9" relative="1" as="geometry">
                        <mxPoint y="-15" as="offset"/>
                    </mxGeometry>
                </mxCell>
                <mxCell id="s3vumEDeoFLonyZzGIdh-3" value="32 x 32" style="rounded=0;whiteSpace=wrap;html=1;" parent="1" vertex="1">
                    <mxGeometry x="480" y="120" width="80" height="80" as="geometry"/>
                </mxCell>
                <mxCell id="s3vumEDeoFLonyZzGIdh-16" style="edgeStyle=none;html=1;exitX=1;exitY=0.5;exitDx=0;exitDy=0;entryX=0;entryY=0.75;entryDx=0;entryDy=0;" parent="1" source="s3vumEDeoFLonyZzGIdh-4" target="s3vumEDeoFLonyZzGIdh-7" edge="1">
                    <mxGeometry relative="1" as="geometry">
                        <Array as="points">
                            <mxPoint x="760" y="160"/>
                            <mxPoint x="760" y="180"/>
                        </Array>
                    </mxGeometry>
                </mxCell>
                <mxCell id="s3vumEDeoFLonyZzGIdh-19" style="edgeStyle=none;html=1;entryX=0;entryY=0.25;entryDx=0;entryDy=0;" parent="1" target="s3vumEDeoFLonyZzGIdh-4" edge="1">
                    <mxGeometry relative="1" as="geometry">
                        <mxPoint x="600" y="80" as="sourcePoint"/>
                        <Array as="points">
                            <mxPoint x="600" y="140"/>
                        </Array>
                    </mxGeometry>
                </mxCell>
                <mxCell id="s3vumEDeoFLonyZzGIdh-23" value="E" style="edgeLabel;html=1;align=center;verticalAlign=middle;resizable=0;points=[];" parent="s3vumEDeoFLonyZzGIdh-19" vertex="1" connectable="0">
                    <mxGeometry x="-0.828" y="1" relative="1" as="geometry">
                        <mxPoint y="-19" as="offset"/>
                    </mxGeometry>
                </mxCell>
                <mxCell id="s3vumEDeoFLonyZzGIdh-4" value="32 x 32" style="rounded=0;whiteSpace=wrap;html=1;" parent="1" vertex="1">
                    <mxGeometry x="640" y="120" width="80" height="80" as="geometry"/>
                </mxCell>
                <mxCell id="s3vumEDeoFLonyZzGIdh-20" style="edgeStyle=none;html=1;entryX=0;entryY=0.25;entryDx=0;entryDy=0;" parent="1" target="s3vumEDeoFLonyZzGIdh-7" edge="1">
                    <mxGeometry relative="1" as="geometry">
                        <mxPoint x="760" y="80" as="sourcePoint"/>
                        <Array as="points">
                            <mxPoint x="760" y="140"/>
                        </Array>
                    </mxGeometry>
                </mxCell>
                <mxCell id="s3vumEDeoFLonyZzGIdh-24" value="F" style="edgeLabel;html=1;align=center;verticalAlign=middle;resizable=0;points=[];" parent="s3vumEDeoFLonyZzGIdh-20" vertex="1" connectable="0">
                    <mxGeometry x="-0.884" relative="1" as="geometry">
                        <mxPoint y="-16" as="offset"/>
                    </mxGeometry>
                </mxCell>
                <mxCell id="s3vumEDeoFLonyZzGIdh-7" value="32 x 1" style="rounded=0;whiteSpace=wrap;html=1;" parent="1" vertex="1">
                    <mxGeometry x="800" y="120" width="80" height="80" as="geometry"/>
                </mxCell>
                <mxCell id="Gz6ART_Tp3G6YBAF9SMN-1" value="2 x 3" style="rounded=0;whiteSpace=wrap;html=1;" vertex="1" parent="1">
                    <mxGeometry x="160" y="280" width="80" height="80" as="geometry"/>
                </mxCell>
                <mxCell id="Gz6ART_Tp3G6YBAF9SMN-2" value="3 x 2" style="rounded=0;whiteSpace=wrap;html=1;" vertex="1" parent="1">
                    <mxGeometry x="320" y="280" width="80" height="80" as="geometry"/>
                </mxCell>
                <mxCell id="Gz6ART_Tp3G6YBAF9SMN-3" value="A1" style="rounded=0;whiteSpace=wrap;html=1;" vertex="1" parent="1">
                    <mxGeometry x="160" y="440" width="40" height="40" as="geometry"/>
                </mxCell>
                <mxCell id="Gz6ART_Tp3G6YBAF9SMN-4" value="A2" style="rounded=0;whiteSpace=wrap;html=1;" vertex="1" parent="1">
                    <mxGeometry x="200" y="440" width="40" height="40" as="geometry"/>
                </mxCell>
                <mxCell id="Gz6ART_Tp3G6YBAF9SMN-5" value="A3" style="rounded=0;whiteSpace=wrap;html=1;" vertex="1" parent="1">
                    <mxGeometry x="240" y="440" width="40" height="40" as="geometry"/>
                </mxCell>
                <mxCell id="Gz6ART_Tp3G6YBAF9SMN-9" value="A1" style="rounded=0;whiteSpace=wrap;html=1;" vertex="1" parent="1">
                    <mxGeometry x="160" y="600" width="40" height="40" as="geometry"/>
                </mxCell>
                <mxCell id="Gz6ART_Tp3G6YBAF9SMN-10" value="A2" style="rounded=0;whiteSpace=wrap;html=1;" vertex="1" parent="1">
                    <mxGeometry x="200" y="600" width="40" height="40" as="geometry"/>
                </mxCell>
                <mxCell id="Gz6ART_Tp3G6YBAF9SMN-11" value="A3" style="rounded=0;whiteSpace=wrap;html=1;" vertex="1" parent="1">
                    <mxGeometry x="240" y="600" width="40" height="40" as="geometry"/>
                </mxCell>
                <mxCell id="Gz6ART_Tp3G6YBAF9SMN-12" value="A1" style="rounded=0;whiteSpace=wrap;html=1;" vertex="1" parent="1">
                    <mxGeometry x="320" y="400" width="40" height="40" as="geometry"/>
                </mxCell>
                <mxCell id="Gz6ART_Tp3G6YBAF9SMN-14" value="A2" style="rounded=0;whiteSpace=wrap;html=1;" vertex="1" parent="1">
                    <mxGeometry x="320" y="440" width="40" height="40" as="geometry"/>
                </mxCell>
                <mxCell id="Gz6ART_Tp3G6YBAF9SMN-15" value="A3" style="rounded=0;whiteSpace=wrap;html=1;" vertex="1" parent="1">
                    <mxGeometry x="320" y="480" width="40" height="40" as="geometry"/>
                </mxCell>
                <mxCell id="Gz6ART_Tp3G6YBAF9SMN-19" value="A1" style="rounded=0;whiteSpace=wrap;html=1;" vertex="1" parent="1">
                    <mxGeometry x="320" y="560" width="40" height="40" as="geometry"/>
                </mxCell>
                <mxCell id="Gz6ART_Tp3G6YBAF9SMN-20" value="A2" style="rounded=0;whiteSpace=wrap;html=1;" vertex="1" parent="1">
                    <mxGeometry x="320" y="600" width="40" height="40" as="geometry"/>
                </mxCell>
                <mxCell id="Gz6ART_Tp3G6YBAF9SMN-21" value="A3" style="rounded=0;whiteSpace=wrap;html=1;" vertex="1" parent="1">
                    <mxGeometry x="320" y="640" width="40" height="40" as="geometry"/>
                </mxCell>
            </root>
        </mxGraphModel>
    </diagram>
</mxfile>